<?xml version="1.0" encoding="utf-8"?>
<svg id="master-artboard" viewBox="0 0 1400 980" version="1.1" xmlns="http://www.w3.org/2000/svg" x="0px" y="0px" style="enable-background:new 0 0 1400 980;" width="1400px" height="980px"><g transform="matrix(1.8901666841776728, 0, 0, 1.8901666841776728, -0.000009308591870649252, 42.079122879760945)"><g>
  <title>background</title>
  <path d="M -1 -1 H 741.675354 V 474.948547 H -1 V -1 Z" id="canvas_background" fill="none"/>
 </g><g>
  <title>Layer 1</title>
  <path d="m332.07001,378.48227c0,-7.73199 -29.10156,-14 -65,-14s-65.00003,6.26801 -65.00003,14c0,4.95544 11.96437,9.30621 30,11.79431l0,76.70569a6.5,6.5 0 0 0 13,0l0,-75.32397c6.87207,0.53241 14.27689,0.82397 22.00003,0.82397s15.1279,-0.29163 22,-0.82397l0,75.32397a6.5,6.5 0 0 0 13,0l0,-76.70569c18.03564,-2.4881 30,-6.83887 30,-11.79431z" fill="#ccc" id="svg_50"/>
  <path d="M 319.56298828125 460.906005859375 L 331.822998046875 460.906005859375 L 337.6549987792969 413.6180114746094 L 319.5610046386719 413.6180114746094 L 319.56298828125 460.906005859375 Z" fill="#a0616a" id="svg_51"/>
  <path d="m1448.6947,1813.12l38.53064,0l0,0l0,14.88684l0,0l-23.6438,0a14.88686,14.88686 0 0 1 -14.88684,-14.88684l0,0l0,0z" transform="rotate(179.997 902.096 1142.69)" fill="#2f2e41" id="svg_52"/>
  <path d="M 338.70098876953125 454.0639953613281 L 350.39801025390625 450.39300537109375 L 341.8059997558594 403.52801513671875 L 324.5419921875 408.94500732421875 L 338.70098876953125 454.0639953613281 Z" fill="#a0616a" id="svg_53"/>
  <path d="m1679.84033,1571.29993l38.53076,0l0,0l0,14.88684l0,0l-23.6438,0a14.88686,14.88686 0 0 1 -14.88684,-14.88684l0,0l-0.00012,0z" transform="rotate(162.577 1113.69 912.876)" fill="#2f2e41" id="svg_54"/>
  <path d="m330.49884,432.29874l-22.42725,-58.87109c-5.03149,1.18164 -47.22656,10.51855 -61.3589,-4.52832c-4.84326,-5.15723 -5.78784,-12.62891 -2.80762,-22.20801l8.24756,-10.36426l0.25635,0.01367c3.11841,0.16406 76.43532,4.27344 81.4612,26.38867c4.23752,18.64453 11.97656,53.40527 14.24731,63.61523a4.51573,4.51573 0 0 1 -2.81403,5.18359l-9.01932,3.38184a4.46228,4.46228 0 0 1 -1.57196,0.28613a4.51293,4.51293 0 0 1 -4.21335,-2.89746z" fill="#2f2e41" id="svg_55"/>
  <path d="m317.49884,439.29874l-22.42725,-58.87109c-5.03177,1.18164 -47.22658,10.51758 -61.3589,-4.52832c-4.84326,-5.15723 -5.78784,-12.62891 -2.80762,-22.20801l8.24756,-10.36426l0.25635,0.01367c3.11841,0.16406 76.43532,4.27344 81.4612,26.38867c4.23752,18.64453 11.97656,53.40527 14.24731,63.61523a4.51573,4.51573 0 0 1 -2.81403,5.18359l-9.01932,3.38184a4.46228,4.46228 0 0 1 -1.57196,0.28613a4.51293,4.51293 0 0 1 -4.21335,-2.89746z" fill="#2f2e41" id="svg_56"/>
  <path d="m347.80692,298.17621a10.52657,10.52657 0 0 0 -0.88486,1.40152l-49.32025,5.19623l-7.09961,-9.73401l-16.09073,8.79449l13.94449,23.62128l60.48743,-15.42255a10.49579,10.49579 0 1 0 -1.03647,-13.85699l0,0.00003z" fill="#a0616a" id="svg_57"/>
  <path d="m230.58794,356.79971a4.50694,4.50694 0 0 1 -1.8186,-4.34863c2.78247,-18.34277 -0.41895,-44.61914 -3.59473,-63.43262a24.79543,24.79543 0 0 1 27.55933,-28.76172a79.86459,79.86459 0 0 1 9.91286,1.9541l0,0a24.59626,24.59626 0 0 1 18.58197,24.46777c-0.47485,18.1543 3.21149,40.80566 4.81842,49.70117a4.51862,4.51862 0 0 1 -0.83374,3.51074a4.39229,4.39229 0 0 1 -3.09552,1.75c-17.80811,1.81735 -37.01219,10.50192 -46.8745,15.5166a4.50062,4.50062 0 0 1 -2.04956,0.50098a4.42884,4.42884 0 0 1 -2.60593,-0.8584z" fill="#007bff" id="svg_58"/>
  <path d="m278.65872,309.48819a4.47083,4.47083 0 0 1 -2.47366,-2.39746l-9.9314,-22.94238a11.49973,11.49973 0 1 1 21.10718,-9.13574l9.93164,22.94238a4.5057,4.5057 0 0 1 -2.34198,5.91699l-12.84793,5.56152a4.46857,4.46857 0 0 1 -3.44382,0.05469l-0.00003,0z" fill="#007bff" id="svg_59"/>
  <path d="m300.80692,296.17621a10.52657,10.52657 0 0 0 -0.88486,1.40152l-49.32028,5.19623l-7.09958,-9.73401l-16.09073,8.79449l13.94449,23.62128l60.48743,-15.42255a10.49579,10.49579 0 1 0 -1.03647,-13.85699l0,0.00003z" fill="#a0616a" id="svg_60"/>
  <path d="m231.65871,310.48819a4.47083,4.47083 0 0 1 -2.47363,-2.39746l-9.9314,-22.94238a11.49973,11.49973 0 1 1 21.10718,-9.13574l9.93164,22.94238a4.5057,4.5057 0 0 1 -2.34201,5.91699l-12.8479,5.56152a4.46857,4.46857 0 0 1 -3.44385,0.05469l-0.00003,0z" fill="#007bff" id="svg_61"/>
  <path d="M 275.467249 227.89093 A 24.561029 24.561029 0 0 1 250.906219 252.45196 A 24.561029 24.561029 0 0 1 226.34519 227.89093 A 24.561029 24.561029 0 0 1 250.906219 203.329901 A 24.561029 24.561029 0 0 1 275.467249 227.89093 Z" fill="#a0616a" id="svg_62"/>
  <path d="m233.34569,244.74762a2.13481,2.13481 0 0 1 1.85635,-2.81906a4.93049,4.93049 0 0 1 3.4761,1.715a13.83414,13.83414 0 0 0 3.07117,2.63713c1.18811,0.59891 2.79953,0.51355 3.47684,-0.62823c0.63602,-1.0722 0.20023,-2.50803 -0.18481,-3.75348a36.90711,36.90711 0 0 1 -1.62991,-9.76999c-0.11092,-3.70032 0.41116,-7.56201 2.45973,-10.44806c2.64386,-3.72476 7.37143,-5.13882 11.8454,-5.03632s8.87549,1.48363 13.30719,2.35666c1.52991,0.30138 3.32825,0.45551 4.3515,-0.73027c1.08804,-1.2608 0.68845,-3.30139 0.22565,-5.00375c-1.20096,-4.41742 -2.47504,-8.98462 -5.26526,-12.55225a18.89838,18.89838 0 0 0 -12.06079,-6.79013a28.93848,28.93848 0 0 0 -13.46239,1.52838a36.09622,36.09622 0 0 0 -17.68286,12.31857a29.23591,29.23591 0 0 0 -5.57808,21.60019a26.66717,26.66717 0 0 0 9.8858,16.85464l1.90839,-1.47903l-0.00002,0z" fill="#2f2e41" id="svg_63"/>
  <path d="m139.56599,303.87631a122.0417,122.0417 0 0 1 10.10048,-38.51721q2.27963,-5.0925 5.01814,-9.96075a0.7438,0.7438 0 0 0 -1.28354,-0.75026a123.72825,123.72825 0 0 0 -13.76779,37.98228q-1.03366,5.58356 -1.55377,11.24594c-0.08813,0.95215 1.39893,0.94611 1.48648,0z" fill="#3f3d56" id="svg_64"/>
  <path d="M 167.699343 248.36795 A 9.4144 9.4144 0 0 1 158.284943 257.782351 A 9.4144 9.4144 0 0 1 148.870543 248.36795 A 9.4144 9.4144 0 0 1 158.284943 238.95355 A 9.4144 9.4144 0 0 1 167.699343 248.36795 Z" fill="#007bff" id="svg_65"/>
  <path d="m140.52904,304.12637a79.17409,79.17409 0 0 1 6.55267,-24.98792q1.47888,-3.30371 3.25549,-6.46201a0.48254,0.48254 0 0 0 -0.8327,-0.48672a80.26817,80.26817 0 0 0 -8.93182,24.6409q-0.67056,3.62228 -1.008,7.29575c-0.05716,0.61768 0.90756,0.61383 0.96436,0z" fill="#3f3d56" id="svg_66"/>
  <path d="M 158.780442 268.115509 A 6.10756 6.10756 0 0 1 152.672882 274.223069 A 6.10756 6.10756 0 0 1 146.565322 268.115509 A 6.10756 6.10756 0 0 1 152.672882 262.007949 A 6.10756 6.10756 0 0 1 158.780442 268.115509 Z" fill="#007bff" id="svg_67"/>
  <path d="m139.31187,303.54984a79.17415,79.17415 0 0 1 -10.20239,-23.73276q-0.86594,-3.51456 -1.40765,-7.0975a0.48254,0.48254 0 0 0 -0.95589,0.12839a80.26861,80.26861 0 0 0 8.11303,24.92245q1.6992,3.26855 3.69255,6.37256c0.33484,0.52222 1.09311,-0.07422 0.76038,-0.59314l-0.00002,0z" fill="#3f3d56" id="svg_68"/>
  <path d="M 132.845788 267.686768 A 6.10756 6.10756 0 0 1 126.738228 273.794328 A 6.10756 6.10756 0 0 1 120.630668 267.686768 A 6.10756 6.10756 0 0 1 126.738228 261.579207 A 6.10756 6.10756 0 0 1 132.845788 267.686768 Z" fill="#007bff" id="svg_69"/>
  <path d="m120.56209,308.95352l0,-12a4.50508,4.50508 0 0 1 4.5,-4.5l28,0a4.50508,4.50508 0 0 1 4.5,4.5l0,12a4.50508,4.50508 0 0 1 -4.5,4.5l-28,0a4.50508,4.50508 0 0 1 -4.5,-4.5z" fill="#ccc" id="svg_70"/>
  <path d="M 292.569977 305.482269 H 371.569977 A 3.5 3.5 0 0 1 375.069977 308.982269 V 308.982269 A 3.5 3.5 0 0 1 371.569977 312.482269 H 292.569977 A 3.5 3.5 0 0 1 289.069977 308.982269 V 308.982269 A 3.5 3.5 0 0 1 292.569977 305.482269 Z" fill="#ccc" id="svg_71"/>
  <path d="m424.57001,312.48227l-89,0a6.50736,6.50736 0 0 1 -6.5,-6.5l0,-49a6.50737,6.50737 0 0 1 6.5,-6.5l89,0a6.50737,6.50737 0 0 1 6.5,6.5l0,49a6.50736,6.50736 0 0 1 -6.5,6.5z" fill="#ccc" id="svg_72"/>
  <path d="M 386.069977 281.482269 A 6 6 0 0 1 380.069977 287.482269 A 6 6 0 0 1 374.069977 281.482269 A 6 6 0 0 1 380.069977 275.482269 A 6 6 0 0 1 386.069977 281.482269 Z" fill="#fff" id="svg_73"/>
  <path d="m651.07001,378.48227c0,-7.73199 -29.10156,-14 -65,-14s-65,6.26801 -65,14c0,4.95544 11.96436,9.30621 30,11.79431l0,76.70569a6.5,6.5 0 0 0 13,0l0,-75.32397c6.87207,0.53241 14.27686,0.82397 22,0.82397s15.12793,-0.29163 22,-0.82397l0,75.32397a6.5,6.5 0 0 0 13,0l0,-76.70569c18.03564,-2.4881 30,-6.83887 30,-11.79431z" fill="#ccc" id="svg_74"/>
  <path d="M 621.257324 222.339737 A 28 28 0 0 1 593.257324 250.339737 A 28 28 0 0 1 565.257324 222.339737 A 28 28 0 0 1 593.257324 194.339737 A 28 28 0 0 1 621.257324 222.339737 Z" fill="#2f2e41" id="svg_75"/>
  <path d="M 523.5770263671875 461.906005859375 L 511.3169860839844 461.906005859375 L 505.4849853515625 414.6180114746094 L 523.5789794921875 414.6180114746094 L 523.5770263671875 461.906005859375 Z" fill="#ffb8b8" id="svg_76"/>
  <path d="m502.56,458.40253l23.64386,0l0,0l0,14.88687l0,0l-38.53076,0l0,0l0,0a14.88686,14.88686 0 0 1 14.8869,-14.88687z" fill="#2f2e41" id="svg_77"/>
  <path d="M 504.4389953613281 455.0639953613281 L 492.74200439453125 451.39300537109375 L 501.3340148925781 404.52801513671875 L 518.5980224609375 409.94500732421875 L 504.4389953613281 455.0639953613281 Z" fill="#ffb8b8" id="svg_78"/>
  <path d="m715.57428,262.2962l23.64386,0l0,0l0,14.88684l0,0l-38.5307,0l0,0l0,0a14.88686,14.88686 0 0 1 14.88684,-14.88684z" transform="rotate(17.4226 2.90601 -397.128)" fill="#2f2e41" id="svg_79"/>
  <path d="m508.4278,436.1962a4.46224,4.46224 0 0 1 -1.57202,-0.28613l-9.01929,-3.38184a4.51573,4.51573 0 0 1 -2.81396,-5.18359c2.27075,-10.21002 10.00977,-44.9707 14.24731,-63.61523c5.02588,-22.11523 78.34277,-26.22461 81.46118,-26.38867l0.25635,-0.01367l8.24756,10.36423c2.98022,9.57907 2.03564,17.05075 -2.80762,22.20801c-14.13232,15.04688 -56.32739,5.71002 -61.35889,4.52832l-22.42725,58.87106a4.51293,4.51293 0 0 1 -4.21338,2.89752z" fill="#2f2e41" id="svg_80"/>
  <path d="m521.4278,443.1962a4.46224,4.46224 0 0 1 -1.57202,-0.28613l-9.01929,-3.38184a4.51573,4.51573 0 0 1 -2.81396,-5.18359c2.27075,-10.21002 10.00977,-44.9707 14.24731,-63.61523c5.02588,-22.11523 78.34277,-26.22461 81.46118,-26.38867l0.25635,-0.01367l8.24756,10.36423c2.98022,9.57907 2.03564,17.05075 -2.80762,22.20801c-14.13232,15.0459 -56.32715,5.71002 -61.35889,4.52832l-22.42725,58.87106a4.51293,4.51293 0 0 1 -4.21338,2.89752z" fill="#2f2e41" id="svg_81"/>
  <path d="m495.33301,299.17618a10.52563,10.52563 0 0 1 0.88489,1.40149l49.32025,5.19623l7.09961,-9.73398l16.0907,8.79453l-13.94446,23.62122l-60.48737,-15.42249a10.4958,10.4958 0 1 1 1.03638,-13.85699z" fill="#ffb8b8" id="svg_82"/>
  <path d="m609.94611,358.65811a4.50062,4.50062 0 0 1 -2.04956,-0.50098c-9.8623,-5.01465 -29.06641,-13.69922 -46.87451,-15.5166a4.39229,4.39229 0 0 1 -3.09546,-1.75a4.51858,4.51858 0 0 1 -0.83374,-3.51074c1.60693,-8.89551 5.29321,-31.54688 4.81836,-49.7012a24.59626,24.59626 0 0 1 18.58203,-24.46777l0,0a79.86445,79.86445 0 0 1 9.91284,-1.9541a24.79544,24.79544 0 0 1 27.55933,28.76172c-3.17578,18.81354 -6.3772,45.08987 -3.59473,63.43268a4.50694,4.50694 0 0 1 -1.8186,4.34863a4.42884,4.42884 0 0 1 -2.60596,0.8584l0,-0.00003z" fill="#007bff" id="svg_83"/>
  <path d="m562.82404,310.80655a4.49628,4.49628 0 0 1 -1.78662,-0.37299l-12.8479,-5.56152a4.50569,4.50569 0 0 1 -2.34198,-5.91702l9.93164,-22.94238a11.49973,11.49973 0 1 1 21.10718,9.13574l-9.9314,22.94241a4.51063,4.51063 0 0 1 -4.13086,2.71582l-0.00006,-0.00006z" fill="#007bff" id="svg_84"/>
  <path d="M 616.794733 228.89093 A 24.561029 24.561029 0 0 1 592.233704 253.45196 A 24.561029 24.561029 0 0 1 567.672674 228.89093 A 24.561029 24.561029 0 0 1 592.233704 204.329901 A 24.561029 24.561029 0 0 1 616.794733 228.89093 Z" fill="#ffb8b8" id="svg_85"/>
  <path d="m567.23065,216.82385a88.59059,88.59059 0 0 0 38.32617,12.62842l-4.03992,-4.84061a29.68817,29.68817 0 0 0 9.17072,1.82103c3.13025,-0.04874 6.40991,-1.254 8.18646,-3.8317a9.342,9.342 0 0 0 0.62531,-8.62976a17.694,17.694 0 0 0 -5.56635,-6.96011a33.13951,33.13951 0 0 0 -30.84448,-5.51247a19.80609,19.80609 0 0 0 -9.2124,5.90941c-2.32837,2.87239 -6.81091,5.43155 -5.61877,8.93167l-1.02673,0.4841l0,0.00002z" fill="#2f2e41" id="svg_86"/>
  <path d="m596.36353,208.09248a35.59723,46.87917 0 0 0 12.95105,-11.02919c3.13074,-1.5274 6.53827,-2.47113 9.81128,-1.60371s6.36835,3.84927 7.28143,8.07838c0.74664,3.45819 -0.02435,7.18161 -1.18304,10.43697s-2.70569,6.27405 -3.64282,9.65088a16.72603,22.02707 0 0 1 16.83032,29.53819c-3.21588,0.56784 -6.18018,2.55806 -9.32355,3.61746s-6.85339,0.98752 -9.18933,-1.97813c-2.47156,-3.1378 -2.521,-8.23947 -2.40155,-12.75777l0.5329,-20.14969c0.09064,-3.42532 0.16797,-6.96042 -0.77008,-10.15747s-3.16718,-5.99658 -5.76965,-5.96751c-1.97241,0.02208 -3.71814,1.59564 -5.29993,3.14746s-3.25604,3.20752 -5.2207,3.43834s-4.20789,-1.68393 -4.06085,-4.27432" fill="#2f2e41" id="svg_87" stroke="null"/>
  <path d="M 482.1969909667969 281.0870056152344 L 538.75 282.4219970703125 L 546.9429931640625 342.87799072265625 L 494.71600341796875 344.04998779296875 L 482.1969909667969 281.0870056152344 Z" fill="#e6e6e6" id="svg_88"/>
  <path d="m542.33301,297.17621a10.52563,10.52563 0 0 1 0.88489,1.40152l49.32025,5.19623l7.09961,-9.73401l16.0907,8.79449l-13.94446,23.62128l-60.48737,-15.42255a10.4958,10.4958 0 1 1 1.03638,-13.85699l0,0.00003z" fill="#ffb8b8" id="svg_89"/>
  <path d="m609.82404,311.80655a4.49628,4.49628 0 0 1 -1.78662,-0.37299l-12.8479,-5.56152a4.50569,4.50569 0 0 1 -2.34198,-5.91699l9.93164,-22.94241a11.49973,11.49973 0 1 1 21.10718,9.13574l-9.9314,22.94241a4.51063,4.51063 0 0 1 -4.13086,2.71582l-0.00006,-0.00006z" fill="#007bff" id="svg_90"/>
  <path d="m493.57001,311.48227l-398.00003,0a6.5,6.5 0 1 0 0,13l11.5,0l0,141.5a6.5,6.5 0 0 0 13,0l0,-129.00995l72.87109,132.07788a6.5,6.5 0 0 0 11.2583,-6.5l-76.17578,-138.06793l348.04639,0l0,0.08417l-76.12891,137.98376a6.49977,6.49977 0 1 0 11.25781,6.5l64.87109,-117.57813l0,114.51019a6.5,6.5 0 0 0 13,0l0,-138.07263l1.89111,-3.42737l2.60889,0a6.5,6.5 0 0 0 0,-13l0.00003,0z" fill="#3f3d56" id="svg_91"/>
  <path d="m739.48468,473.94858l-738.29401,0a1.19069,1.19069 0 0 1 0,-2.38135l738.29401,0a1.19068,1.19068 0 0 1 0,2.38135z" fill="#3f3d56" id="svg_92"/>
  <g id="svg_388">
   <g transform="matrix(0.288404 0 0 0.288404 0 0)" id="svg_386">
    <title>background</title>
    <path d="M 33152.734375 13591.601563 H 33954.734375 V 14193.601563 H 33152.734375 V 13591.601563 Z" id="svg_384" fill="none"/>
   </g>
   <g transform="matrix(0.288404 0 0 0.288404 0 0)" id="svg_387">
    <title>Layer 1</title>
    <path d="m33335.80859,13650.60156l-52.39844,0a19.01722,19.01722 0 0 0 -19,19l0,56.80957c-0.66797,-0.04004 -1.33984,-0.09961 -2,-0.17969a66.99888,66.99888 0 1 1 73.10156,-77.62988c0.10938,0.66016 0.20703,1.33008 0.29688,2l0,0z" fill="#f2f2f2" id="svg_383"/>
    <path d="m33954.41016,13648.60156l-671,0a21.023,21.023 0 0 0 -21,21l0,354a21.023,21.023 0 0 0 21,21l671,0a21.023,21.023 0 0 0 21,-21l0,-354a21.023,21.023 0 0 0 -21,-21zm19,375a19.01722,19.01722 0 0 1 -19,19l-671,0a19.01722,19.01722 0 0 1 -19,-19l0,-354a19.01722,19.01722 0 0 1 19,-19l671,0a19.01722,19.01722 0 0 1 19,19l0,354z" fill="#3f3d56" id="svg_382"/>
    <path d="m33921.41016,13705.97168l-605,0a1,1 0 0 1 0,-2l605,0a1,1 0 0 1 0,2z" fill="#3f3d56" id="svg_381"/>
    <path d="m33487.41016,14001.60156a1,1 0 0 1 -1,-1l0,-329a1,1 0 1 1 2,0l0,329a1.00005,1.00005 0 0 1 -1,1z" fill="#3f3d56" id="svg_380"/>
    <path d="m33638.41016,14001.60156a1,1 0 0 1 -1,-1l0,-329a1,1 0 1 1 2,0l0,329a1.00005,1.00005 0 0 1 -1,1z" fill="#3f3d56" id="svg_379"/>
    <path d="m33789.41016,14001.60156a1,1 0 0 1 -1,-1l0,-329a1,1 0 1 1 2,0l0,329a1.00005,1.00005 0 0 1 -1,1z" fill="#3f3d56" id="svg_378"/>
    <path d="m33390.32813,13809.18945l-36.54297,0a4.505,4.505 0 0 1 -4.5,-4.5l0,-43.12012a4.505,4.505 0 0 1 4.5,-4.5l36.54297,0a4.505,4.505 0 0 1 4.5,4.5l0,43.12012a4.505,4.505 0 0 1 -4.5,4.5z" fill="#007bff" id="svg_377"/>
    <path d="m33442.32813,13932.18945l-36.54297,0a4.505,4.505 0 0 1 -4.5,-4.5l0,-43.12012a4.505,4.505 0 0 1 4.5,-4.5l36.54297,0a4.505,4.505 0 0 1 4.5,4.5l0,43.12012a4.505,4.505 0 0 1 -4.5,4.5z" fill="#007bff" id="svg_376"/>
    <path d="m33560.32813,13835.18945l-36.54297,0a4.50508,4.50508 0 0 1 -4.5,-4.5l0,-43.12012a4.50508,4.50508 0 0 1 4.5,-4.5l36.54297,0a4.50508,4.50508 0 0 1 4.5,4.5l0,43.12012a4.50508,4.50508 0 0 1 -4.5,4.5z" fill="#007bff" id="svg_375"/>
    <path d="m33713.32813,13788.18945l-36.54297,0a4.50508,4.50508 0 0 1 -4.5,-4.5l0,-43.12012a4.50508,4.50508 0 0 1 4.5,-4.5l36.54297,0a4.50508,4.50508 0 0 1 4.5,4.5l0,43.12012a4.50508,4.50508 0 0 1 -4.5,4.5z" fill="#007bff" id="svg_374"/>
    <path d="m33854.32813,13788.18945l-36.54297,0a4.50508,4.50508 0 0 1 -4.5,-4.5l0,-43.12012a4.50508,4.50508 0 0 1 4.5,-4.5l36.54297,0a4.50508,4.50508 0 0 1 4.5,4.5l0,43.12012a4.50508,4.50508 0 0 1 -4.5,4.5z" fill="#007bff" id="svg_373"/>
    <path d="m33919.32813,13800.18945l-36.54297,0a4.50508,4.50508 0 0 1 -4.5,-4.5l0,-43.12012a4.50508,4.50508 0 0 1 4.5,-4.5l36.54297,0a4.50508,4.50508 0 0 1 4.5,4.5l0,43.12012a4.50508,4.50508 0 0 1 -4.5,4.5z" fill="#e6e6e6" id="svg_372"/>
    <path d="m33890.32813,13877.18945l-36.54297,0a4.50508,4.50508 0 0 1 -4.5,-4.5l0,-43.12012a4.50508,4.50508 0 0 1 4.5,-4.5l36.54297,0a4.50508,4.50508 0 0 1 4.5,4.5l0,43.12012a4.50508,4.50508 0 0 1 -4.5,4.5z" fill="#e6e6e6" id="svg_371"/>
    <path d="m33766.32813,13861.18945l-36.54297,0a4.50508,4.50508 0 0 1 -4.5,-4.5l0,-43.12012a4.50508,4.50508 0 0 1 4.5,-4.5l36.54297,0a4.50508,4.50508 0 0 1 4.5,4.5l0,43.12012a4.50508,4.50508 0 0 1 -4.5,4.5z" fill="#ff6584" id="svg_370"/>
    <path d="m33695.32813,13877.18945l-36.54297,0a4.50508,4.50508 0 0 1 -4.5,-4.5l0,-43.12012a4.50508,4.50508 0 0 1 4.5,-4.5l36.54297,0a4.50508,4.50508 0 0 1 4.5,4.5l0,43.12012a4.50508,4.50508 0 0 1 -4.5,4.5z" fill="#e6e6e6" id="svg_369"/>
    <path d="m33542.32813,13945.18848l-36.54297,0a4.50508,4.50508 0 0 1 -4.5,-4.5l0,-43.11914a4.50508,4.50508 0 0 1 4.5,-4.5l36.54297,0a4.50508,4.50508 0 0 1 4.5,4.5l0,43.12012a4.50508,4.50508 0 0 1 -4.5,4.49902z" fill="#e6e6e6" id="svg_368"/>
    <path d="m33357.32813,13888.18945l-36.54297,0a4.505,4.505 0 0 1 -4.5,-4.5l0,-43.12012a4.505,4.505 0 0 1 4.5,-4.5l36.54297,0a4.505,4.505 0 0 1 4.5,4.5l0,43.12012a4.505,4.505 0 0 1 -4.5,4.5z" fill="#ff6584" id="svg_367"/>
    <path d="m33460.32813,13809.18945l-36.54297,0a4.505,4.505 0 0 1 -4.5,-4.5l0,-43.12012a4.505,4.505 0 0 1 4.5,-4.5l36.54297,0a4.505,4.505 0 0 1 4.5,4.5l0,43.12012a4.505,4.505 0 0 1 -4.5,4.5z" fill="#e6e6e6" id="svg_366"/>
    <path d="m33430.41016,13689.60156l-57,0a4,4 0 0 1 0,-8l57,0a4,4 0 0 1 0,8z" fill="#ccc" id="svg_365"/>
    <path d="m33591.41016,13689.60156l-57,0a4,4 0 0 1 0,-8l57,0a4,4 0 0 1 0,8z" fill="#ccc" id="svg_364"/>
    <path d="m33742.41016,13689.60156l-57,0a4,4 0 0 1 0,-8l57,0a4,4 0 0 1 0,8z" fill="#ccc" id="svg_363"/>
    <path d="m33883.41016,13689.60156l-57,0a4,4 0 0 1 0,-8l57,0a4,4 0 0 1 0,8z" fill="#ccc" id="svg_362"/>
    <path d="m34115.95313,15616.70996l38.53125,0l0,0l0,14.88672l0,0l-23.64453,0a14.88686,14.88686 0 0 1 -14.88672,-14.88672l0,0l0,0z" transform="rotate(179.997 34135.2 15624.1)" fill="#2f2e41" id="svg_361"/>
    <path d="m33615.94531,14156.39844l23.64453,0l0,0l0,14.88672l0,0l-38.53125,0l0,0l0,0a14.88687,14.88687 0 0 1 14.88672,-14.88672z" fill="#2f2e41" id="svg_360"/>
    <path d="m33893.21875,14171.61133l-738.29297,0a1.19069,1.19069 0 1 1 0,-2.38184l738.29297,0a1.19069,1.19069 0 1 1 0,2.38184z" fill="#3f3d56" id="svg_359"/>
    <g id="svg_266">
     <path d="m36663.57031,14711.6582a47.70195,47.70195 0 0 1 3.94922,-15.05469q0.89063,-1.99023 1.96094,-3.89355a0.29073,0.29073 0 0 0 -0.5,-0.29297a48.36117,48.36117 0 0 0 -5.38281,14.8457q-0.40234,2.18262 -0.60938,4.39551c-0.03125,0.37207 0.54688,0.37012 0.58203,0z" fill="#e6e6e6" id="svg_358"/>
     <path d="M 93829.000338 37583.113281 A 9.4144 9.4144 0 0 1 93819.585938 37592.527681 A 9.4144 9.4144 0 0 1 93810.171537 37583.113281 A 9.4144 9.4144 0 0 1 93819.585938 37573.698881 A 9.4144 9.4144 0 0 1 93829.000338 37583.113281 Z" fill="#e6e6e6" id="svg_357" transform="matrix(0.390866 0 0 0.390866 0 0)"/>
     <path d="m36663.94922,14711.75586a30.94646,30.94646 0 0 1 2.55859,-9.7666q0.57813,-1.29102 1.27344,-2.52637a0.18861,0.18861 0 0 0 -0.32422,-0.18945a31.3742,31.3742 0 0 0 -3.49219,9.63086q-0.26172,1.41602 -0.39453,2.85156c-0.02344,0.24219 0.35547,0.24023 0.37891,0z" fill="#e6e6e6" id="svg_356"/>
     <path d="M 93820.084123 37602.863281 A 6.10756 6.10756 0 0 1 93813.976563 37608.970841 A 6.10756 6.10756 0 0 1 93807.869002 37602.863281 A 6.10756 6.10756 0 0 1 93813.976563 37596.755721 A 6.10756 6.10756 0 0 1 93820.084123 37602.863281 Z" fill="#e6e6e6" id="svg_355" transform="matrix(0.390866 0 0 0.390866 0 0)"/>
     <path d="m36663.47266,14711.53125a30.9465,30.9465 0 0 1 -3.98828,-9.27734q-0.33984,-1.37305 -0.55078,-2.77344a0.18861,0.18861 0 0 0 -0.375,0.0498a31.37427,31.37427 0 0 0 3.17188,9.74121q0.66406,1.27832 1.44531,2.49121c0.12891,0.2041 0.42578,-0.0293 0.29688,-0.23145z" fill="#e6e6e6" id="svg_354"/>
     <path d="M 93794.146623 37602.433594 A 6.10756 6.10756 0 0 1 93788.039063 37608.541154 A 6.10756 6.10756 0 0 1 93781.931502 37602.433594 A 6.10756 6.10756 0 0 1 93788.039063 37596.326034 A 6.10756 6.10756 0 0 1 93794.146623 37602.433594 Z" fill="#e6e6e6" id="svg_353" transform="matrix(0.390866 0 0 0.390866 0 0)"/>
     <path d="m36656.14453,14713.64258l0,-4.69043a1.76088,1.76088 0 0 1 1.75781,-1.75879l10.94531,0a1.76088,1.76088 0 0 1 1.75781,1.75879l0,4.69043a1.76088,1.76088 0 0 1 -1.75781,1.75879l-10.94531,0a1.76088,1.76088 0 0 1 -1.75781,-1.75879z" fill="#f2f2f2" id="svg_352"/>
     <path d="m36668.45703,14683.74121l-4.69141,0a1.76088,1.76088 0 0 1 -1.75781,-1.75879l0,-19.15234a1.76088,1.76088 0 0 1 1.75781,-1.75879l4.69141,0a1.76088,1.76088 0 0 1 1.75781,1.75879l0,19.15234a1.76088,1.76088 0 0 1 -1.75781,1.75879z" fill="#f2f2f2" id="svg_351"/>
     <path d="M 93797.367188 37518.699219 H 93817.367188 V 37522.699219 H 93797.367188 V 37518.699219 Z" fill="#ccc" id="svg_350" transform="matrix(0.390866 0 0 0.390866 0 0)"/>
     <path d="M 93797.367188 37549.699219 H 93817.367188 V 37553.699219 H 93797.367188 V 37549.699219 Z" fill="#ccc" id="svg_349" transform="matrix(0.390866 0 0 0.390866 0 0)"/>
     <path d="m36680.17969,14683.74121l-4.6875,0a1.76088,1.76088 0 0 1 -1.76172,-1.75879l0,-19.15234a1.76088,1.76088 0 0 1 1.76172,-1.75879l4.6875,0a1.76088,1.76088 0 0 1 1.76172,1.75879l0,19.15234a1.76088,1.76088 0 0 1 -1.76172,1.75879z" fill="#f2f2f2" id="svg_348"/>
     <path d="M 93827.367188 37518.699219 H 93847.367188 V 37522.699219 H 93827.367188 V 37518.699219 Z" fill="#ccc" id="svg_347" transform="matrix(0.390866 0 0 0.390866 0 0)"/>
     <path d="M 93827.367188 37549.699219 H 93847.367188 V 37553.699219 H 93827.367188 V 37549.699219 Z" fill="#ccc" id="svg_346" transform="matrix(0.390866 0 0 0.390866 0 0)"/>
     <path d="m36691.90625,14683.74121l-4.6875,0a1.76088,1.76088 0 0 1 -1.76172,-1.75879l0,-19.15234a1.76088,1.76088 0 0 1 1.76172,-1.75879l4.6875,0a1.76088,1.76088 0 0 1 1.76172,1.75879l0,19.15234a1.76088,1.76088 0 0 1 -1.76172,1.75879z" fill="#f2f2f2" id="svg_345"/>
     <path d="M 93857.367188 37518.699219 H 93877.367188 V 37522.699219 H 93857.367188 V 37518.699219 Z" fill="#ccc" id="svg_344" transform="matrix(0.390866 0 0 0.390866 0 0)"/>
     <path d="M 93857.367188 37549.699219 H 93877.367188 V 37553.699219 H 93857.367188 V 37549.699219 Z" fill="#ccc" id="svg_343" transform="matrix(0.390866 0 0 0.390866 0 0)"/>
     <path d="m36698.16016,14715.40137l-4.6875,0a1.76088,1.76088 0 0 1 -1.76172,-1.75879l0,-19.15234a1.76088,1.76088 0 0 1 1.76172,-1.75879l4.6875,0a1.76088,1.76088 0 0 1 1.76172,1.75879l0,19.15234a1.76088,1.76088 0 0 1 -1.76172,1.75879z" fill="#f2f2f2" id="svg_342"/>
     <path d="M 93873.367188 37599.699219 H 93893.367188 V 37603.699219 H 93873.367188 V 37599.699219 Z" fill="#ccc" id="svg_341" transform="matrix(0.390866 0 0 0.390866 0 0)"/>
     <path d="M 93873.367188 37630.699219 H 93893.367188 V 37634.699219 H 93873.367188 V 37630.699219 Z" fill="#ccc" id="svg_340" transform="matrix(0.390866 0 0 0.390866 0 0)"/>
     <path d="m36709.88672,14715.40137l-4.69141,0a1.76088,1.76088 0 0 1 -1.75781,-1.75879l0,-19.15234a1.76088,1.76088 0 0 1 1.75781,-1.75879l4.69141,0a1.76088,1.76088 0 0 1 1.75781,1.75879l0,19.15234a1.76088,1.76088 0 0 1 -1.75781,1.75879z" fill="#f2f2f2" id="svg_339"/>
     <path d="M 93903.367188 37599.699219 H 93923.367188 V 37603.699219 H 93903.367188 V 37599.699219 Z" fill="#ccc" id="svg_338" transform="matrix(0.390866 0 0 0.390866 0 0)"/>
     <path d="M 93903.367188 37630.699219 H 93923.367188 V 37634.699219 H 93903.367188 V 37630.699219 Z" fill="#ccc" id="svg_337" transform="matrix(0.390866 0 0 0.390866 0 0)"/>
     <path d="m36721.61328,14715.40137l-4.69141,0a1.76088,1.76088 0 0 1 -1.75781,-1.75879l0,-19.15234a1.76088,1.76088 0 0 1 1.75781,-1.75879l4.69141,0a1.76088,1.76088 0 0 1 1.75781,1.75879l0,19.15234a1.76088,1.76088 0 0 1 -1.75781,1.75879z" fill="#f2f2f2" id="svg_336"/>
     <path d="M 93933.367188 37599.699219 H 93953.367188 V 37603.699219 H 93933.367188 V 37599.699219 Z" fill="#ccc" id="svg_335" transform="matrix(0.390866 0 0 0.390866 0 0)"/>
     <path d="M 93933.367188 37630.699219 H 93953.367188 V 37634.699219 H 93933.367188 V 37630.699219 Z" fill="#ccc" id="svg_334" transform="matrix(0.390866 0 0 0.390866 0 0)"/>
     <path d="m36667.28125,14747.06152l-4.6875,0a1.76088,1.76088 0 0 1 -1.76172,-1.75879l0,-19.15234a1.76088,1.76088 0 0 1 1.76172,-1.75879l4.6875,0a1.76088,1.76088 0 0 1 1.76172,1.75879l0,19.15234a1.76088,1.76088 0 0 1 -1.76172,1.75879z" fill="#f2f2f2" id="svg_333"/>
     <path d="M 93794.367188 37680.699219 H 93814.367188 V 37684.699219 H 93794.367188 V 37680.699219 Z" fill="#ccc" id="svg_332" transform="matrix(0.390866 0 0 0.390866 0 0)"/>
     <path d="M 93794.367188 37711.699219 H 93814.367188 V 37715.699219 H 93794.367188 V 37711.699219 Z" fill="#ccc" id="svg_331" transform="matrix(0.390866 0 0 0.390866 0 0)"/>
     <path d="m36679.00781,14747.06152l-4.69141,0a1.76088,1.76088 0 0 1 -1.75781,-1.75879l0,-19.15234a1.76088,1.76088 0 0 1 1.75781,-1.75879l4.69141,0a1.76088,1.76088 0 0 1 1.76172,1.75879l0,19.15234a1.76088,1.76088 0 0 1 -1.76172,1.75879z" fill="#f2f2f2" id="svg_330"/>
     <path d="M 93824.367188 37680.699219 H 93844.367188 V 37684.699219 H 93824.367188 V 37680.699219 Z" fill="#ccc" id="svg_329" transform="matrix(0.390866 0 0 0.390866 0 0)"/>
     <path d="M 93824.367188 37711.699219 H 93844.367188 V 37715.699219 H 93824.367188 V 37711.699219 Z" fill="#ccc" id="svg_328" transform="matrix(0.390866 0 0 0.390866 0 0)"/>
     <path d="m36690.73438,14747.06152l-4.69141,0a1.76088,1.76088 0 0 1 -1.75781,-1.75879l0,-19.15234a1.76088,1.76088 0 0 1 1.75781,-1.75879l4.69141,0a1.76088,1.76088 0 0 1 1.75781,1.75879l0,19.15234a1.76088,1.76088 0 0 1 -1.75781,1.75879z" fill="#f2f2f2" id="svg_327"/>
     <path d="M 93854.367188 37680.699219 H 93874.367188 V 37684.699219 H 93854.367188 V 37680.699219 Z" fill="#ccc" id="svg_326" transform="matrix(0.390866 0 0 0.390866 0 0)"/>
     <path d="M 93854.367188 37711.699219 H 93874.367188 V 37715.699219 H 93854.367188 V 37711.699219 Z" fill="#ccc" id="svg_325" transform="matrix(0.390866 0 0 0.390866 0 0)"/>
     <path d="m36703.63281,14683.74121l-4.69141,0a1.76088,1.76088 0 0 1 -1.75781,-1.75879l0,-19.15234a1.76088,1.76088 0 0 1 1.75781,-1.75879l4.69141,0a1.76088,1.76088 0 0 1 1.75781,1.75879l0,19.15234a1.76088,1.76088 0 0 1 -1.75781,1.75879z" fill="#f2f2f2" id="svg_324"/>
     <path d="M 93887.367188 37518.699219 H 93907.367188 V 37522.699219 H 93887.367188 V 37518.699219 Z" fill="#ccc" id="svg_323" transform="matrix(0.390866 0 0 0.390866 0 0)"/>
     <path d="M 93887.367188 37549.699219 H 93907.367188 V 37553.699219 H 93887.367188 V 37549.699219 Z" fill="#ccc" id="svg_322" transform="matrix(0.390866 0 0 0.390866 0 0)"/>
     <path d="m36715.35938,14683.74121l-4.69141,0a1.76088,1.76088 0 0 1 -1.75781,-1.75879l0,-19.15234a1.76088,1.76088 0 0 1 1.75781,-1.75879l4.69141,0a1.76088,1.76088 0 0 1 1.75781,1.75879l0,19.15234a1.76088,1.76088 0 0 1 -1.75781,1.75879z" fill="#f2f2f2" id="svg_321"/>
     <path d="M 93917.367188 37518.699219 H 93937.367188 V 37522.699219 H 93917.367188 V 37518.699219 Z" fill="#ccc" id="svg_320" transform="matrix(0.390866 0 0 0.390866 0 0)"/>
     <path d="M 93917.367188 37549.699219 H 93937.367188 V 37553.699219 H 93917.367188 V 37549.699219 Z" fill="#ccc" id="svg_319" transform="matrix(0.390866 0 0 0.390866 0 0)"/>
     <path d="m36727.08594,14683.74121l-4.69141,0a1.76088,1.76088 0 0 1 -1.75781,-1.75879l0,-19.15234a1.76088,1.76088 0 0 1 1.75781,-1.75879l4.69141,0a1.76088,1.76088 0 0 1 1.75781,1.75879l0,19.15234a1.76088,1.76088 0 0 1 -1.75781,1.75879z" fill="#f2f2f2" id="svg_318"/>
     <path d="M 93947.367188 37518.699219 H 93967.367188 V 37522.699219 H 93947.367188 V 37518.699219 Z" fill="#ccc" id="svg_317" transform="matrix(0.390866 0 0 0.390866 0 0)"/>
     <path d="M 93947.367188 37549.699219 H 93967.367188 V 37553.699219 H 93947.367188 V 37549.699219 Z" fill="#ccc" id="svg_316" transform="matrix(0.390866 0 0 0.390866 0 0)"/>
     <path d="m36738.8125,14683.74121l-4.69141,0a1.76088,1.76088 0 0 1 -1.75781,-1.75879l0,-19.15234a1.76088,1.76088 0 0 1 1.75781,-1.75879l4.69141,0a1.76088,1.76088 0 0 1 1.75781,1.75879l0,19.15234a1.76088,1.76088 0 0 1 -1.75781,1.75879z" fill="#f2f2f2" id="svg_315"/>
     <path d="M 93977.367188 37518.699219 H 93997.367188 V 37522.699219 H 93977.367188 V 37518.699219 Z" fill="#ccc" id="svg_314" transform="matrix(0.390866 0 0 0.390866 0 0)"/>
     <path d="M 93977.367188 37549.699219 H 93997.367188 V 37553.699219 H 93977.367188 V 37549.699219 Z" fill="#ccc" id="svg_313" transform="matrix(0.390866 0 0 0.390866 0 0)"/>
     <path d="m36756.37891,14684.32813l-111.39844,0a0.39087,0.39087 0 0 1 0,-0.78223l111.39844,0a0.39087,0.39087 0 0 1 0,0.78223z" fill="#ccc" id="svg_312"/>
     <path d="m36756.37891,14715.98828l-111.39844,0a0.39087,0.39087 0 0 1 0,-0.78223l111.39844,0a0.39087,0.39087 0 0 1 0,0.78223z" fill="#ccc" id="svg_311"/>
     <path d="m36756.37891,14747.64844l-111.39844,0a0.39087,0.39087 0 0 1 0,-0.78223l111.39844,0a0.39087,0.39087 0 0 1 0,0.78223z" fill="#ccc" id="svg_310"/>
     <path d="m36749.78125,14809.00781c0,-3.02246 -11.375,-5.47266 -25.40625,-5.47266s-25.40625,2.4502 -25.40625,5.47266c0,1.93652 4.67578,3.63672 11.72656,4.60938l0,29.98145a2.54063,2.54063 0 0 0 5.07813,0l0,-29.44141c2.6875,0.20801 5.58203,0.32227 8.60156,0.32227s5.91016,-0.11426 8.59766,-0.32227l0,29.44141a2.54063,2.54063 0 0 0 5.08203,0l0,-29.98145c7.05078,-0.97266 11.72656,-2.67285 11.72656,-4.60938z" fill="#ccc" id="svg_309"/>
     <path d="M 36744.890625 14841.2236328125 L 36749.68359375 14841.2236328125 L 36751.96484375 14822.740234375 L 36744.890625 14822.740234375 L 36744.890625 14841.2236328125 Z" fill="#a0616a" id="svg_308"/>
     <path d="m95138.05469,39322.32031l38.53125,0l0,0l0,14.88672l0,0l-23.64844,0a14.88686,14.88686 0 0 1 -14.88281,-14.88672l0,0l0,0z" transform="rotate(179.997 -11037.5 -44734.2) matrix(0.390866 0 0 0.390866 1098.96 1392.13)" fill="#2f2e41" id="svg_307"/>
     <path d="M 36752.37109375 14838.5498046875 L 36756.9453125 14837.1142578125 L 36753.5859375 14818.796875 L 36746.83984375 14820.9140625 L 36752.37109375 14838.5498046875 Z" fill="#a0616a" id="svg_306"/>
     <path d="m95369.19531,39080.5l38.53125,0l0,0l0,14.88672l0,0l-23.64063,0a14.88686,14.88686 0 0 1 -14.89063,-14.88672l0,0l0,0z" transform="rotate(162.577 -34405.6 13759.1) matrix(0.390866 0 0 0.390866 1159.15 1289.74)" fill="#2f2e41" id="svg_305"/>
     <path d="m36749.16406,14830.04199l-8.76563,-23.01074c-1.96484,0.46191 -18.45703,4.11133 -23.98047,-1.76953c-1.89453,-2.01563 -2.26172,-4.93652 -1.09766,-8.68066l3.22266,-4.05078l0.10156,0.00488c1.21875,0.06445 29.875,1.6709 31.83984,10.31445c1.65625,7.28809 4.67969,20.875 5.57031,24.86523a1.76505,1.76505 0 0 1 -1.10156,2.02637l-3.52734,1.32129a1.74415,1.74415 0 0 1 -0.61328,0.1123a1.76395,1.76395 0 0 1 -1.64844,-1.13281z" fill="#2f2e41" id="svg_304"/>
     <path d="m36744.08594,14832.77832l-8.76563,-23.01074c-1.96875,0.46191 -18.46094,4.11133 -23.98438,-1.76953c-1.89453,-2.0166 -2.26172,-4.93652 -1.09766,-8.68066l3.22266,-4.05078l0.10156,0.00488c1.21875,0.06445 29.875,1.6709 31.83984,10.31445c1.65625,7.28809 4.67969,20.87402 5.57031,24.86523a1.76505,1.76505 0 0 1 -1.10156,2.02637l-3.52344,1.32129a1.74415,1.74415 0 0 1 -0.61719,0.1123a1.76395,1.76395 0 0 1 -1.64453,-1.13281z" fill="#2f2e41" id="svg_303"/>
     <path d="m36755.92969,14777.61816a4.11448,4.11448 0 0 0 -0.34375,0.54785l-19.27734,2.03125l-2.77734,-3.80469l-6.28906,3.4375l5.45313,9.23242l23.64063,-6.02832a4.10245,4.10245 0 1 0 -0.40625,-5.41602l0,0z" fill="#a0616a" id="svg_302"/>
     <path d="m36710.11328,14800.53223a1.76161,1.76161 0 0 1 -0.71094,-1.69922c1.08984,-7.16992 -0.16406,-17.44043 -1.40234,-24.79395a9.69169,9.69169 0 0 1 10.76953,-11.24219a31.21635,31.21635 0 0 1 3.875,0.76367l0,0a9.61384,9.61384 0 0 1 7.26172,9.56348c-0.18359,7.09668 1.25781,15.9502 1.88672,19.42676a1.76617,1.76617 0 0 1 -0.32813,1.37207a1.7168,1.7168 0 0 1 -1.21094,0.68457c-6.95703,0.70996 -14.46484,4.10449 -18.32031,6.06445a1.75914,1.75914 0 0 1 -0.80078,0.19629a1.73108,1.73108 0 0 1 -1.01953,-0.33594z" fill="#007bff" id="svg_301"/>
     <path d="m36728.90234,14782.04004a1.7475,1.7475 0 0 1 -0.96484,-0.9375l-3.88281,-8.9668a4.49485,4.49485 0 1 1 8.25,-3.57129l3.88281,8.96777a1.76113,1.76113 0 0 1 -0.91797,2.3125l-5.01953,2.17383a1.74661,1.74661 0 0 1 -1.34766,0.02148l0,0z" fill="#007bff" id="svg_300"/>
     <path d="m36737.5625,14776.83691a4.11448,4.11448 0 0 0 -0.34766,0.54785l-19.27734,2.03027l-2.77344,-3.80469l-6.29297,3.4375l5.45313,9.2334l23.64063,-6.02832a4.10245,4.10245 0 1 0 -0.40234,-5.41602l0,0z" fill="#a0616a" id="svg_299"/>
     <path d="m36710.53125,14782.43066a1.7475,1.7475 0 0 1 -0.96484,-0.93652l-3.88281,-8.96777a4.49485,4.49485 0 1 1 8.25,-3.57129l3.88281,8.96777a1.76113,1.76113 0 0 1 -0.91406,2.3125l-5.02344,2.17383a1.74661,1.74661 0 0 1 -1.34766,0.02148l0,0z" fill="#007bff" id="svg_298"/>
     <path d="M 93964.826654 37737.089844 A 24.561029 24.561029 0 0 1 93940.265625 37761.650873 A 24.561029 24.561029 0 0 1 93915.704596 37737.089844 A 24.561029 24.561029 0 0 1 93940.265625 37712.528814 A 24.561029 24.561029 0 0 1 93964.826654 37737.089844 Z" fill="#a0616a" id="svg_297" transform="matrix(0.390866 0 0 0.390866 0 0)"/>
     <path d="m36711.19141,14756.73535a0.83442,0.83442 0 0 1 0.72656,-1.10254a1.92716,1.92716 0 0 1 1.35938,0.6709a5.4073,5.4073 0 0 0 1.19922,1.03027c0.46484,0.23438 1.09375,0.20117 1.35938,-0.24512c0.25,-0.41895 0.07813,-0.98047 -0.07422,-1.46777a14.42573,14.42573 0 0 1 -0.63672,-3.81836c-0.04297,-1.44629 0.16406,-2.95605 0.96484,-4.08398c1.03125,-1.45605 2.87891,-2.00879 4.62891,-1.96875s3.46875,0.58008 5.19922,0.92188c0.59766,0.11719 1.30078,0.17773 1.70313,-0.28613c0.42578,-0.49219 0.26953,-1.29004 0.08594,-1.95508c-0.46875,-1.72656 -0.96484,-3.51172 -2.05859,-4.90625a7.38673,7.38673 0 0 0 -4.71094,-2.6543a11.31107,11.31107 0 0 0 -5.26172,0.59766a14.10878,14.10878 0 0 0 -6.91406,4.81445a11.42732,11.42732 0 0 0 -2.17969,8.44238a10.42329,10.42329 0 0 0 3.86328,6.58789l0.74609,-0.57715z" fill="#2f2e41" id="svg_296"/>
     <path d="m36674.53516,14779.84668a47.70195,47.70195 0 0 1 3.94922,-15.05566q0.89063,-1.99023 1.96094,-3.89355a0.29073,0.29073 0 0 0 -0.5,-0.29297a48.36117,48.36117 0 0 0 -5.38281,14.84668q-0.40234,2.18164 -0.60547,4.39551c-0.03516,0.37207 0.54688,0.36914 0.57813,0z" fill="#3f3d56" id="svg_295"/>
     <path d="M 93857.055025 37757.566406 A 9.4144 9.4144 0 0 1 93847.640625 37766.980806 A 9.4144 9.4144 0 0 1 93838.226225 37757.566406 A 9.4144 9.4144 0 0 1 93847.640625 37748.152006 A 9.4144 9.4144 0 0 1 93857.055025 37757.566406 Z" fill="#007bff" id="svg_294" transform="matrix(0.390866 0 0 0.390866 0 0)"/>
     <path d="m36674.91406,14779.94434a30.94646,30.94646 0 0 1 2.5625,-9.76758q0.57813,-1.29102 1.26953,-2.52539a0.18861,0.18861 0 0 0 -0.32422,-0.19043a31.3741,31.3741 0 0 0 -3.49219,9.63184q-0.26172,1.41504 -0.39453,2.85156c-0.01953,0.24121 0.35547,0.23926 0.37891,0z" fill="#3f3d56" id="svg_293"/>
     <path d="M 93848.13881 37777.316406 A 6.10756 6.10756 0 0 1 93842.03125 37783.423966 A 6.10756 6.10756 0 0 1 93835.92369 37777.316406 A 6.10756 6.10756 0 0 1 93842.03125 37771.208846 A 6.10756 6.10756 0 0 1 93848.13881 37777.316406 Z" fill="#007bff" id="svg_292" transform="matrix(0.390866 0 0 0.390866 0 0)"/>
     <path d="m36674.4375,14779.71875a30.94648,30.94648 0 0 1 -3.98828,-9.27637q-0.33984,-1.37402 -0.55078,-2.77441a0.18861,0.18861 0 0 0 -0.37109,0.05078a31.37427,31.37427 0 0 0 3.16797,9.74121q0.66406,1.27734 1.44531,2.49023c0.12891,0.2041 0.42578,-0.02832 0.29688,-0.23145z" fill="#3f3d56" id="svg_291"/>
     <path d="M 93822.20131 37776.886719 A 6.10756 6.10756 0 0 1 93816.09375 37782.994279 A 6.10756 6.10756 0 0 1 93809.98619 37776.886719 A 6.10756 6.10756 0 0 1 93816.09375 37770.779159 A 6.10756 6.10756 0 0 1 93822.20131 37776.886719 Z" fill="#007bff" id="svg_290" transform="matrix(0.390866 0 0 0.390866 0 0)"/>
     <path d="m36667.10938,14781.83105l0,-4.69043a1.76088,1.76088 0 0 1 1.75781,-1.75879l10.94531,0a1.76088,1.76088 0 0 1 1.75781,1.75879l0,4.69043a1.76088,1.76088 0 0 1 -1.75781,1.75879l-10.94531,0a1.76088,1.76088 0 0 1 -1.75781,-1.75879z" fill="#ccc" id="svg_289"/>
     <path d="M 93981.929688 37814.683594 H 94060.929688 A 3.5 3.5 0 0 1 94064.429688 37818.183594 V 37818.183594 A 3.5 3.5 0 0 1 94060.929688 37821.683594 H 93981.929688 A 3.5 3.5 0 0 1 93978.429688 37818.183594 V 37818.183594 A 3.5 3.5 0 0 1 93981.929688 37814.683594 Z" fill="#ccc" id="svg_288" transform="matrix(0.390866 0 0 0.390866 0 0)"/>
     <path d="m36785.93359,14783.20996l-34.78516,0a2.54351,2.54351 0 0 1 -2.53906,-2.54004l0,-19.15234a2.54351,2.54351 0 0 1 2.53906,-2.54102l34.78516,0a2.54351,2.54351 0 0 1 2.54297,2.54102l0,19.15234a2.54351,2.54351 0 0 1 -2.54297,2.54004z" fill="#ccc" id="svg_287"/>
     <path d="M 94075.429688 37790.683594 A 6 6 0 0 1 94069.429688 37796.683594 A 6 6 0 0 1 94063.429688 37790.683594 A 6 6 0 0 1 94069.429688 37784.683594 A 6 6 0 0 1 94075.429688 37790.683594 Z" fill="#fff" id="svg_286" transform="matrix(0.390866 0 0 0.390866 0 0)"/>
     <path d="m36874.46484,14809.00781c0,-3.02246 -11.37109,-5.47266 -25.40625,-5.47266s-25.40625,2.4502 -25.40625,5.47266c0,1.93652 4.67969,3.63672 11.72656,4.60938l0,29.98145a2.54063,2.54063 0 0 0 5.08203,0l0,-29.44141c2.6875,0.20801 5.58203,0.32227 8.59766,0.32227s5.91406,-0.11426 8.60156,-0.32227l0,29.44141a2.54063,2.54063 0 0 0 5.08203,0l0,-29.98145c7.04688,-0.97266 11.72266,-2.67285 11.72266,-4.60938z" fill="#ccc" id="svg_285"/>
     <path d="M 94310.617188 37731.539063 A 28 28 0 0 1 94282.617188 37759.539063 A 28 28 0 0 1 94254.617188 37731.539063 A 28 28 0 0 1 94282.617188 37703.539063 A 28 28 0 0 1 94310.617188 37731.539063 Z" fill="#2f2e41" id="svg_284" transform="matrix(0.390866 0 0 0.390866 0 0)"/>
     <path d="M 36824.6328125 14841.615234375 L 36819.84375 14841.615234375 L 36817.5625 14823.1318359375 L 36824.6328125 14823.1318359375 L 36824.6328125 14841.615234375 Z" fill="#ffb8b8" id="svg_283"/>
     <path d="m36816.41797,14840.24512l9.24219,0l0,0l0,5.81934l0,0l-15.05859,0l0,0l0,0a5.81877,5.81877 0 0 1 5.81641,-5.81934z" fill="#2f2e41" id="svg_282"/>
     <path d="M 36817.15234375 14838.9404296875 L 36812.58203125 14837.505859375 L 36815.94140625 14819.1875 L 36822.6875 14821.3046875 L 36817.15234375 14838.9404296875 Z" fill="#ffb8b8" id="svg_281"/>
     <path d="m94404.92969,37771.49609l23.64844,0l0,0l0,14.88672l0,0l-38.53125,0l0,0l0,0a14.88686,14.88686 0 0 1 14.88281,-14.88672z" transform="rotate(17.4226 36973.8 14756.4) matrix(0.390866 0 0 0.390866 72.5115 -10.568)" fill="#2f2e41" id="svg_280"/>
     <path d="m36818.71094,14831.56543a1.74414,1.74414 0 0 1 -0.61328,-0.11133l-3.52344,-1.32227a1.76505,1.76505 0 0 1 -1.10156,-2.02539c0.88672,-3.99121 3.91406,-17.57813 5.57031,-24.86523c1.96484,-8.64453 30.62109,-10.25098 31.83984,-10.31445l0.09766,-0.00586l3.22656,4.05078c1.16406,3.74414 0.79297,6.66504 -1.09766,8.68066c-5.52344,5.88184 -22.01563,2.23145 -23.98438,1.77051l-8.76563,23.00977a1.76395,1.76395 0 0 1 -1.64844,1.13281z" fill="#2f2e41" id="svg_279"/>
     <path d="m36823.79297,14834.30176a1.74414,1.74414 0 0 1 -0.61328,-0.1123l-3.52734,-1.32129a1.76505,1.76505 0 0 1 -1.09766,-2.02637c0.88672,-3.99023 3.91016,-17.57715 5.56641,-24.86523c1.96484,-8.64355 30.625,-10.25 31.84375,-10.31445l0.09766,-0.00488l3.22266,4.05078c1.16797,3.74414 0.79688,6.66504 -1.09375,8.68066c-5.52734,5.88086 -22.01953,2.23145 -23.98438,1.76953l-8.76563,23.01074a1.76395,1.76395 0 0 1 -1.64844,1.13281z" fill="#2f2e41" id="svg_278"/>
     <path d="m36813.59375,14778.00879a4.11411,4.11411 0 0 1 0.34766,0.54785l19.27734,2.03125l2.77344,-3.80469l6.28906,3.4375l-5.44922,9.2334l-23.64453,-6.02832a4.10245,4.10245 0 1 1 0.40625,-5.41699z" fill="#ffb8b8" id="svg_277"/>
     <path d="m36858.39063,14801.25879a1.75914,1.75914 0 0 1 -0.80078,-0.19629c-3.85156,-1.95996 -11.35938,-5.35449 -18.32031,-6.06445a1.7168,1.7168 0 0 1 -1.21094,-0.68457a1.76616,1.76616 0 0 1 -0.32422,-1.37207c0.62891,-3.47656 2.07031,-12.33008 1.88281,-19.42578a9.61384,9.61384 0 0 1 7.26172,-9.56445l0,0a31.2163,31.2163 0 0 1 3.875,-0.76367a9.6917,9.6917 0 0 1 10.77344,11.24219c-1.24219,7.35352 -2.49219,17.62402 -1.40625,24.79395a1.76161,1.76161 0 0 1 -0.71094,1.69922a1.73108,1.73108 0 0 1 -1.01953,0.33594z" fill="#007bff" id="svg_276"/>
     <path d="m36839.97266,14782.55469a1.75744,1.75744 0 0 1 -0.69531,-0.14551l-5.02344,-2.17383a1.76112,1.76112 0 0 1 -0.91406,-2.3125l3.87891,-8.96777a4.49485,4.49485 0 1 1 8.25391,3.57129l-3.88281,8.96777a1.76305,1.76305 0 0 1 -1.61719,1.06055l0,0z" fill="#007bff" id="svg_275"/>
     <path d="M 94306.154779 37738.089844 A 24.561029 24.561029 0 0 1 94281.59375 37762.650873 A 24.561029 24.561029 0 0 1 94257.032721 37738.089844 A 24.561029 24.561029 0 0 1 94281.59375 37713.528814 A 24.561029 24.561029 0 0 1 94306.154779 37738.089844 Z" fill="#ffb8b8" id="svg_274" transform="matrix(0.390866 0 0 0.390866 0 0)"/>
     <path d="m36841.69531,14745.82031a34.62705,34.62705 0 0 0 14.98047,4.93652l-1.57813,-1.89258a11.6041,11.6041 0 0 0 3.58594,0.71191c1.22266,-0.01855 2.50391,-0.49023 3.19922,-1.49707a3.65147,3.65147 0 0 0 0.24219,-3.37402a6.91598,6.91598 0 0 0 -2.17578,-2.71973a12.95311,12.95311 0 0 0 -12.05469,-2.15527a7.74153,7.74153 0 0 0 -3.60156,2.31055c-0.91016,1.12207 -2.66016,2.12207 -2.19531,3.49023l-0.40234,0.18945z" fill="#2f2e41" id="svg_273"/>
     <path d="m36853.08203,14738.07324a29.50441,29.50441 0 0 0 -10.73438,-6.94141c-2.59375,-0.96094 -5.41797,-1.55566 -8.12891,-1.00977s-5.28125,2.42285 -6.03516,5.08496c-0.62109,2.17578 0.01953,4.51953 0.98047,6.56836s2.24219,3.94922 3.01953,6.07422a13.86321,13.86321 0 0 1 -13.94922,18.58984c2.66406,0.35742 5.12109,1.61035 7.72656,2.27734s5.67969,0.62109 7.61719,-1.24512c2.04688,-1.97461 2.08594,-5.18555 1.98828,-8.0293l-0.44141,-12.68164c-0.07422,-2.15625 -0.14063,-4.38086 0.63672,-6.39258s2.62891,-3.77441 4.78516,-3.75586c1.63281,0.01367 3.08203,1.00391 4.39063,1.98047s2.69922,2.01855 4.32813,2.16406s3.48828,-1.05957 3.36719,-2.69043" fill="#2f2e41" id="svg_272"/>
     <path d="M 36808.4609375 14770.9384765625 L 36830.5625 14771.4609375 L 36833.765625 14795.0908203125 L 36813.3515625 14795.548828125 L 36808.4609375 14770.9384765625 Z" fill="#e6e6e6" id="svg_271"/>
     <path d="m36831.96484,14777.22754a4.11411,4.11411 0 0 1 0.34766,0.54785l19.27734,2.03125l2.77344,-3.80469l6.28906,3.4375l-5.44922,9.23242l-23.64453,-6.02832a4.10245,4.10245 0 1 1 0.40625,-5.41602l0,0z" fill="#ffb8b8" id="svg_270"/>
     <path d="m36858.34375,14782.94629a1.75744,1.75744 0 0 1 -0.69531,-0.14648l-5.02344,-2.17383a1.76112,1.76112 0 0 1 -0.91406,-2.3125l3.87891,-8.96777a4.49485,4.49485 0 1 1 8.25,3.57129l-3.87891,8.96777a1.76305,1.76305 0 0 1 -1.61719,1.06152l0,0z" fill="#007bff" id="svg_269"/>
     <path d="m36812.90625,14782.81934l-155.56641,0a2.54063,2.54063 0 1 0 0,5.08105l4.49609,0l0,55.30762a2.54063,2.54063 0 0 0 5.08203,0l0,-50.42578l28.48047,51.625a2.54063,2.54063 0 0 0 4.40234,-2.54102l-29.77344,-53.96582l136.03906,0l0,0.0332l-29.75781,53.93262a2.54054,2.54054 0 1 0 4.39844,2.54102l25.35938,-45.95703l0,44.75781a2.54063,2.54063 0 0 0 5.07813,0l0,-53.96777l0.74219,-1.33984l1.01953,0a2.54063,2.54063 0 0 0 0,-5.08105z" fill="#3f3d56" id="svg_268"/>
     <path d="m36909.02344,14846.32227l-288.57422,0a0.4654,0.4654 0 0 1 0,-0.93164l288.57422,0a0.4654,0.4654 0 0 1 0,0.93164z" fill="#3f3d56" id="svg_267"/>
    </g>
   </g>
  </g>
  <title stroke="null">Layer 1</title><g stroke="null" id="svg_416" transform="matrix(0.5868239998817444, 0, 0, 0.3487649857997894, -450.13900756835926, -50.26380157470703)">
    
    <path stroke="null" d="m1354.58337,255.75433l-400.21472,1.29688a12.53903,12.6809 0 0 0 -12.4873,12.70761l0.64087,213.52988a12.53903,12.6809 0 0 0 12.56329,12.62646l400.21478,-1.29691a12.53903,12.6809 0 0 0 12.4873,-12.70755l-0.64087,-213.52994a12.53903,12.6809 0 0 0 -12.56335,-12.62645l0,0.00002zm12.01135,226.16022a11.34269,11.47103 0 0 1 -11.2981,11.49731l-400.21472,1.29691a11.34269,11.47103 0 0 1 -11.36682,-11.42392l-0.64087,-213.52991a11.34269,11.47103 0 0 1 11.29803,-11.49738l400.21478,-1.29688a11.34269,11.47103 0 0 1 11.36682,11.42395l0.64087,213.52988l0,0.00003z" fill="#3f3d56" id="svg_438" transform="matrix(1.4585151254468276, 0, 0, 1.4585151254468276, -452.6664224706096, -171.87694672154123)"/>
    <path stroke="null" d="m1337.22595,291.68408l-362.88531,1.1759a0.59981,0.6253 0 0 1 -0.00372,-1.25061l362.88525,-1.1759a0.59981,0.6253 0 0 1 0.00378,1.25061z" fill="#3f3d56" id="svg_437" transform="matrix(1.4718823828596062, 0, 0, 1.4718823828596062, -469.67605049204076, -175.29569980936884)"/>
    <path stroke="null" d="m1077.46399,477.3848a0.59981,0.6253 0 0 1 -0.60168,-0.62338l-0.61743,-205.72311a0.59981,0.6253 0 1 1 1.19958,-0.00388l0.61743,205.72314a0.59984,0.62533 0 0 1 -0.5979,0.62726l0,-0.00003z" fill="#3f3d56" id="svg_436" transform="matrix(1.4718823828596062, 0, 0, 1.4718823828596062, -469.67605049204076, -175.29569980936884)"/>
    <path stroke="null" d="m1168.03503,477.09125a0.59981,0.6253 0 0 1 -0.60168,-0.62335l-0.61743,-205.72308a0.59981,0.6253 0 1 1 1.19958,-0.00388l0.61743,205.72311a0.59984,0.62533 0 0 1 -0.5979,0.62726l0,-0.00006z" fill="#3f3d56" id="svg_435" transform="matrix(1.4718823828596062, 0, 0, 1.4718823828596062, -469.67605049204076, -175.29569980936884)"/>
    <path stroke="null" d="m1258.60608,476.79779a0.59981,0.6253 0 0 1 -0.60168,-0.62335l-0.61743,-205.72311a0.59981,0.6253 0 1 1 1.19971,-0.00388l0.61743,205.72308a0.59984,0.62533 0 0 1 -0.59802,0.62726z" fill="#3f3d56" id="svg_434" transform="matrix(1.4718823828596062, 0, 0, 1.4718823828596062, -469.67605049204076, -175.29569980936884)"/>
    <path stroke="null" d="m1018.87054,357.25821l-21.91797,0.07101a2.70214,2.81697 0 0 1 -2.70758,-2.80508l-0.08093,-26.96265a2.70214,2.81697 0 0 1 2.69073,-2.8226l21.91797,-0.07101a2.70214,2.81697 0 0 1 2.70764,2.80511l0.08093,26.96262a2.70214,2.81697 0 0 1 -2.6908,2.82257l0,0.00003z" fill="#007bff" id="svg_433" transform="matrix(1.4718823828596062, 0, 0, 1.4718823828596062, -469.67605049204076, -175.29569980936884)"/>
    <path stroke="null" d="m1050.29175,434.06879l-21.91699,0.07101a2.70214,2.81697 0 0 1 -2.70764,-2.80505l-0.08093,-26.96262a2.70214,2.81697 0 0 1 2.69067,-2.8226l21.91711,-0.07101a2.70214,2.81697 0 0 1 2.70752,2.80511l0.08093,26.96262a2.70214,2.81697 0 0 1 -2.69067,2.82254z" fill="#007bff" id="svg_432" transform="matrix(1.4718823828596062, 0, 0, 1.4718823828596062, -469.67605049204076, -175.29569980936884)"/>
    <path stroke="null" d="m1120.88721,373.18549l-21.91699,0.07104a2.70218,2.81702 0 0 1 -2.70764,-2.80508l-0.08093,-26.96262a2.70218,2.81702 0 0 1 2.69067,-2.82257l21.91699,-0.07104a2.70218,2.81702 0 0 1 2.70764,2.80511l0.08081,26.96265a2.70218,2.81702 0 0 1 -2.69055,2.82251z" fill="#007bff" id="svg_431" transform="matrix(1.4718823828596062, 0, 0, 1.4718823828596062, -469.67605049204076, -175.29569980936884)"/>
    <path stroke="null" d="m1212.56958,343.49915l-21.91699,0.07101a2.70218,2.81702 0 0 1 -2.70752,-2.80511l-0.08093,-26.96259a2.70218,2.81702 0 0 1 2.69067,-2.8226l21.91699,-0.07101a2.70218,2.81702 0 0 1 2.70752,2.80508l0.08105,26.96265a2.70218,2.81702 0 0 1 -2.6908,2.82257z" fill="#007bff" id="svg_430" transform="matrix(1.4718823828596062, 0, 0, 1.4718823828596062, -469.67605049204076, -175.29569980936884)"/>
    <path stroke="null" d="m1297.14258,343.22507l-21.91699,0.07101a2.70218,2.81702 0 0 1 -2.70752,-2.80511l-0.08093,-26.96259a2.70218,2.81702 0 0 1 2.69067,-2.8226l21.91699,-0.07098a2.70218,2.81702 0 0 1 2.70752,2.80511l0.08093,26.96262a2.70218,2.81702 0 0 1 -2.69067,2.82254z" fill="#007bff" id="svg_429" transform="matrix(1.4718823828596062, 0, 0, 1.4718823828596062, -469.67605049204076, -175.29569980936884)"/>
    <path stroke="null" d="m1336.15259,350.60233l-21.91687,0.07101a2.70218,2.81702 0 0 1 -2.70764,-2.80511l-0.08081,-26.96259a2.70218,2.81702 0 0 1 2.69067,-2.82257l21.91687,-0.07104a2.70218,2.81702 0 0 1 2.70764,2.80511l0.08093,26.96259a2.70218,2.81702 0 0 1 -2.6908,2.8226z" fill="#e6e6e6" id="svg_428" transform="matrix(1.4718823828596062, 0, 0, 1.4718823828596062, -469.67605049204076, -175.29569980936884)"/>
    <path stroke="null" d="m1318.90271,398.80664l-21.91699,0.07101a2.70218,2.81702 0 0 1 -2.70752,-2.80508l-0.08093,-26.96259a2.70218,2.81702 0 0 1 2.69067,-2.82257l21.91699,-0.07104a2.70218,2.81702 0 0 1 2.70752,2.80508l0.08105,26.96262a2.70218,2.81702 0 0 1 -2.6908,2.82257z" fill="#e6e6e6" id="svg_427" transform="matrix(1.4718823828596062, 0, 0, 1.4718823828596062, -469.67605049204076, -175.29569980936884)"/>
    <path stroke="null" d="m1244.49646,389.04291l-21.91699,0.07101a2.70218,2.81702 0 0 1 -2.70752,-2.80508l-0.08093,-26.96265a2.70218,2.81702 0 0 1 2.69067,-2.82257l21.91699,-0.07104a2.70218,2.81702 0 0 1 2.70752,2.80511l0.08093,26.96262a2.70218,2.81702 0 0 1 -2.69067,2.82257l0,0.00003z" fill="#ff6584" id="svg_426" transform="matrix(1.4718823828596062, 0, 0, 1.4718823828596062, -469.67605049204076, -175.29569980936884)"/>
    <path stroke="null" d="m1201.94006,399.18564l-21.91699,0.07101a2.70218,2.81702 0 0 1 -2.70752,-2.80505l-0.08093,-26.96265a2.70218,2.81702 0 0 1 2.69067,-2.82257l21.91699,-0.07101a2.70218,2.81702 0 0 1 2.70752,2.80508l0.08105,26.96262a2.70218,2.81702 0 0 1 -2.6908,2.82257l0,0z" fill="#e6e6e6" id="svg_425" transform="matrix(1.4718823828596062, 0, 0, 1.4718823828596062, -469.67605049204076, -175.29569980936884)"/>
    <path stroke="null" d="m1110.297,442.0033l-21.91699,0.07104a2.70218,2.81702 0 0 1 -2.70752,-2.80511l-0.08093,-26.96259a2.70218,2.81702 0 0 1 2.69067,-2.82257l21.91699,-0.07104a2.70218,2.81702 0 0 1 2.70752,2.80511l0.08093,26.96259a2.70218,2.81702 0 0 1 -2.69067,2.82257z" fill="#e6e6e6" id="svg_424" transform="matrix(1.4718823828596062, 0, 0, 1.4718823828596062, -469.67605049204076, -175.29569980936884)"/>
    <path stroke="null" d="m999.22418,406.72089l-21.91699,0.07101a2.70214,2.81697 0 0 1 -2.70758,-2.80508l-0.08093,-26.96262a2.70214,2.81697 0 0 1 2.69067,-2.82257l21.91699,-0.07101a2.70214,2.81697 0 0 1 2.70764,2.80505l0.08093,26.96268a2.70214,2.81697 0 0 1 -2.69073,2.82254z" fill="#ff6584" id="svg_423" transform="matrix(1.4718823828596062, 0, 0, 1.4718823828596062, -469.67605049204076, -175.29569980936884)"/>
    <path stroke="null" d="m1060.85742,357.12216l-21.91699,0.07101a2.70214,2.81697 0 0 1 -2.70752,-2.80511l-0.08093,-26.96262a2.70214,2.81697 0 0 1 2.69067,-2.8226l21.91699,-0.07098a2.70214,2.81697 0 0 1 2.70752,2.80508l0.08093,26.96262a2.70214,2.81697 0 0 1 -2.69067,2.82257l0,0.00003z" fill="#e6e6e6" id="svg_422" transform="matrix(1.4718823828596062, 0, 0, 1.4718823828596062, -469.67605049204076, -175.29569980936884)"/>
    <path stroke="null" d="m1042.68933,282.40247l-34.18994,0.11081a2.39923,2.50119 0 0 1 -0.01501,-5.00241l34.18994,-0.11078a2.39923,2.50119 0 0 1 0.01501,5.00238l0,0z" fill="#ccc" id="svg_421" transform="matrix(1.4718823828596062, 0, 0, 1.4718823828596062, -469.67605049204076, -175.29569980936884)"/>
    <path stroke="null" d="m1139.25854,282.08957l-34.18909,0.11078a2.39923,2.50119 0 0 1 -0.01501,-5.00238l34.18896,-0.11078a2.39923,2.50119 0 0 1 0.01514,5.00238z" fill="#ccc" id="svg_420" transform="matrix(1.4718823828596062, 0, 0, 1.4718823828596062, -469.67605049204076, -175.29569980936884)"/>
    <path stroke="null" d="m1229.82959,281.79605l-34.18909,0.11081a2.39923,2.50119 0 0 1 -0.01501,-5.00238l34.18909,-0.11081a2.39923,2.50119 0 0 1 0.01501,5.00238z" fill="#ccc" id="svg_419" transform="matrix(1.4718823828596062, 0, 0, 1.4718823828596062, -469.67605049204076, -175.29569980936884)"/>
    <path stroke="null" d="m1314.40259,281.52203l-34.18909,0.11078a2.39923,2.50119 0 0 1 -0.01501,-5.00238l34.18909,-0.11081a2.39923,2.50119 0 0 1 0.01501,5.00238l0,0.00003z" fill="#ccc" id="svg_418" transform="matrix(1.4718823828596062, 0, 0, 1.4718823828596062, -469.67605049204076, -175.29569980936884)"/>
    <path stroke="null" d="m1480.6394,1495.32043l-23.11108,0.07605l0,0l-0.02844,-9.30872l0,0l14.18188,-0.04663a8.92926,9.30873 0 0 1 8.95764,9.2793l0,0l0,0z" fill="#2f2e41" id="svg_417"/>
   <path d="M 934.9426879882812 558.921142578125 L 1008.6415405273438 647.7598266601562" style="fill: rgb(63, 61, 86); fill-opacity: 1; stroke: rgb(0, 0, 0); stroke-opacity: 1; stroke-width: 0; paint-order: fill;" transform="matrix(1.4585151254468276, 0, 0, 1.4585151254468276, -452.6664224706096, -171.87694672154123)"/></g>
 </g></g></svg>