<svg id="Layer_5" data-name="Layer 5" xmlns="http://www.w3.org/2000/svg" viewBox="0 0 1920 1080"><defs><style>.cls-1{fill:#ff9100;}.cls-2{fill:#007bff;}.cls-3{fill:#005bc9;}.cls-4{fill:#33a8ff;}</style></defs><polygon class="cls-1" points="623.01 538.61 655.01 646.61 720.01 646.61 688.01 538.61 623.01 538.61"/><polygon class="cls-1" points="703.01 484.61 751.01 646.61 816.01 646.61 768.01 484.61 703.01 484.61"/><polygon class="cls-2" points="815.01 430.61 783.51 536.93 816.01 646.61 880.01 430.61 815.01 430.61"/><polygon class="cls-2" points="703.01 484.61 687.01 538.61 688.01 538.61 720.01 646.61 768.01 484.61 703.01 484.61"/><polygon class="cls-3" points="768.01 484.61 703.01 484.61 735.51 594.3 768.01 484.61"/><polygon class="cls-4" points="751.01 646.61 816.01 646.61 783.51 536.93 751.01 646.61"/><polygon class="cls-4" points="687.01 538.61 655.01 646.61 720.01 646.61 688.01 538.61 687.01 538.61"/><path class="cls-2" d="M847.9,592.2a56.86,56.86,0,0,1,57-56.77c31.11,0,56.17,25.86,56.17,56.57,0,31.52-25.06,57.39-56.78,57.39C872.75,649.39,847.9,623.32,847.9,592.2Zm88.9.41c0-17.58-13.94-32.94-31.92-32.94-17.78,0-32.74,14.35-32.74,32.33,0,17.78,13.74,33.14,32.13,33.14A32.51,32.51,0,0,0,936.8,592.61Z"/><polygon class="cls-2" points="1290.16 646.56 1296.99 623.52 1277.66 623.52 1277.66 561.69 1296.05 561.69 1296.05 538.66 1277.66 538.66 1277.66 499.29 1253.01 499.29 1253.01 538.66 1243.13 538.66 1236.31 561.69 1253.01 561.69 1253.01 646.56 1290.16 646.56"/><polygon class="cls-2" points="1230.99 623.52 1217.69 623.52 1217.69 538.66 1186.13 538.66 1179.31 561.69 1193.04 561.69 1193.04 623.52 1178.89 623.52 1178.89 646.56 1224.16 646.56 1230.99 623.52"/><polygon class="cls-2" points="1108.51 646.56 1160.16 646.56 1166.99 623.52 1150.34 623.52 1118.82 590.38 1148.52 561.69 1161.65 561.69 1161.65 538.66 1108.51 538.66 1108.51 559.27 1119.62 559.27 1091.94 586.95 1091.94 499.29 1060.06 499.29 1053.23 522.32 1067.29 522.32 1067.29 623.52 1053.15 623.52 1053.15 646.56 1101.64 646.56 1101.64 623.52 1091.94 623.52 1091.94 595.24 1117.6 623.52 1108.51 623.52 1108.51 646.56"/><path class="cls-2" d="M1024,623.52h-13.14V596.24c0-10.1,1.21-18.79,9.3-25.66,6.06-5.45,13.33-7.47,21.21-7.88V537.45c-13.94.6-26.06,6.87-32.33,19.6V538.66h-29.9l-6.82,23H986.2v61.83H972.26v23h44.9Z"/><path class="cls-2" d="M1233.9,515.22,1202.18,528l-32.89-12.59c-.27-11.1-.8-22.53-.8-33.57l31.73-12.37h.54l32.25,12Zm-1.7-1.31-.78-29.87-30.09,11.74.78,29.86Zm-2.51-31.17-29.2-11.38-29.21,11.39,29.21,11.38h0C1210.21,490.31,1220,486.54,1229.69,482.74Z"/></svg>