<svg xmlns="http://www.w3.org/2000/svg" version="1.0" width="554" height="169.11731845956564" preserveAspectRatio="xMidYMid meet" style=""><rect id="backgroundrect" width="100%" height="100%" x="0" y="0" fill="none" stroke="none" className="" style=""/>


<g className="currentLayer" style=""><title>Layer 1</title><g transform="translate(0,168) scale(0.10000000149011612,-0.10000000149011612) " fill="#007bff" stroke="none" id="svg_1" className="selected" fill-opacity="1">
<path d="M554.1177074617658,1588.3970936809703 c-47.83942001106962,-11.8199008568332 -47.83942001106962,-13.001890942516521 -30.44326727977157,-66.19144479826593 l14.134374094179659,-46.097613341649485 l-264.20406960658903,-690.282210039059 c-145.6927791246211,-380.60080759002904 -265.29132915229513,-695.0101703817922 -265.29132915229513,-700.9201208102089 c0,-15.365871113883163 128.29662639332307,-10.637910771149881 138.0819623046782,4.72796034273328 c4.34903818282451,8.273930599783242 23.91971000553481,57.917514198482685 42.40312228253898,109.92507796854876 l33.70504591688996,94.5592068546656 l267.4658482437074,177.29851285249802 c146.78003867032723,98.10517711171558 280.512962792181,185.57244345228125 297.90911552347893,197.39234430911446 l30.44326727977157,18.91184137093312 l85.8935041107841,-243.48995765076396 c47.83942001106962,-134.7468697678985 97.85335911355149,-273.03970979284696 111.98773320773114,-308.4994123633465 l25.006969551240935,-63.827464626899285 l98.94061865925762,5.9099504284166 c61.973794105249276,4.72796034273328 102.20239729637599,11.8199008568332 107.63869502490664,21.275821542299763 c4.34903818282451,8.273930599783242 -10.872595457061276,67.37343488394924 -34.79230546259608,134.7468697678985 c-151.12907685315176,418.42449033189536 -206.57931368416425,576.8111618134602 -203.31753504704588,579.1751419848268 c2.174519091412255,2.3639801713666406 122.86032866479242,81.5573159121491 266.3785886980013,176.1165227668147 l263.1168100608829,171.3885624240814 l6.523557274236766,-35.4597025704996 c3.261778637118383,-20.093831456616442 6.523557274236766,-82.7393059978324 6.523557274236766,-140.65682019631512 c0,-79.19333574078246 4.34903818282451,-107.56109779718213 17.39615273129804,-122.9269689110653 c9.785335911355148,-10.637910771149881 20.657931368416424,-16.547861199566483 22.83245045982868,-13.001890942516521 c6.523557274236766,5.9099504284166 122.86032866479242,483.433945044478 119.59855002767405,486.9799153015279 c-4.34903818282451,3.5459702570499605 -407.72232963979786,146.5667706247317 -414.2458869140346,146.5667706247317 c-3.261778637118383,0 -6.523557274236766,-10.637910771149881 -6.523557274236766,-22.457811627983084 c0,-15.365871113883163 33.70504591688996,-50.82557368438277 97.85335911355149,-104.01512754013217 c53.27571773960025,-43.73363317028285 97.85335911355149,-83.92129608351573 97.85335911355149,-87.4672663405657 c0,-7.091940514099921 -525.1463605760597,-258.85582876464713 -541.4552537616515,-258.85582876464713 c-11.959855002767405,0 -8.69807636564902,-7.091940514099921 -127.20936684761693,325.04727356291306 c-46.75216046536349,130.01890942516522 -89.15528274790246,243.48995765076396 -95.67884002213924,251.76388825054718 c-11.959855002767405,15.365871113883163 -109.81321411631889,17.7298512852498 -168.52522958444976,2.3639801713666406 zm111.98773320773114,-470.43205410196146 c40.22860319112672,-112.28905813991543 69.58461092519217,-208.03025508026434 66.32283228807378,-211.57622533731433 c-11.959855002767405,-13.001890942516521 -346.83579508025474,-169.0245822527148 -352.2720928087853,-164.29662190998152 c-2.174519091412255,3.5459702570499605 41.31586273683285,138.29284002494848 97.85335911355149,301.40747184924663 c55.45023683101251,161.93264173861488 104.37691638778826,291.9515511637801 108.72595457061277,287.2235908210468 c4.34903818282451,-4.72796034273328 40.22860319112672,-100.46915728308221 79.36994683654731,-212.75821542299764 z" id="svg_2" fill="#007bff" fill-opacity="1"/>
<path d="M5203.239524901168,1106.145138722176 l-95.67884002213924,-41.3696529989162 l0,-79.19333574078246 c0,-146.5667706247317 0,-145.3847805390484 113.07499275343727,-192.6643839663812 l98.94061865925762,-40.187662913232884 l54.362977285306386,22.457811627983084 c30.44326727977157,13.001890942516521 76.10816819942895,33.09572239913297 102.20239729637599,46.097613341649485 l46.75216046536349,22.457811627983084 l-7.610816819942893,108.74308788286545 c-4.34903818282451,60.28149436984933 -10.872595457061276,113.47104822559874 -15.221633639885786,117.0170184826487 c-7.610816819942893,8.273930599783242 -190.27042049857235,82.7393059978324 -197.88123731851525,80.37532582646577 c-2.174519091412255,0 -46.75216046536349,-20.093831456616442 -98.94061865925762,-43.73363317028285 zm252.2442146038216,-31.913732313449643 l36.96682455400834,-14.183881028199842 l-90.2425422936086,-37.82368274186624 l-90.2425422936086,-37.82368274186624 l-80.45720638225345,31.913732313449643 c-44.57764137395123,17.7298512852498 -83.71898501937183,35.4597025704996 -85.8935041107841,40.187662913232884 c-2.174519091412255,4.72796034273328 32.61778637118383,24.821791799349725 79.36994683654731,43.73363317028285 l83.71898501937183,36.641692656182926 l54.362977285306386,-23.6398017136664 c30.44326727977157,-13.001890942516521 71.75913001660443,-30.731742227766325 92.41706138502084,-39.00567282754957 zm48.926679556775746,-125.29094908243194 c4.34903818282451,-52.007563770066085 6.523557274236766,-95.74119694034894 4.34903818282451,-98.10517711171558 c-8.69807636564902,-7.091940514099921 -178.31056549580492,-78.01134565509913 -185.92138231574782,-78.01134565509913 c-5.436297728530638,0 -8.69807636564902,44.91562325596617 -8.69807636564902,98.10517711171558 l0,99.2871671973989 l84.80624456507796,36.641692656182926 c45.66490091965736,20.093831456616442 86.98076365649021,36.641692656182926 90.2425422936086,36.641692656182926 c4.34903818282451,1.18199008568332 10.872595457061276,-41.3696529989162 15.221633639885786,-94.5592068546656 z" id="svg_3" fill="#007bff" fill-opacity="1"/>
<path d="M3761.5333672948423,764.5500039596961 c-18.48341227700417,-3.5459702570499605 -22.83245045982868,-10.637910771149881 -18.48341227700417,-28.367762056399684 c4.34903818282451,-15.365871113883163 -33.70504591688996,-128.83691933948188 -107.63869502490664,-322.68329339154644 c-63.0610536509554,-165.4786119956648 -115.24951184484954,-303.77145202061325 -115.24951184484954,-307.3174222776632 c0,-3.5459702570499605 11.959855002767405,-7.091940514099921 27.181488642653193,-7.091940514099921 c21.745190914122553,0 32.61778637118383,10.637910771149881 52.18845819389413,54.371543941432726 c21.745190914122553,49.64358359869945 34.79230546259608,61.46348445553265 148.95455776173947,128.83691933948188 c68.49735137948603,41.3696529989162 127.20936684761693,73.28338531236585 131.55840503044146,70.9194051409992 c3.261778637118383,-3.5459702570499605 25.006969551240935,-61.46348445553265 47.83942001106962,-130.01890942516522 c40.22860319112672,-121.74497882538198 41.31586273683285,-124.10895899674863 75.02090865372281,-124.10895899674863 c68.49735137948603,0 69.58461092519217,-1.18199008568332 -46.75216046536349,322.68329339154644 c-59.799275013837025,166.66060208134815 -114.1622522991434,313.2273727060799 -120.68580957338017,327.41125373427974 c-10.872595457061276,23.6398017136664 -23.91971000553481,26.003781885033042 -73.93364910801668,15.365871113883163 zm50.01393910248187,-221.03214602278086 c19.570671822710295,-53.18955385574941 34.79230546259608,-104.01512754013217 34.79230546259608,-109.92507796854876 c0,-11.8199008568332 -139.16922185038433,-74.46537539804916 -163.08893185591916,-74.46537539804916 c-5.436297728530638,0 10.872595457061276,63.827464626899285 35.879565008302215,141.8388102819984 c25.006969551240935,78.01134565509913 48.926679556775746,141.8388102819984 52.18845819389413,141.8388102819984 c3.261778637118383,0 21.745190914122553,-44.91562325596617 40.22860319112672,-99.2871671973989 z" id="svg_4" fill="#007bff" fill-opacity="1"/>
<path d="M1457.630389943558,738.546222074663 c-73.93364910801668,-29.549752142083005 -111.98773320773114,-60.28149436984933 -147.86729821603336,-115.83502839696537 c-59.799275013837025,-95.74119694034894 -66.32283228807378,-243.48995765076396 -15.221633639885786,-354.59702570499604 c70.6718704708983,-151.29473096746497 231.58628323540518,-209.21224516594768 418.5949250968592,-151.29473096746497 c72.84638956231055,22.457811627983084 81.54446592795958,28.367762056399684 68.49735137948603,50.82557368438277 c-6.523557274236766,11.8199008568332 -15.221633639885786,11.8199008568332 -40.22860319112672,1.18199008568332 c-17.39615273129804,-7.091940514099921 -68.49735137948603,-14.183881028199842 -113.07499275343727,-14.183881028199842 c-95.67884002213924,-1.18199008568332 -152.2163363988579,24.821791799349725 -204.40479459275198,92.19522668329897 c-41.31586273683285,55.553534027116044 -56.537496376718636,113.47104822559874 -56.537496376718636,213.94020550868095 c0,100.46915728308221 26.094229096947064,166.66060208134815 82.6317254736657,212.75821542299764 c36.96682455400834,31.913732313449643 47.83942001106962,34.277712484816284 130.47114548473533,34.277712484816284 c80.45720638225345,0 92.41706138502084,-3.5459702570499605 118.51129048196792,-29.549752142083005 c16.308893185591916,-16.547861199566483 33.70504591688996,-41.3696529989162 39.14134364542059,-55.553534027116044 c5.436297728530638,-15.365871113883163 15.221633639885786,-27.185771970716363 21.745190914122553,-27.185771970716363 c13.047114548473532,0 9.785335911355148,134.7468697678985 -4.34903818282451,148.93075079609832 c-3.261778637118383,3.5459702570499605 -59.799275013837025,9.45592068546656 -123.94758821049855,13.001890942516521 c-97.85335911355149,3.5459702570499605 -127.20936684761693,0 -173.96152731298042,-18.91184137093312 z" id="svg_5" fill="#007bff" fill-opacity="1"/>
<path d="M2057.7976591733404,750.3661229314963 c-89.15528274790246,-24.821791799349725 -175.04878685868655,-100.46915728308221 -205.49205413845812,-178.48050293818133 c-71.75913001660443,-190.30040379501452 10.872595457061276,-399.5126489609622 183.74686322433558,-460.9761334164949 c93.50432093072698,-33.09572239913297 315.305268254777,0 315.305268254777,47.2796034273328 c0,20.093831456616442 -6.523557274236766,20.093831456616442 -91.32980183931473,1.18199008568332 c-184.8341227700417,-41.3696529989162 -314.2180087090709,70.9194051409992 -324.00334462042605,280.1316503069469 c-4.34903818282451,81.5573159121491 -2.174519091412255,98.10517711171558 26.094229096947064,156.02269131019827 c38.05408409971447,80.37532582646577 96.76609956784536,118.19900856833202 184.8341227700417,118.19900856833202 c80.45720638225345,0 129.38388593902917,-24.821791799349725 152.2163363988579,-75.64736548373249 c9.785335911355148,-23.6398017136664 21.745190914122553,-42.551643084599526 27.181488642653193,-42.551643084599526 c14.134374094179659,0 9.785335911355148,139.47483011063179 -4.34903818282451,148.93075079609832 c-18.48341227700417,13.001890942516521 -225.0627259611684,17.7298512852498 -264.20406960658903,5.9099504284166 z" id="svg_6" fill="#007bff" fill-opacity="1"/>
<path d="M2450.2983551732523,750.3661229314963 c-41.31586273683285,-7.091940514099921 -69.58461092519217,-36.641692656182926 -35.879565008302215,-36.641692656182926 c9.785335911355148,0 25.006969551240935,-8.273930599783242 33.70504591688996,-18.91184137093312 c15.221633639885786,-15.365871113883163 17.39615273129804,-55.553534027116044 17.39615273129804,-254.12786842191383 c0,-261.21980893601375 5.436297728530638,-290.7695610780968 66.32283228807378,-323.86528347722975 c57.62475592242477,-33.09572239913297 172.8742677672743,-23.6398017136664 251.1569550581155,18.91184137093312 c50.01393910248187,28.367762056399684 52.18845819389413,28.367762056399684 52.18845819389413,-1.18199008568332 c0,-29.549752142083005 22.83245045982868,-40.187662913232884 59.799275013837025,-30.731742227766325 l27.181488642653193,7.091940514099921 l0,319.13732313449646 l0,319.13732313449646 l-43.490381828245106,0 l-43.490381828245106,0 l0,-270.6757296214803 l0,-270.6757296214803 l-45.66490091965736,-20.093831456616442 c-55.45023683101251,-24.821791799349725 -139.16922185038433,-28.367762056399684 -175.04878685868655,-7.091940514099921 c-53.27571773960025,30.731742227766325 -56.537496376718636,49.64358359869945 -59.799275013837025,323.86528347722975 l-3.261778637118383,256.49184859328045 l-29.356007734065447,-1.18199008568332 c-16.308893185591916,-1.18199008568332 -48.926679556775746,-5.9099504284166 -71.75913001660443,-9.45592068546656 z" id="svg_7" fill="#007bff" fill-opacity="1"/>
<path d="M3070.036296225745,751.5481130171796 c-53.27571773960025,-10.637910771149881 -61.973794105249276,-31.913732313449643 -17.39615273129804,-41.3696529989162 l32.61778637118383,-7.091940514099921 l0,-294.31553133514666 l0,-294.31553133514666 l57.62475592242477,-8.273930599783242 c82.6317254736657,-10.637910771149881 140.2564813960905,-8.273930599783242 203.31753504704588,5.9099504284166 c136.99470275897207,31.913732313449643 195.70671822710298,185.57244345228125 108.72595457061277,281.31364039263025 c-18.48341227700417,18.91184137093312 -46.75216046536349,37.82368274186624 -65.23557274236767,42.551643084599526 l-32.61778637118383,7.091940514099921 l46.75216046536349,39.00567282754957 c63.0610536509554,52.007563770066085 83.71898501937183,118.19900856833202 54.362977285306386,180.84448310954798 c-32.61778637118383,73.28338531236585 -75.02090865372281,92.19522668329897 -220.7136877783439,94.5592068546656 c-68.49735137948603,0 -144.60551957891496,-2.3639801713666406 -167.43797003874366,-5.9099504284166 zm243.54613823817257,-55.553534027116044 c40.22860319112672,-22.457811627983084 54.362977285306386,-50.82557368438277 54.362977285306386,-106.37910771149882 c0,-23.6398017136664 -5.436297728530638,-53.18955385574941 -10.872595457061276,-66.19144479826593 c-17.39615273129804,-33.09572239913297 -68.49735137948603,-57.917514198482685 -125.03484775620468,-57.917514198482685 l-48.926679556775746,0 l0,124.10895899674863 l0,124.10895899674863 l48.926679556775746,0 c28.268748188359318,0 64.14831319666153,-8.273930599783242 81.54446592795958,-17.7298512852498 zm23.91971000553481,-310.86339253471317 c59.799275013837025,-37.82368274186624 70.6718704708983,-133.56487968221515 21.745190914122553,-192.6643839663812 c-28.268748188359318,-34.277712484816284 -36.96682455400834,-37.82368274186624 -101.11513775066987,-39.00567282754957 l-69.58461092519217,-1.18199008568332 l-3.261778637118383,134.7468697678985 l-3.261778637118383,133.56487968221515 l63.0610536509554,-8.273930599783242 c34.79230546259608,-4.72796034273328 76.10816819942895,-16.547861199566483 92.41706138502084,-27.185771970716363 z" id="svg_8" fill="#007bff" fill-opacity="1"/>
<path d="M4026.8246964471377,675.9007475334472 c-8.69807636564902,-92.19522668329897 7.610816819942893,-114.65303831128206 32.61778637118383,-46.097613341649485 c20.657931368416424,57.917514198482685 45.66490091965736,72.10139522668253 123.94758821049855,72.10139522668253 l54.362977285306386,0 l2.174519091412255,-297.86150159219665 c3.261778637118383,-278.94966022126357 4.34903818282451,-299.04349167787996 22.83245045982868,-302.58946193492994 c10.872595457061276,-2.3639801713666406 31.5305268254777,-1.18199008568332 46.75216046536349,2.3639801713666406 l26.094229096947064,7.091940514099921 l0,296.67951150651334 l0,296.67951150651334 l76.10816819942895,-4.72796034273328 c81.54446592795958,-4.72796034273328 101.11513775066987,-18.91184137093312 113.07499275343727,-82.7393059978324 c3.261778637118383,-18.91184137093312 10.872595457061276,-33.09572239913297 17.39615273129804,-33.09572239913297 c7.610816819942893,0 10.872595457061276,28.367762056399684 8.69807636564902,80.37532582646577 l-3.261778637118383,79.19333574078246 l-256.59325278664613,3.5459702570499605 l-256.59325278664613,2.3639801713666406 l-7.610816819942893,-73.28338531236585 z" id="svg_9" fill="#007bff" fill-opacity="1"/>
<path d="M4667.220568868047,740.9102022460297 c-60.88653455954314,-8.273930599783242 -81.54446592795958,-15.365871113883163 -81.54446592795958,-30.731742227766325 c0,-8.273930599783242 10.872595457061276,-15.365871113883163 23.91971000553481,-16.547861199566483 c11.959855002767405,-1.18199008568332 27.181488642653193,-9.45592068546656 31.5305268254777,-17.7298512852498 c5.436297728530638,-8.273930599783242 9.785335911355148,-139.47483011063179 9.785335911355148,-290.7695610780968 l0,-274.2216998785303 l181.57234413292332,2.3639801713666406 l181.57234413292332,3.5459702570499605 l6.523557274236766,29.549752142083005 c20.657931368416424,81.5573159121491 22.83245045982868,118.19900856833202 7.610816819942893,118.19900856833202 c-7.610816819942893,0 -22.83245045982868,-18.91184137093312 -32.61778637118383,-41.3696529989162 c-22.83245045982868,-53.18955385574941 -53.27571773960025,-65.00945471258261 -159.8271532188008,-65.00945471258261 c-67.41009183377992,0 -85.8935041107841,3.5459702570499605 -91.32980183931473,18.91184137093312 c-3.261778637118383,10.637910771149881 -6.523557274236766,66.19144479826593 -6.523557274236766,124.10895899674863 l0,105.1971176258155 l108.72595457061277,0 l108.72595457061277,0 l0,30.731742227766325 l0,30.731742227766325 l-105.46417593349439,-3.5459702570499605 l-106.5514354792005,-4.72796034273328 l0,118.19900856833202 l0,118.19900856833202 l90.2425422936086,3.5459702570499605 c82.6317254736657,3.5459702570499605 91.32980183931473,1.18199008568332 116.33677139055565,-26.003781885033042 c15.221633639885786,-16.547861199566483 27.181488642653193,-40.187662913232884 27.181488642653193,-54.371543941432726 c0,-13.001890942516521 7.610816819942893,-23.6398017136664 16.308893185591916,-23.6398017136664 c11.959855002767405,0 16.308893185591916,13.001890942516521 16.308893185591916,50.82557368438277 c0,107.56109779718213 6.523557274236766,102.83313745444886 -162.00167231021302,101.65114736876554 c-81.54446592795958,-1.18199008568332 -162.00167231021302,-4.72796034273328 -180.4850845872172,-7.091940514099921 z" id="svg_10" fill="#007bff" fill-opacity="1"/>
</g></g></svg>