<?xml version="1.0" encoding="utf-8"?>
<svg id="master-artboard" viewBox="0 0 1400 980" version="1.1" xmlns="http://www.w3.org/2000/svg" x="0px" y="0px" style="enable-background:new 0 0 1400 980;" width="1400px" height="980px"><path id="b3ac2088-de9b-4f7f-bc99-0ed9705c1a9d" data-name="Path 22" d="M747.327,253.4445h-4.092v-112.1a64.883,64.883,0,0,0-64.883-64.883H440.845a64.883,64.883,0,0,0-64.883,64.883v615a64.883,64.883,0,0,0,64.883,64.883H678.352a64.883,64.883,0,0,0,64.882-64.883v-423.105h4.092Z" transform="matrix(1.3117790222167969, 0, 0, 1.3117790222167969, -199.0674743652344, -100.30057525634764)" fill="#e6e6e6"/><path id="b2715b96-3117-487c-acc0-20904544b5b7" data-name="Path 23" d="M680.97,93.3355h-31a23.02,23.02,0,0,1-21.316,31.714H492.589a23.02,23.02,0,0,1-21.314-31.714H442.319a48.454,48.454,0,0,0-48.454,48.454v614.107a48.454,48.454,0,0,0,48.454,48.454H680.97a48.454,48.454,0,0,0,48.454-48.454h0V141.7885a48.454,48.454,0,0,0-48.454-48.453Z" transform="matrix(1.3117790222167969, 0, 0, 1.3117790222167969, -199.0674743652344, -100.30057525634764)" fill="#fff"/><path id="b06d66ec-6c84-45dd-8c27-1263a6253192" data-name="Path 6" d="M531.234,337.96451a24.437,24.437,0,0,1,12.23-21.174,24.45,24.45,0,1,0,0,42.345A24.43391,24.43391,0,0,1,531.234,337.96451Z" transform="matrix(1.3117790222167969, 0, 0, 1.3117790222167969, -199.0674743652344, -100.30057525634764)" fill="#ccc"/><path id="e73810fe-4cf4-40cc-8c7c-ca544ce30bd4" data-name="Path 7" d="M561.971,337.96451a24.43594,24.43594,0,0,1,12.23-21.174,24.45,24.45,0,1,0,0,42.345A24.43391,24.43391,0,0,1,561.971,337.96451Z" transform="matrix(1.3117790222167969, 0, 0, 1.3117790222167969, -199.0674743652344, -100.30057525634764)" fill="#ccc"/><path d="M 388.884022 261.502014 A 24.450001 24.450001 0 0 1 364.434021 285.952015 A 24.450001 24.450001 0 0 1 339.98402 261.502014 A 24.450001 24.450001 0 0 1 364.434021 237.052013 A 24.450001 24.450001 0 0 1 388.884022 261.502014 Z" id="a4813fcf-056e-4514-bb8b-e6506f49341f" data-name="Ellipse 1" fill="#007bff" transform="matrix(1.3117790222167969, 0, 0, 1.3117790222167969, 99.46195983886719, 0)"/><path id="bbe451c3-febc-41ba-8083-4c8307a2e73e" data-name="Path 8" d="M632.872,414.3305h-142.5a5.123,5.123,0,0,1-5.117-5.117v-142.5a5.123,5.123,0,0,1,5.117-5.117h142.5a5.123,5.123,0,0,1,5.117,5.117v142.5A5.123,5.123,0,0,1,632.872,414.3305Zm-142.5-150.686a3.073,3.073,0,0,0-3.07,3.07v142.5a3.073,3.073,0,0,0,3.07,3.07h142.5a3.073,3.073,0,0,0,3.07-3.07v-142.5a3.073,3.073,0,0,0-3.07-3.07Z" transform="matrix(1.3117790222167969, 0, 0, 1.3117790222167969, -199.0674743652344, -100.30057525634764)" fill="#ccc"/><path d="M 218.562012 447.101959 H 437.114014 V 449.148959 H 218.562012 V 447.101959 Z" id="bb28937d-932f-4fdf-befe-f406e51091fe" data-name="Rectangle 1" fill="#ccc" transform="matrix(1.3117790222167969, 0, 0, 1.3117790222167969, 99.46195983886719, 0)"/><path d="M 232.366004 427.419983 A 6.902 6.902 0 0 1 225.464005 434.321983 A 6.902 6.902 0 0 1 218.562005 427.419983 A 6.902 6.902 0 0 1 225.464005 420.517983 A 6.902 6.902 0 0 1 232.366004 427.419983 Z" id="fcef55fc-4968-45b2-93bb-1a1080c85fc7" data-name="Ellipse 2" fill="#007bff" transform="matrix(1.3117790222167969, 0, 0, 1.3117790222167969, 99.46195983886719, 0)"/><path d="M 218.562012 516.118042 H 437.114014 V 518.165042 H 218.562012 V 516.118042 Z" id="ff33d889-4c74-4b91-85ef-b4882cc8fe76" data-name="Rectangle 2" fill="#ccc" transform="matrix(1.3117790222167969, 0, 0, 1.3117790222167969, 99.46195983886719, 0)"/><path d="M 232.366004 496.437012 A 6.902 6.902 0 0 1 225.464005 503.339012 A 6.902 6.902 0 0 1 218.562005 496.437012 A 6.902 6.902 0 0 1 225.464005 489.535012 A 6.902 6.902 0 0 1 232.366004 496.437012 Z" id="e8fa0310-b872-4adf-aedd-0c6eda09f3b8" data-name="Ellipse 3" fill="#007bff" transform="matrix(1.3117790222167969, 0, 0, 1.3117790222167969, 99.46195983886719, 0)"/><path d="M660.69043,671.17188H591.62207a4.50493,4.50493,0,0,1-4.5-4.5v-24.208a4.50492,4.50492,0,0,1,4.5-4.5h69.06836a4.50491,4.50491,0,0,1,4.5,4.5v24.208A4.50492,4.50492,0,0,1,660.69043,671.17188Z" transform="matrix(1.3117790222167969, 0, 0, 1.3117790222167969, -199.0674743652344, -100.30057525634764)" fill="#007bff"/><path d="M 254.879997 427.419983 A 6.902 6.902 0 0 1 247.977997 434.321983 A 6.902 6.902 0 0 1 241.075997 427.419983 A 6.902 6.902 0 0 1 247.977997 420.517983 A 6.902 6.902 0 0 1 254.879997 427.419983 Z" id="e12ee00d-aa4a-4413-a013-11d20b7f97f7" data-name="Ellipse 7" fill="#007bff" transform="matrix(1.3117790222167969, 0, 0, 1.3117790222167969, 99.46195983886719, 0)"/><path d="M 277.394004 427.419983 A 6.902 6.902 0 0 1 270.492004 434.321983 A 6.902 6.902 0 0 1 263.590004 427.419983 A 6.902 6.902 0 0 1 270.492004 420.517983 A 6.902 6.902 0 0 1 277.394004 427.419983 Z" id="f58f497e-6949-45c8-be5f-eee2aa0f6586" data-name="Ellipse 8" fill="#007bff" transform="matrix(1.3117790222167969, 0, 0, 1.3117790222167969, 99.46195983886719, 0)"/><path d="M 254.879997 496.437012 A 6.902 6.902 0 0 1 247.977997 503.339012 A 6.902 6.902 0 0 1 241.075997 496.437012 A 6.902 6.902 0 0 1 247.977997 489.535012 A 6.902 6.902 0 0 1 254.879997 496.437012 Z" id="b4d4939a-c6e6-4f4d-ba6c-e8b05485017d" data-name="Ellipse 9" fill="#007bff" transform="matrix(1.3117790222167969, 0, 0, 1.3117790222167969, 99.46195983886719, 0)"/><path d="M 277.394004 496.437012 A 6.902 6.902 0 0 1 270.492004 503.339012 A 6.902 6.902 0 0 1 263.590004 496.437012 A 6.902 6.902 0 0 1 270.492004 489.535012 A 6.902 6.902 0 0 1 277.394004 496.437012 Z" id="aff120b1-519b-4e96-ac87-836aa55663de" data-name="Ellipse 10" fill="#007bff" transform="matrix(1.3117790222167969, 0, 0, 1.3117790222167969, 99.46195983886719, 0)"/><path d="M792.25256,565.92292a10.09371,10.09371,0,0,1,1.41075.78731l44.8523-19.14319,1.60093-11.81526,17.92157-.10956-1.05873,27.0982-59.19987,15.65584a10.60791,10.60791,0,0,1-.44749,1.20835,10.2346,10.2346,0,1,1-5.07946-13.68169Z" transform="matrix(1.3117790222167969, 0, 0, 1.3117790222167969, -199.0674743652344, -100.30057525634764)" fill="#ffb8b8"/><path d="M 636.97998046875 735.02099609375 L 624.719970703125 735.02099609375 L 618.8880004882812 687.7329711914062 L 636.9819946289062 687.7340087890625 L 636.97998046875 735.02099609375 Z" fill="#ffb8b8" transform="matrix(1.3117790222167969, 0, 0, 1.3117790222167969, 99.46195983886719, 0)"/><path d="M615.96281,731.51778h23.64387a0,0,0,0,1,0,0v14.88687a0,0,0,0,1,0,0H601.076a0,0,0,0,1,0,0v0A14.88686,14.88686,0,0,1,615.96281,731.51778Z" fill="#2f2e41" transform="matrix(1.3117790222167969, 0, 0, 1.3117790222167969, 99.46195983886719, 0)"/><path d="M 684.6599731445312 731.5570068359375 L 672.458984375 732.7589721679688 L 662.0180053710938 686.27099609375 L 680.0250244140625 684.4970092773438 L 684.6599731445312 731.5570068359375 Z" fill="#ffb8b8" transform="matrix(1.3117790222167969, 0, 0, 1.3117790222167969, 99.46195983886719, 0)"/><path d="M891.68576,806.12757h23.64387a0,0,0,0,1,0,0v14.88687a0,0,0,0,1,0,0H876.7989a0,0,0,0,1,0,0v0A14.88686,14.88686,0,0,1,891.68576,806.12757Z" transform="matrix(1.3054617643356323, -0.12858343124389648, 0.12858343124389648, 1.3054617643356323, -298.01855468749994, 20.057888031005856)" fill="#2f2e41"/><path d="M 664.953547 384.573761 A 24.561029 24.561029 0 0 1 640.392517 409.13479 A 24.561029 24.561029 0 0 1 615.831488 384.573761 A 24.561029 24.561029 0 0 1 640.392517 360.012732 A 24.561029 24.561029 0 0 1 664.953547 384.573761 Z" fill="#ffb8b8" transform="matrix(1.3117790222167969, 0, 0, 1.3117790222167969, 99.46195983886719, 0)"/><path d="M849.55636,801.91945a4.47086,4.47086,0,0,1-4.415-3.69726c-6.34571-35.22559-27.08789-150.40528-27.584-153.59571a1.42684,1.42684,0,0,1-.01562-.22168v-8.58789a1.489,1.489,0,0,1,.27929-.87207l2.74024-3.83789a1.47845,1.47845,0,0,1,1.14355-.625c15.62207-.73242,66.78418-2.8789,69.25586.209h0c2.48242,3.10351,1.60547,12.50683,1.4043,14.36035l.00977.19336,22.98535,146.99512a4.51238,4.51238,0,0,1-3.71485,5.13476l-14.35644,2.36524a4.52127,4.52127,0,0,1-5.02539-3.09278c-4.44043-14.18847-19.3291-61.918-24.48926-80.38672a.49922.49922,0,0,0-.98047.13868c.25781,17.60546.88086,62.52343,1.0957,78.0371l.02344,1.6709a4.51811,4.51811,0,0,1-4.09277,4.53614l-13.84375,1.25781C849.83565,801.91359,849.695,801.91945,849.55636,801.91945Z" transform="matrix(1.3117790222167969, 0, 0, 1.3117790222167969, -199.0674743652344, -100.30057525634764)" fill="#2f2e41"/><path id="ae7af94f-88d7-4204-9f07-e3651de85c05" data-name="Path 99" d="M852.38089,495.2538c-4.28634,2.548-6.85116,7.23043-8.32276,11.9951a113.681,113.681,0,0,0-4.88444,27.15943l-1.55553,27.60021-19.25508,73.1699c16.68871,14.1207,26.31542,10.91153,48.78049-.63879s25.03222,3.85117,25.03222,3.85117l4.49236-62.25839,6.41837-68.03232a30.16418,30.16418,0,0,0-4.86143-4.67415,49.65848,49.65848,0,0,0-42.44229-8.99538Z" transform="matrix(1.3117790222167969, 0, 0, 1.3117790222167969, -199.0674743652344, -100.30057525634764)" fill="#007bff"/><path d="M846.12661,580.70047a10.52561,10.52561,0,0,1,1.50061.70389l44.34832-22.1972.736-12.02551,18.2938-1.26127.98041,27.4126L852.7199,592.93235a10.4958,10.4958,0,1,1-6.59329-12.23188Z" transform="matrix(1.3117790222167969, 0, 0, 1.3117790222167969, -199.0674743652344, -100.30057525634764)" fill="#ffb8b8"/><path id="a6768b0e-63d0-4b31-8462-9b2e0b00f0fd" data-name="Path 101" d="M902.76552,508.41151c10.91151,3.85117,12.83354,45.57369,12.83354,45.57369-12.8367-7.06036-28.24139,4.49318-28.24139,4.49318s-3.20916-10.91154-7.06034-25.03223a24.52987,24.52987,0,0,1,5.13436-23.10625S891.854,504.558,902.76552,508.41151Z" transform="matrix(1.3117790222167969, 0, 0, 1.3117790222167969, -199.0674743652344, -100.30057525634764)" fill="#007bff"/><path id="bfd7963f-0cf8-4885-9d3a-2c00bccda2e3" data-name="Path 102" d="M889.99122,467.53052c-3.06-2.44837-7.23517,2.00173-7.23517,2.00173l-2.4484-22.03349s-15.30095,1.8329-25.0935-.61161-11.32255,8.87513-11.32255,8.87513a78.57978,78.57978,0,0,1-.30582-13.77092c.61158-5.50838,8.56838-11.01675,22.6451-14.68932S887.6518,439.543,887.6518,439.543C897.44542,444.43877,893.05121,469.97891,889.99122,467.53052Z" transform="matrix(1.3117790222167969, 0, 0, 1.3117790222167969, -199.0674743652344, -100.30057525634764)" fill="#2f2e41"/><path id="fa3b9e12-7275-481e-bee9-64fd9595a50d" data-name="Path 1" d="M299.205,705.80851l-6.56-25.872a335.96693,335.96693,0,0,0-35.643-12.788l-.828,12.024-3.358-13.247c-15.021-4.29394-25.24-6.183-25.24-6.183s13.8,52.489,42.754,92.617l33.734,5.926-26.207,3.779a135.92592,135.92592,0,0,0,11.719,12.422c42.115,39.092,89.024,57.028,104.773,40.06s-5.625-62.412-47.74-101.5c-13.056-12.119-29.457-21.844-45.875-29.5Z" transform="matrix(1.3117790222167969, 0, 0, 1.3117790222167969, -262.0674743652344, -100.30057525634764)" fill="#f2f2f2"/><path id="bde08021-c30f-4979-a9d8-cb90b72b5ca2" data-name="Path 2" d="M361.591,677.70647l7.758-25.538a335.93951,335.93951,0,0,0-23.9-29.371l-6.924,9.865,3.972-13.076c-10.641-11.436-18.412-18.335-18.412-18.335s-15.315,52.067-11.275,101.384l25.815,22.51-24.392-10.312a135.91879,135.91879,0,0,0,3.614,16.694c15.846,55.234,46.731,94.835,68.983,88.451s27.446-56.335,11.6-111.569c-4.912-17.123-13.926-33.926-24.023-48.965Z" transform="matrix(1.3117790222167969, 0, 0, 1.3117790222167969, -254.06747436523438, -100.30057525634764)" fill="#f2f2f2"/></svg>