<?xml version="1.0" encoding="utf-8"?>
<svg id="master-artboard" viewBox="0 0 1400 980" version="1.1" xmlns="http://www.w3.org/2000/svg" x="0px" y="0px" style="enable-background:new 0 0 1400 980;" width="1400px" height="980px" xmlns:xlink="http://www.w3.org/1999/xlink"><defs><linearGradient id="a555fdc1-543d-4707-ad9f-6ab871925265" x1="403.53" y1="329.2" x2="403.53" y2="58.05" gradientUnits="userSpaceOnUse"><stop offset="0" stop-color="gray" stop-opacity="0.25"/><stop offset="0.54" stop-color="gray" stop-opacity="0.12"/><stop offset="1" stop-color="gray" stop-opacity="0.1"/></linearGradient><linearGradient id="b5cd2d76-14a4-40b4-8065-15ea8dd506d0" x1="517.81" y1="472.14" x2="647.31" y2="472.14" gradientTransform="translate(-58.47 81.57) rotate(-5.9)" xlink:href="#a555fdc1-543d-4707-ad9f-6ab871925265"/><linearGradient y2="-0.00005" x2="0.49998" y1="0.99995" x1="0.49998" id="a7d70b19-b507-4394-a133-55f51a2376ed">
   <stop stop-opacity="0.25" stop-color="gray" offset="0"/>
   <stop stop-opacity="0.12" stop-color="gray" offset="0.53514"/>
   <stop stop-opacity="0.1" stop-color="gray" offset="1"/>
  </linearGradient><linearGradient y2="-0.00005" x2="0.49998" y1="0.99995" x1="0.49998" id="gradient-1">
   <stop stop-opacity="0.25" stop-color="gray" offset="0"/>
   <stop stop-opacity="0.12" stop-color="gray" offset="0.53514"/>
   <stop stop-opacity="0.1" stop-color="gray" offset="1"/>
  </linearGradient><linearGradient id="014c1da1-8fbc-4b78-b7b6-4af1b8694bf8" x1="196.47" y1="715" x2="196.47" gradientUnits="userSpaceOnUse"><stop offset="0.01" stop-color="gray" stop-opacity="0.25"/><stop offset="0.54" stop-color="gray" stop-opacity="0.12"/><stop offset="1" stop-color="gray" stop-opacity="0.1"/></linearGradient></defs><g transform="matrix(1.2290728980788341, 0, 0, 1.2290728980788341, -0.00005520691047422588, 8.264832077091569)"><title>going up</title><path d="M824,293.65a7.55,7.55,0,0,0,1.37-4.2c0-9.12-18.58-16.5-41.5-16.5s-41.5,7.38-41.5,16.5a7.78,7.78,0,0,0,1.71,4.68c-25.52,2.85-42.71,8.19-42.71,14.32,0,9.11,38,16.5,85,16.5s85-7.39,85-16.5C871.32,302,852,296.35,824,293.65Z" transform="matrix(1, 0, 0, 1, 220.1245649736311, -58.04999923706055)" fill="#007bff" opacity="0.1"/><path d="M217.68,746.08c0-52.89,36.62-95.69,81.88-95.69" transform="matrix(1, 0, 0, 1, 220.1245649736311, -58.04999923706055)" fill="#007bff"/><path d="M170.9,656.19c0,49.69,20.92,89.89,46.78,89.89" transform="matrix(1, 0, 0, 1, 220.1245649736311, -58.04999923706055)" fill="#007bff"/><path d="M 1038.849976 727.559998 A 511 16.99 0 0 1 527.849976 744.549997 A 511 16.99 0 0 1 16.849976 727.559998 A 511 16.99 0 0 1 527.849976 710.569998 A 511 16.99 0 0 1 1038.849976 727.559998 Z" fill="#007bff" opacity="0.1"/><path d="M 197.420006 698.299988 A 18.68 3.16 0 0 1 178.740005 701.459988 A 18.68 3.16 0 0 1 160.060005 698.299988 A 18.68 3.16 0 0 1 178.740005 695.139988 A 18.68 3.16 0 0 1 197.420006 698.299988 Z" fill="#007bff" opacity="0.1" transform="matrix(1, 0, 0, 1, 254.66234573534987, -2.0961010704922955e-13)"/><path d="M231.91,754.77c-12,.09-27.95-1.88-31.15-3.83-2.44-1.48-3.42-6.82-3.74-9.28h-.36s.68,8.6,3.88,10.55,19.13,3.92,31.15,3.82c3.47,0,4.67-1.26,4.61-3.09C235.82,754.06,234.49,754.75,231.91,754.77Z" transform="matrix(1, 0, 0, 1, 217.68372329882644, -58.04999923706055)" opacity="0.2"/><path d="M718,257c-14.35-70.72-75.85-124-150.67-124-59.45,0-110.7,33.82-136.33,83-61.5,6.15-109.67,58.42-109.67,122,0,67.64,55.34,123,123,123h266.5c56.37,0,102.5-46.13,102.5-102.5A101.25,101.25,0,0,0,718,257ZM600.12,317.45v77.9h-65.6v-77.9h-69.7L567.32,215l102.5,102.5Z" transform="matrix(1, 0, 0, 1, 220.1245649736311, -58.04999923706055)" fill="#007bff"/><path d="M846,94.65a7.55,7.55,0,0,0,1.37-4.2c0-9.12-18.58-16.5-41.5-16.5s-41.5,7.38-41.5,16.5A7.78,7.78,0,0,0,766,95.13c-25.52,2.85-42.71,8.19-42.71,14.32,0,9.11,38,16.5,85,16.5s85-7.39,85-16.5C893.32,103,874,97.35,846,94.65Z" transform="matrix(1, 0, 0, 1, 220.1245649736311, -58.04999923706055)" fill="#007bff" opacity="0.1"/><path d="M337,112.65a7.55,7.55,0,0,0,1.37-4.2c0-9.12-18.58-16.5-41.5-16.5s-41.5,7.38-41.5,16.5a7.78,7.78,0,0,0,1.71,4.68c-25.52,2.85-42.71,8.19-42.71,14.32,0,9.11,38.05,16.5,85,16.5s85-7.39,85-16.5C384.32,121,365,115.35,337,112.65Z" transform="matrix(1, 0, 0, 1, 220.1245649736311, -58.04999923706055)" fill="#007bff" opacity="0.1"/><path d="M628.74,98.79c2.33-1.35,5.48-.06,7.08,2.12s2,5,2.45,7.62c.89,5.92,1.54,12.71-2.45,17.16,6.52-19.77,25.27-34.91,46-37.12" transform="matrix(1, 0, 0, 1, 220.1245649736311, -58.04999923706055)" fill="none" stroke="#007bff" stroke-miterlimit="10" stroke-width="3" opacity="0.1"/><path d="M295.21,199.77c1.5-.87,3.52,0,4.55,1.36a10.71,10.71,0,0,1,1.58,4.9c.57,3.81,1,8.17-1.57,11a35.83,35.83,0,0,1,29.55-23.87" transform="matrix(1, 0, 0, 1, 220.1245649736311, -58.04999923706055)" fill="none" stroke="#007bff" stroke-miterlimit="10" stroke-width="3" opacity="0.1"/><path d="M745.21,229.77c1.5-.87,3.52,0,4.55,1.36a10.71,10.71,0,0,1,1.58,4.9c.57,3.81,1,8.17-1.57,11a35.83,35.83,0,0,1,29.55-23.87" transform="matrix(1, 0, 0, 1, 220.1245649736311, -58.04999923706055)" fill="none" stroke="#007bff" stroke-miterlimit="10" stroke-width="3" opacity="0.1"/><path d="M708.32,566v-24.3l11.2,11.2,2.8-2.9-16-16-16,16,2.8,2.79,11.2-11.09V566Z" transform="matrix(1, 0, 0, 1, 220.1245649736311, -58.04999923706055)" fill="#007bff" opacity="0.1"/><path d="M466.32,646v-24.3l11.2,11.2,2.8-2.9-16-16-16,16,2.8,2.79,11.2-11.09V646Z" transform="matrix(1, 0, 0, 1, 220.1245649736311, -58.04999923706055)" fill="#007bff" opacity="0.1"/><path d="M644.32,717v-24.3l11.2,11.2,2.8-2.9-16-16-16,16,2.8,2.79,11.2-11.09V717Z" transform="matrix(1, 0, 0, 1, 220.1245649736311, -58.04999923706055)" fill="#007bff" opacity="0.1"/><path d="M 185.37210083007812 613.6109619140625" style="fill: rgb(70, 69, 91); fill-opacity: 1; stroke: rgb(0, 0, 0); stroke-opacity: 1; stroke-width: 0; paint-order: fill;"/></g><g transform="matrix(1.2220423221588133, 0, 0, 1.2220423221588133, 102.7402877807617, 36.99999999999999)"><title>download</title><g>
  <title>background</title>
  <path d="M -1 -1 H 801 V 601 H -1 V -1 Z" fill="none" id="canvas_background"/>
 </g><g>
  <title>Layer 1</title>
  <path d="M 1489.805419 1489.563843 H 1702.710938 A 12.54724 12.54724 0 0 1 1715.258179 1502.111083 V 1609.016603 A 12.54724 12.54724 0 0 1 1702.710938 1621.563843 H 1489.805419 A 12.54724 12.54724 0 0 1 1477.258179 1609.016603 V 1502.111083 A 12.54724 12.54724 0 0 1 1489.805419 1489.563843 Z" id="svg_25" fill="#007bff" transform="translate(91,-101) "/>
  <path d="M 1450.805419 1414.563843 H 1663.710938 A 12.54724 12.54724 0 0 1 1676.258179 1427.111083 V 1534.016603 A 12.54724 12.54724 0 0 1 1663.710938 1546.563843 H 1450.805419 A 12.54724 12.54724 0 0 1 1438.258179 1534.016603 V 1427.111083 A 12.54724 12.54724 0 0 1 1450.805419 1414.563843 Z" id="svg_26" stroke-miterlimit="10" stroke="#3f3d56" fill="none" transform="translate(91,-101) "/>
  <path transform="translate(91,-101) " id="svg_28" fill="url(#a7d70b19-b507-4394-a133-55f51a2376ed)" d="m107.90869,765.09841l-0.00036,0.00132s-0.31446,0.17476 -0.85173,0.44735q0.43397,-0.22477 0.85209,-0.44867z"/>
  <path transform="translate(91,-101) " id="svg_29" fill="#575a89" d="m-11.35696,660.30227c-7.50261,21.57 1.252,56.58375 5.3174,72.2126c4.06086,15.63357 5.31282,34.39008 5.31282,34.39008c15.943,2.49932 27.51109,-0.62835 27.51109,-0.62835l-6.56478,-32.19554c4.68913,-19.07068 0,-70.02747 0,-70.02747s10.62564,-19.69435 11.56346,-49.70478c0.92375,-29.54151 8.206,-39.08857 8.43574,-39.384l0.0047,-0.0047c15.00521,7.8168 34.07586,91.59747 34.07586,91.59747c-1.56151,20.318 0.31414,51.58043 6.56478,68.46129a84.75941,84.75941 0 0 1 4.68913,33.44757c2.1851,1.84752 5.2237,2.16168 8.50609,1.63181c8.92807,-1.44426 19.62869,-9.13441 19.62869,-9.13441s-3.43717,-91.28331 -5.94109,-94.72042c-2.49934,-3.43714 0,-23.13148 0,-23.13148l-4.06086,-31.88609s0.62369,-54.08443 -5.3174,-63.46269c-5.12524,-8.0981 -6.30691,-22.32963 -6.53667,-26.06685c-0.0328,-0.59084 -0.04688,-0.91908 -0.04688,-0.91908l-9.04535,-10.83657s-87.532,-6.56478 -94.09673,0c-1.61309,1.61306 -2.60718,5.27527 -3.198,9.88938c-1.80536,14.17993 0.26262,37.31138 0.26262,37.31138s2.62585,17.19506 6.37715,34.69956a76.00815,76.00815 0 0 1 0,31.88608a95.36238,95.36238 0 0 1 -3.44177,36.57521z"/>
  <path transform="translate(91,-101) " id="svg_30" fill="#cbceda" d="m-5.88474,797.38427c3.90608,5.158 26.88281,2.96825 30.79348,1.35991c2.3868,-0.98476 2.20861,-5.47692 1.56151,-10.10509c-0.40795,-2.94479 -1.00817,-5.94584 -1.252,-8.13569c-0.62369,-5.62693 1.87565,-17.04028 1.87565,-17.04028s-5.158,5.47224 -6.40542,0c-0.54773,-2.392 -2.47139,-3.61818 -4.46219,-4.24074a11.67771,11.67771 0 0 0 -8.11578,0.509c-4.0596,1.76022 -10.83558,5.51663 -9.6203,10.59667c1.72088,7.17909 -4.375,17.36386 -4.375,17.36386a7.81407,7.81407 0 0 0 -1.13943,1.96472a7.51005,7.51005 0 0 0 1.13948,7.72764z"/>
  <path transform="translate(91,-101) " id="svg_31" opacity="0.1" d="m-5.88474,797.38427c3.90608,5.158 26.88281,2.96825 30.79348,1.35991c2.3868,-0.98476 2.20861,-5.47692 1.56151,-10.10509c-2.46672,1.15479 -6.66321,2.11353 -13.658,1.46667a39.31042,39.31042 0 0 0 -4.91278,-0.15072a114.95661,114.95661 0 0 1 -14.92361,-0.29845a7.51005,7.51005 0 0 0 1.1394,7.72768z"/>
  <path transform="translate(91,-101) " id="svg_32" opacity="0.1" d="m74.29933,666.55758c-1.56151,20.318 0.31414,51.58043 6.56478,68.46129a84.75941,84.75941 0 0 1 4.68913,33.44757c2.1851,1.84752 5.2237,2.16168 8.50609,1.63181c-1.885,-13.18583 -9.92221,-69.99464 -15.07087,-114.87429c-5.86141,-51.11151 -33.29282,-86.28 -33.29282,-86.28l-5.47217,6.01613c15.00521,7.81682 34.07586,91.59749 34.07586,91.59749z"/>
  <path transform="translate(91,-101) " id="svg_33" fill="#fbbebe" d="m3.49348,338.00435l3.817,18.75652l18.69078,31.41719l23.05641,-9.84717s31.33749,-32.82391 11.64315,-37.513a17.33077,17.33077 0 0 1 -6.54131,-2.912c-3.86384,-2.91662 -5.08306,-7.15561 -5.10184,-11.30548a34.63938,34.63938 0 0 1 3.20271,-13.44842l-40.32651,-12.66065a64.4,64.4 0 0 1 2.89316,16.33691c0.30955,10.982 -3.77,16.39321 -7.11807,18.97223a12.11163,12.11163 0 0 1 -4.21548,2.20387z"/>
  <path transform="translate(91,-101) " id="svg_34" opacity="0.1" d="m11.93391,300.49132a64.4,64.4 0 0 1 2.89316,16.33691a30.994,30.994 0 0 0 2.34456,2.49462a31.9113,31.9113 0 0 0 31.88608,7.27754a34.63938,34.63938 0 0 1 3.20271,-13.44842l-40.32651,-12.66065z"/>
  <path transform="translate(91,-101) " id="svg_35" fill="#fbbebe" d="m7.31044,295.33328a31.88492,31.88492 0 1 0 31.88608,-31.88609a31.76788,31.76788 0 0 0 -31.88608,31.88609z"/>
  <path transform="translate(91,-101) " id="svg_36" opacity="0.1" d="m3.49348,338.00435l3.817,18.75652l18.69078,31.41719l23.05641,-9.84717s31.33749,-32.82391 11.64315,-37.513a17.33077,17.33077 0 0 1 -6.54131,-2.912c3.559,9.77216 -11.12261,30.10891 -11.12261,30.10891c-1.7069,2.51337 -5.627,0.93783 -5.627,0.93783c-9.45336,-1.43018 -26.864,-28.62713 -29.701,-33.15215a12.11163,12.11163 0 0 1 -4.21542,2.20387z"/>
  <path transform="translate(91,-101) " id="svg_37" opacity="0.1" d="m-14.55498,519.83006c5.54728,1.26138 36.26108,8.06528 47.90411,6.36313c12.81543,-1.87565 37.73347,-3.12295 37.73347,-3.12295s15.868,0.85812 20.7494,-1.37391c-0.0328,-0.59084 -0.04688,-0.91908 -0.04688,-0.91908l-9.04535,-10.83657s-87.532,-6.56478 -94.09673,0c-1.61309,1.61304 -2.60718,5.27525 -3.19802,9.88938z"/>
  <path transform="translate(91,-101) " id="svg_38" fill="#3f3d56" d="m43.03847,368.95261s16.49322,-22.85 10.27857,-31.74456l27.85968,11.425s16.76883,-2.03259 22.82,22.99209a43.2943,43.2943 0 0 1 1.03593,12.70146c-0.2198,3.77329 0.29307,10.41622 4.59144,19.013c6.87739,13.75478 5.31435,45.32825 -8.753,48.45434s-19.06913,1.563 -19.06913,1.563s1.87565,57.20738 10.00348,63.77216s-20.72319,5.00174 -20.72319,5.00174s-24.91767,1.25043 -37.73463,3.12609s-48.76694,-6.56479 -48.76694,-6.56479s5.31434,-24.07086 7.19,-39.38868s6.25218,-47.935 6.25218,-47.935l-31.88611,-43.1904s-5.627,-26.10282 14.06738,-37.66934s27.10594,-14.41034 27.10594,-14.41034s19.78536,32.229 30.10144,33.79207c0,-0.00002 3.91886,1.57461 5.62696,-0.93784z" style="fill: rgb(0, 123, 255);"/>
  <path transform="translate(91,-101) " id="svg_39" opacity="0.1" d="m79.61368,378.01826s0.31261,10.31608 -1.563,14.38s-8.753,26.57173 -8.753,26.57173l15.63043,0s-8.44044,-9.06565 -7.81522,-13.44217s2.50079,-27.50956 2.50079,-27.50956z"/>
  <path transform="translate(91,-101) " id="svg_40" fill="#fbbebe" d="m33.3476,455.85781s34.51754,-8.44043 37.73463,-15.63043s12.08431,-23.27994 12.08431,-23.27994l-3.6435,-4.90768l-16.79023,13.1824s-20.007,15.943 -29.38521,17.50609s0,13.12956 0,13.12956z"/>
  <path transform="translate(91,-101) " id="svg_41" opacity="0.05" d="m33.3476,455.85781s34.51754,-8.44043 37.73463,-15.63043s12.08431,-23.27994 12.08431,-23.27994l-3.6435,-4.90768l-16.79023,13.1824s-20.007,15.943 -29.38521,17.50609s0,13.12956 0,13.12956z"/>
  <path transform="translate(91,-101) " id="svg_42" fill="#fbbebe" d="m3.49348,415.22024l0,18.72839l3.01038,0a87.60925,87.60925 0 0 1 42.507,11.0007l5.641,3.13234l1.51933,0.844l9.6877,-21.8279l-9.06412,-8.12627s-0.164,0.01875 -0.46422,0.04222c-2.21795,0.21568 -11.8072,1.01753 -15.87264,-0.35638c-3.8592,-1.30828 -8.65617,-5.46754 -20.02731,-2.56027c-5.59885,1.43017 -10.38174,7.70893 -15.81642,5.74887l-1.1207,-6.6257z"/>
  <path transform="translate(91,-101) " id="svg_43" opacity="0.1" d="m-26.67326,381.14435l-6.25217,7.03371l0,17.03717s5.31435,53.76868 22.19522,59.70825s47.01551,-3.4387 47.01551,-3.4387s7.78284,-20.63217 4.14192,-21.8826s-32.17932,-8.78853 -32.17932,-8.78853s0.40362,-31.538 -5.84855,-40.91624c0,0 4.06391,-29.38521 -10.00348,-30.01043s-19.06913,21.25737 -19.06913,21.25737z"/>
  <path transform="translate(91,-101) " id="svg_44" fill="#3f3d56" d="m-27.61108,381.14435l-6.25217,7.03371l0,17.03717s5.31434,53.76868 22.19521,59.70825s47.01551,-3.4387 47.01551,-3.4387s7.78285,-20.63217 4.14192,-21.8826s-32.17932,-8.78853 -32.17932,-8.78853s0.40362,-31.538 -5.84855,-40.91624c0,0 4.06391,-29.38521 -10.00347,-30.01043s-19.06913,21.25737 -19.06913,21.25737z" style="fill: rgb(0, 123, 255);"/>
  <path transform="translate(91,-101) " id="svg_45" opacity="0.1" d="m16.05567,308.88484a12.48011,12.48011 0 0 1 0.71276,-6.08648c0.8815,-1.86626 2.94479,-3.33866 4.95639,-2.865c2.67753,0.62366 3.831,4.10768 6.45224,4.94233c2.20856,0.70337 4.62348,-0.86278 5.67853,-2.9307c1.05506,-2.0632 1.08322,-4.48281 1.08791,-6.79924q0.00705,-3.91773 0.01872,-7.83552c0.00469,-2.84161 0.08912,-5.913 1.84285,-8.145c2.1804,-2.78065 7.301,-3.99515 10.71935,-3.88262a9.06655,9.06655 0 0 1 6.11928,2.46649c1.83346,1.55679 3.94826,2.70094 6.44285,2.293a5.56289,5.56289 0 0 0 4.48753,-3.88261a0.74891,0.74891 0 0 0 0.02347,-0.09846a31.88386,31.88386 0 1 0 -47.42592,42.32403a86.17382,86.17382 0 0 1 -1.11596,-9.50022z"/>
  <path transform="translate(91,-101) " id="svg_46" fill="#3f3d56" d="m60.08745,279.10476a5.57013,5.57013 0 0 0 4.48868,-3.88363c0.26277,-1.00923 0.19378,-2.08595 0.49087,-3.08563c0.72987,-2.456 3.35193,-3.73664 5.10939,-5.601c3.52273,-3.737 3.29388,-9.88525 0.80025,-14.37486c-2.01246,-3.62329 -5.9165,-6.68277 -10.0002,-5.97456c-2.52823,0.43846 -4.71565,2.24069 -7.27649,2.403c-2.46538,0.15625 -4.72281,-1.22478 -6.9702,-2.25035a26.27874,26.27874 0 0 0 -17.28014,-1.53364a9.95578,9.95578 0 0 0 -4.7546,2.39808a40.49992,40.49992 0 0 0 -2.53626,3.565c-2.91619,3.71368 -8.13178,4.43893 -12.77774,5.28192s-9.904,2.67643 -11.431,7.14453c-1.01248,2.96262 -0.03034,6.18027 0.5514,9.2566a2.7207,2.7207 0 0 1 -0.124,1.911c-0.72469,1.1988 -2.53916,0.69713 -3.91012,0.98483c-2.636,0.55315 -3.31345,3.94914 -3.41048,6.64078q-0.16657,4.6209 -0.251,9.24428a11.95061,11.95061 0 0 0 0.27282,3.4307a12.12149,12.12149 0 0 0 2.65863,4.30246l10.32256,12.40088c4.57684,5.49834 9.43745,11.90706 8.51506,19.00132c2.16944,0.97347 4.74556,-0.89925 5.457,-3.16818s0.13686,-4.71336 -0.34515,-7.04184a86.57534,86.57534 0 0 1 -1.632,-12.20814a12.43913,12.43913 0 0 1 0.71577,-6.086c0.87906,-1.86884 2.94475,-3.33839 4.95576,-2.8681c2.67772,0.62619 3.82987,4.10859 6.45,4.94372c2.20874,0.704 4.62644,-0.8646 5.67966,-2.92977s1.08142,-4.48233 1.0869,-6.80055l0.0185,-7.83578c0.0067,-2.83917 0.09052,-5.91266 1.84278,-8.14658c2.18022,-2.7795 7.30318,-3.99368 10.72225,-3.88259a9.07916,9.07916 0 0 1 6.11684,2.46757c1.83445,1.55732 3.94717,2.70132 6.44426,2.29453z"/>
  <path transform="translate(91,-101) " id="svg_47" opacity="0.1" d="m52.88564,377.23674l-9.78975,40.21522s-7.71633,-0.04501 9.78975,-40.21522z"/>
  <path transform="translate(91,-101) " id="svg_48" opacity="0.1" d="m19.43652,370.51565s12.81695,20.99063 7.81521,42.694l-2.38793,0.17446s4.26359,-10.04455 -5.42728,-42.86846z"/>
  <path transform="translate(91,-101) " id="svg_49" opacity="0.1" d="m11.30869,489.30693s-15.73783,-5.20547 -16.88086,6.87739c0,0 2.96978,-8.28413 16.88086,-6.87739z"/>
  <path transform="translate(91,-101) " id="svg_50" opacity="0.1" d="m56.79326,419.90782s3.12609,21.8826 -2.50087,30.63564c0,0 11.44573,4.68913 27.50956,3.75131l1.87565,-34.387l-26.88434,0.00005z"/>
  <path transform="translate(91,-101) " id="svg_51" opacity="0.1" d="m54.65187,448.08167l1.51933,0.844l9.6877,-21.8279l-9.06412,-8.12627l-0.46892,0a0.28883,0.28883 0 0 0 0.0047,0.04222c0.1407,1.00819 2.66814,19.80222 -1.67869,29.06795z"/>
  <path transform="translate(91,-101) " id="svg_52" fill="#3f3d56" d="m56.79326,418.96999s3.12609,21.8826 -2.50087,30.63565c0,0 11.44573,4.68913 27.50956,3.7513l10.9413,-34.38695l-35.94999,0z" style="fill: rgb(0, 123, 255);"/>
  <path transform="translate(91,-101) " id="svg_53" fill="#cbceda" d="m81.83198,792.07273a7.07925,7.07925 0 0 0 6.0706,6.19285c8.48992,1.26827 28.93735,-2.49741 34.10153,-0.04073c6.56478,3.12767 32.50977,0.93783 33.76173,-2.18515a4.93352,4.93352 0 0 0 -0.45014,-3.76069a9.98125,9.98125 0 0 0 -4.19211,-4.50619a10.38642,10.38642 0 0 0 -1.88029,-0.83468c-4.88615,-1.6318 -14.119,-5.09244 -16.609,-8.71713c0,0 -11.50477,-10.06664 -14.78839,-15.51105a7.50969,7.50969 0 0 0 -6.01019,-3.74308c-2.73846,-0.1225 -5.78874,1.25493 -7.036,7.25466c0,0 -14.99583,8.55767 -19.05669,1.05506c0,0 -0.62358,18.52586 -3.11353,21.677c-0.00469,0.00469 -0.00939,0.014 -0.01408,0.01871a4.161,4.161 0 0 0 -0.78344,3.10042z"/>
  <path transform="translate(91,-101) " id="svg_54" opacity="0.1" d="m81.83198,792.07273a7.07925,7.07925 0 0 0 6.0706,6.19285c8.48992,1.26827 28.93735,-2.49741 34.10153,-0.04073c6.56478,3.12767 32.50977,0.93783 33.76173,-2.18515a4.93352,4.93352 0 0 0 -0.45014,-3.76069a9.98125,9.98125 0 0 0 -4.19211,-4.50619c-4.22955,2.80409 -13.62189,5.55192 -34.27753,2.32579c-19.70373,-3.07609 -29.45714,0.90883 -34.21656,-1.145c-0.00469,0.00469 -0.00939,0.014 -0.01408,0.01871a4.161,4.161 0 0 0 -0.78344,3.10041z"/>
  <g transform="translate(91,-101) " id="svg_55" opacity="0.1">
   <path id="svg_56" d="m-1.46969,272.88941c-0.00882,-0.05014 -0.0174,-0.10054 -0.02679,-0.15c-0.443,-2.34276 -1.11573,-4.76718 -0.9653,-7.09881a45.60409,45.60409 0 0 0 0.9653,5.69207a3.38839,3.38839 0 0 1 0.02679,1.55674z"/>
   <path id="svg_57" d="m16.77246,302.15145a9.1354,9.1354 0 0 0 -0.76759,3.57228a10.76385,10.76385 0 0 1 0.76759,-4.979c0.8791,-1.86884 2.94479,-3.33837 4.95576,-2.86811c2.6777,0.6262 3.82984,4.10859 6.45,4.94373c2.20879,0.704 4.62651,-0.86462 5.67973,-2.92976s1.08138,-4.48235 1.08688,-6.80056q0.00927,-3.9179 0.01843,-7.83577c0.00675,-2.83918 0.09055,-5.91267 1.84279,-8.14659c2.18029,-2.77951 7.30319,-3.99369 10.72227,-3.88258a9.07894,9.07894 0 0 1 6.11682,2.46757c1.83466,1.55734 3.94735,2.70132 6.44446,2.29454a5.57021,5.57021 0 0 0 4.48867,-3.88362c0.26273,-1.00923 0.19376,-2.08595 0.49089,-3.08563c0.72982,-2.456 3.35188,-3.73665 5.10939,-5.601a10.23456,10.23456 0 0 0 2.63678,-6.6074a10.65727,10.65727 0 0 1 -2.63678,8.01414c-1.75751,1.86437 -4.37957,3.145 -5.10939,5.601c-0.29713,0.99968 -0.22816,2.0764 -0.49089,3.08563a5.57021,5.57021 0 0 1 -4.48867,3.88362c-2.49711,0.40677 -4.6098,-0.7372 -6.44446,-2.29454a9.079,9.079 0 0 0 -6.11682,-2.46758c-3.41908,-0.1111 -8.542,1.10308 -10.72227,3.88259c-1.75224,2.23392 -1.836,5.30741 -1.84279,8.14659q-0.00911,3.91785 -0.01843,7.83577c-0.0055,2.31821 -0.03366,4.73538 -1.08688,6.80056s-3.47094,3.63379 -5.67973,2.92976c-2.62012,-0.83514 -3.77226,-4.31753 -6.45,-4.94374c-2.01096,-0.47029 -4.07666,0.99926 -4.95576,2.8681z"/>
   <path id="svg_58" d="m-8.91929,293.54425a12.12287,12.12287 0 0 0 2.65858,4.30247q5.16124,6.20041 10.32261,12.40086c4.34546,5.22043 8.943,11.262 8.60758,17.9314c-0.31345,-6.11379 -4.56962,-11.67371 -8.60758,-16.52466q-5.16125,-6.20041 -10.32261,-12.40087a12.12269,12.12269 0 0 1 -2.65858,-4.30247a11.94551,11.94551 0 0 1 -0.27281,-3.42949a8.50743,8.50743 0 0 0 0.27281,2.02276z"/>
   <path id="svg_59" d="m18.03393,326.08075a7.34444,7.34444 0 0 0 0.30864,-1.67277a8.3752,8.3752 0 0 1 -0.30864,3.07951c-0.71139,2.26892 -3.28755,4.14162 -5.457,3.16816a13.61224,13.61224 0 0 0 0.107,-1.36773c2.1466,0.86714 4.65018,-0.97517 5.35,-3.20717z"/>
  </g>
  <path transform="translate(91,-101) " id="svg_60" opacity="0.1" d="m119.90792,765.53945s-3.26664,5.74843 -15.1082,0.68209"/>
  <path transform="translate(91,-101) " id="svg_61" opacity="0.1" d="m21.80773,765.92426s-10.21432,12.02272 -23.08215,3.94222"/>
  <path transform="translate(91,-101) " id="svg_62" opacity="0.1" d="m-7.91521,623.72706s7.21512,4.5073 7.44958,7.08633s-3.72479,-1.87566 -3.72479,-1.87566l-3.72479,-5.21067z"/>
  <path transform="translate(91,-101) " id="svg_63" opacity="0.1" d="m-10.76258,658.2922a15.06635,15.06635 0 0 0 8.89021,3.46944c5.3925,0.23446 4.94362,7.26815 1.41675,5.158s-10.30696,-8.62744 -10.30696,-8.62744z"/>
  <path transform="translate(91,-101) " id="svg_64" opacity="0.1" d="m-12.13556,662.80313s3.464,17.01166 6.27743,13.72927"/>
 <path d="M -208.50238037109375 225.02610778808594" style="fill: rgb(0, 123, 255); fill-opacity: 1; stroke: rgb(0, 0, 0); stroke-opacity: 1; stroke-width: 0; paint-order: fill;"/><path d="M 164.53958129882812 284.2391052246094" style="fill: rgb(63, 61, 86); fill-opacity: 1; stroke: rgb(0, 0, 0); stroke-opacity: 1; stroke-width: 0; paint-order: fill;"/></g></g><g transform="matrix(0.9999999403953552, 0, 0, 0.9999999403953552, -0.000011610432011366356, 62)"><g transform="matrix(0.15926438570022583, 0, 0, 0.15926438570022583, 1182.87451171875, 640.0471801757812)"><title>mobile</title><path d="M 24.73 0 H 368.210003 A 24.73 24.73 0 0 1 392.940002 24.73 V 690.27 A 24.73 24.73 0 0 1 368.210003 715 H 24.73 A 24.73 24.73 0 0 1 0 690.27 V 24.73 A 24.73 24.73 0 0 1 24.73 0 Z" fill="url(#014c1da1-8fbc-4b78-b7b6-4af1b8694bf8)"/><path d="M 33.78 9.95 H 359.159997 A 24.73 24.73 0 0 1 383.889997 34.679999 V 673.649993 A 24.73 24.73 0 0 1 359.159997 698.379992 H 33.78 A 24.73 24.73 0 0 1 9.05 673.649993 V 34.679999 A 24.73 24.73 0 0 1 33.78 9.95 Z" fill="#fff"/><path d="M 219.610001 659.210022 A 23.139999 23.74 0 0 1 196.470001 682.950022 A 23.139999 23.74 0 0 1 173.330002 659.210022 A 23.139999 23.74 0 0 1 196.470001 635.470022 A 23.139999 23.74 0 0 1 219.610001 659.210022 Z" fill="#dbdbdb"/><path d="M 157.139995 32.5 A 4.63 4.75 0 0 1 152.509995 37.25 A 4.63 4.75 0 0 1 147.879994 32.5 A 4.63 4.75 0 0 1 152.509995 27.75 A 4.63 4.75 0 0 1 157.139995 32.5 Z" fill="#dbdbdb"/><path d="M 174.830002 28.940001 H 243.560005 A 1.5 1.5 0 0 1 245.060005 30.440001 V 34.56 A 1.5 1.5 0 0 1 243.560005 36.06 H 174.830002 A 1.5 1.5 0 0 1 173.330002 34.56 V 30.440001 A 1.5 1.5 0 0 1 174.830002 28.940001 Z" fill="#dbdbdb"/><path d="M -699.727783203125 176.0746307373047 L -699.727783203125 176.0746307373047" style="fill: rgb(0, 123, 255); fill-opacity: 1; stroke: rgb(0, 0, 0); stroke-opacity: 1; stroke-width: 0; paint-order: fill;"/></g><path d="M642.683,454.67371a45.00606,45.00606,0,0,1,88.30268-9.48886c.54524-.01956,1.09-.04147,1.64-.04147a17.66745,17.66745,0,0,1,5.51476.93823c22.387,7.35112,16.49195,40.7751-7.07106,40.7751H673.1604a30.44228,30.44228,0,0,1-30.5093-31.51923Q642.66463,455.0061,642.683,454.67371Z" transform="matrix(0.317512959241867, 0, 0, 0.317512959241867, 992.2922363281249, 545.1192016601561)" fill="#007bff"/><path d="M 462.3970031738281 355.07000732421875 L 462.3970031738281 336.64898681640625 L 452.4779968261719 336.64898681640625 L 452.4779968261719 355.07000732421875 L 444.5589904785156 355.07000732421875 L 450.99798583984375 366.2239990234375 L 457.43798828125 377.37701416015625 L 463.87701416015625 366.2239990234375 L 470.3160095214844 355.07000732421875 L 462.3970031738281 355.07000732421875 Z" fill="#fff" transform="matrix(0.42623811960220337, 0, 0, 0.42623811960220337, 1017.2138671875001, 535.3972778320312)"/><g transform="matrix(0.4741186499595642, 0, 0, 0.4741186499595642, 858.3604736328125, 486.67529296875)"><title>cloud_files</title><path d="M257.07474,533.1599a1.11537,1.11537,0,0,1-.23571-.46222,351.19117,351.19117,0,0,1,478.94006-405.746,1.11976,1.11976,0,1,1-.87626,2.061C612.32539,76.89059,473.23316,98.13255,371.90572,184.44937,271.19684,270.23927,227.9405,403.478,259.01686,532.17137a1.12007,1.12007,0,0,1-1.94212.98853Z" transform="translate(-233.06876 -98.90261)" fill="#e6e6e6"/><path d="M461.79585,773.48566a1.11976,1.11976,0,0,1,1.28506-1.75985C585.19759,822.86767,723.62042,801.34331,824.331,715.552,926.61163,628.42316,970.04606,494.49037,937.6846,366.02043a1.12,1.12,0,0,1,2.17242-.54614,346.59614,346.59614,0,0,1-5.75077,189.35434A353.6721,353.6721,0,0,1,825.78337,717.257a351.07362,351.07362,0,0,1-363.569,56.53446A1.113,1.113,0,0,1,461.79585,773.48566Z" transform="translate(-233.06876 -98.90261)" fill="#e6e6e6"/><path d="M435.91449,793.36365a1.11922,1.11922,0,0,1,.12628-1.57869L965.085,341.11317a1.11987,1.11987,0,1,1,1.45241,1.705L437.49318,793.48994A1.11922,1.11922,0,0,1,435.91449,793.36365Z" transform="translate(-233.06876 -98.90261)" fill="#e6e6e6"/><path d="M233.33628,555.55682a1.11959,1.11959,0,0,1,.12629-1.5787L762.50681,103.30633a1.11988,1.11988,0,0,1,1.45241,1.705L234.915,555.6831A1.11959,1.11959,0,0,1,233.33628,555.55682Z" transform="translate(-233.06876 -98.90261)" fill="#e6e6e6"/><path d="M435.91449,793.36365a1.11922,1.11922,0,0,1,.12628-1.57869L965.085,341.11317a1.11987,1.11987,0,1,1,1.45241,1.705L437.49318,793.48994A1.11922,1.11922,0,0,1,435.91449,793.36365Z" transform="translate(-233.06876 -98.90261)" fill="#e6e6e6"/><path d="M851.60079,284.65378H646.84415v-1.07216a3.14805,3.14805,0,0,0-3.14805-3.14805H557.14758a3.14805,3.14805,0,0,0-3.148,3.14805v1.07216H348.39885A13.85024,13.85024,0,0,0,334.54861,298.504V578.87887a13.85024,13.85024,0,0,0,13.85024,13.85024H851.60073a13.8503,13.8503,0,0,0,13.8503-13.85029V298.504A13.85024,13.85024,0,0,0,851.60079,284.65378Z" transform="translate(-233.06876 -98.90261)" fill="#3f3d56"/><path d="M359.41357,314.13086a1.29773,1.29773,0,0,0-1.29589,1.29639V581.36914a1.29732,1.29732,0,0,0,1.29589,1.2959H840.58594a1.297,1.297,0,0,0,1.2959-1.2959V315.42725a1.29742,1.29742,0,0,0-1.2959-1.29639Z" transform="translate(-233.06876 -98.90261)" fill="#007bff"/><path d="M 371.573283 197.567764 A 5.06425 5.06425 0 0 1 366.509033 202.632014 A 5.06425 5.06425 0 0 1 361.444783 197.567764 A 5.06425 5.06425 0 0 1 366.509033 192.503514 A 5.06425 5.06425 0 0 1 371.573283 197.567764 Z" fill="#007bff"/><path d="M874.67264,573.83276H826.48442v-4.97648c0-.27332-.30819-.49487-.6884-.49487H809.27435c-.38021,0-.68841.22155-.68841.49487v4.97648h-10.326v-4.97648c0-.27332-.3082-.49487-.68841-.49487H781.04982c-.38021,0-.6884.22155-.6884.49487v4.97648H770.03537v-4.97648c0-.27332-.30819-.49487-.6884-.49487H752.8253c-.38021,0-.68841.22155-.68841.49487v4.97648h-10.326v-4.97648c0-.27332-.3082-.49487-.68841-.49487H724.60077c-.38021,0-.6884.22155-.6884.49487v4.97648H713.58632v-4.97648c0-.27332-.30819-.49487-.6884-.49487H696.37625c-.38021,0-.68841.22155-.68841.49487v4.97648h-10.326v-4.97648c0-.27332-.3082-.49487-.68841-.49487H668.15172c-.38021,0-.6884.22155-.6884.49487v4.97648H657.13727v-4.97648c0-.27332-.30819-.49487-.6884-.49487H527.0291c-.38021,0-.68841.22155-.68841.49487v4.97648h-10.326v-4.97648c0-.27332-.3082-.49487-.68841-.49487H498.80457c-.38021,0-.6884.22155-.6884.49487v4.97648H487.79012v-4.97648c0-.27332-.30819-.49487-.6884-.49487H470.58005c-.38021,0-.68841.22155-.68841.49487v4.97648h-10.326v-4.97648c0-.27332-.3082-.49487-.68841-.49487H442.35552c-.38021,0-.6884.22155-.6884.49487v4.97648H431.34107v-4.97648c0-.27332-.30819-.49487-.6884-.49487H414.131c-.38021,0-.68841.22155-.68841.49487v4.97648h-10.326v-4.97648c0-.27332-.3082-.49487-.68841-.49487H385.90647c-.38021,0-.6884.22155-.6884.49487v4.97648H374.892v-4.97648c0-.27332-.30819-.49487-.6884-.49487H357.68195c-.38021,0-.68841.22155-.68841.49487v4.97648H325.327c-9.12466,0-16.52167,5.31743-16.52167,11.8768V591.08c0,6.55934,7.397,11.87677,16.52167,11.87677H874.67264c9.12466,0,16.52167-5.31743,16.52167-11.87677v-5.37041C891.19431,579.15019,883.7973,573.83276,874.67264,573.83276Z" transform="translate(-233.06876 -98.90261)" fill="#3f3d56"/><path d="M543.97808,426.01694H401.75433a1.11987,1.11987,0,1,1,0-2.23974H543.97808a1.11987,1.11987,0,1,1,0,2.23974Z" transform="translate(-233.06876 -98.90261)" fill="#f2f2f2"/><path d="M543.97808,450.65413H401.75433a1.11987,1.11987,0,1,1,0-2.23974H543.97808a1.11987,1.11987,0,1,1,0,2.23974Z" transform="translate(-233.06876 -98.90261)" fill="#f2f2f2"/><path d="M543.97808,475.29132H401.75433a1.11988,1.11988,0,1,1,0-2.23975H543.97808a1.11988,1.11988,0,1,1,0,2.23975Z" transform="translate(-233.06876 -98.90261)" fill="#f2f2f2"/><path d="M 376.421845 262.72168 H 552.241759 A 3.35962 3.35962 0 0 1 555.601379 266.0813 V 435.181975 A 3.35962 3.35962 0 0 1 552.241759 438.541595 H 376.421845 A 3.35962 3.35962 0 0 1 373.062225 435.181975 V 266.0813 A 3.35962 3.35962 0 0 1 376.421845 262.72168 Z" fill="#fff"/><path d="M642.683,454.67371a45.00606,45.00606,0,0,1,88.30268-9.48886c.54524-.01956,1.09-.04147,1.64-.04147a17.66745,17.66745,0,0,1,5.51476.93823c22.387,7.35112,16.49195,40.7751-7.07106,40.7751H673.1604a30.44228,30.44228,0,0,1-30.5093-31.51923Q642.66463,455.0061,642.683,454.67371Z" transform="translate(-233.06876 -98.90261)" fill="#007bff"/><path d="M 462.3970031738281 355.07000732421875 L 462.3970031738281 336.64898681640625 L 452.4779968261719 336.64898681640625 L 452.4779968261719 355.07000732421875 L 444.5589904785156 355.07000732421875 L 450.99798583984375 366.2239990234375 L 457.43798828125 377.37701416015625 L 463.87701416015625 366.2239990234375 L 470.3160095214844 355.07000732421875 L 462.3970031738281 355.07000732421875 Z" fill="#fff"/></g></g></svg>