<svg width="1400" height="980" xmlns="http://www.w3.org/2000/svg">
 <defs>
  <clipPath id="animationMask_By9PvucrHu">
   <path id="svg_1" d="m51.04907,11.04793l340,0l0,280l-340,0l0,-280z"/>
  </clipPath>
 </defs>
 <title>server status</title>
 <g>
  <title>background</title>
  <rect fill="none" id="canvas_background" height="602" width="802" y="-1" x="-1"/>
 </g>
 <g>
  <title>Layer 1</title>
  <path id="svg_2" opacity="0.1" d="m914.13406,598.58186l-1.93871,112.45526s70.18022,0 129.88837,19.38708l1.16526,-113.63578s-95.77015,-22.85742 -129.11492,-18.20656z"/>
  <path id="svg_3" fill="#f5f5fb" d="m913.11637,597.05532l-1.93871,112.45526s70.18022,0 129.88837,19.38708l1.16526,-113.63578s-95.77015,-22.85742 -129.11492,-18.20656z"/>
  <path id="svg_4" opacity="0.1" d="m884.24437,598.49535l1.93871,112.45526s-70.18022,0 -129.88837,19.38708l-1.16526,-113.60525s95.77015,-22.88795 129.11492,-18.23709z"/>
  <path id="svg_5" fill="#f5f5fb" d="m885.26206,596.96881l1.93871,112.45526s-70.18022,0 -129.88837,19.38708l-1.16526,-113.60525s95.77015,-22.88795 129.11492,-18.23709z"/>
  <path id="svg_6" opacity="0.1" d="m1060.18851,632.8222l0,111.27982s22.89813,-2.71216 70.95367,56.60926l4.26923,-111.27982s-50.01969,-53.89202 -75.2229,-56.60926z"/>
  <path id="svg_7" fill="#f5f5fb" d="m1059.17081,631.8045l0,111.27982s22.89813,-2.71216 70.95367,56.60926l4.26923,-111.27982s-50.01969,-53.89202 -75.2229,-56.60926z"/>
  <path id="svg_8" opacity="0.1" d="m739.4366,636.12461l0,111.28491s-22.89813,-2.71216 -70.95367,56.60926l-4.26414,-111.27982s50.0146,-53.89202 75.21781,-56.61435z"/>
  <path id="svg_9" fill="#f5f5fb" d="m740.45429,634.59807l0,111.28491s-22.89813,-2.71216 -70.95367,56.60926l-4.26414,-111.27982s50.0146,-53.89202 75.21781,-56.61435z"/>
  <path id="svg_10" fill="#f7f7fd" d="m997.93104,822.2457c0,3.79091 -24.07357,25.69679 -78.87134,25.69679s-84.46866,-21.14261 -84.46866,-24.93352s30.68858,5.59732 85.48635,5.59732s77.85364,-10.15659 77.85364,-6.36059z"/>
  <path id="svg_11" opacity="0.1" fill="#007bff" d="m824.67364,769.23399a5.83139,0.79889 0 0 1 -5.83139,0.79889a5.83139,0.79889 0 0 1 -5.83139,-0.79889a5.83139,0.79889 0 0 1 5.83139,-0.79889a5.83139,0.79889 0 0 1 5.83139,0.79889z"/>
  <path id="svg_12" opacity="0.1" fill="#007bff" d="m802.34034,771.49837a5.83139,0.79889 0 0 1 -5.83139,0.79889a5.83139,0.79889 0 0 1 -5.83139,-0.79889a5.83139,0.79889 0 0 1 5.83139,-0.79889a5.83139,0.79889 0 0 1 5.83139,0.79889z"/>
  <path id="svg_13" opacity="0.1" fill="#007bff" d="m776.04311,768.43509a5.83139,0.79889 0 0 1 -5.83139,0.79889a5.83139,0.79889 0 0 1 -5.83139,-0.79889a5.83139,0.79889 0 0 1 5.83139,-0.79889a5.83139,0.79889 0 0 1 5.83139,0.79889z"/>
  <path id="svg_14" opacity="0.1" fill="#007bff" d="m809.59142,777.94546a4.14202,0.56991 0 0 1 -4.14202,0.56991a4.14202,0.56991 0 0 1 -4.14202,-0.56991a4.14202,0.56991 0 0 1 4.14202,-0.56991a4.14202,0.56991 0 0 1 4.14202,0.56991z"/>
  <path id="svg_15" opacity="0.1" fill="#007bff" d="m786.41343,777.37555a4.14202,0.56991 0 0 1 -4.14202,0.56991a4.14202,0.56991 0 0 1 -4.14201,-0.56991a4.14202,0.56991 0 0 1 4.14201,-0.56991a4.14202,0.56991 0 0 1 4.14202,0.56991z"/>
  <path id="svg_16" fill="#007bff" d="m796.38679,771.32026s8.17209,-26.80099 -1.2823,-37.53258c-7.07298,-8.02961 -15.11277,-7.08824 -18.6747,-6.07055a6.64555,6.64555 0 0 0 -4.28958,3.56193c-1.25685,2.71216 -1.01769,7.12386 7.84643,12.25304c14.85325,8.59952 15.77427,20.39969 15.77427,20.39969l0.62588,7.38846z"/>
  <path id="svg_17" stroke-miterlimit="10" stroke="#565987" fill="none" d="m777.69174,731.51313s24.09901,7.53603 18.69505,39.80713"/>
  <path id="svg_18" stroke-miterlimit="10" stroke="#565987" fill="none" d="m791.76646,734.21511s-3.31768,2.23384 -2.26437,5.59732"/>
  <path id="svg_19" stroke-miterlimit="10" stroke="#565987" fill="none" d="m780.10876,736.20471s2.03539,-2.06592 4.49312,-0.9261"/>
  <path id="svg_20" stroke-miterlimit="10" stroke="#565987" fill="none" d="m789.65983,746.5801s3.56193,-1.80641 4.48294,0.45796"/>
  <path id="svg_21" stroke-miterlimit="10" stroke="#565987" fill="none" d="m798.44762,750.35066s-2.67654,-0.21372 -2.72233,1.06349"/>
  <path id="svg_22" fill="#007bff" d="m796.71754,771.53398s-9.57651,-19.47868 -12.21234,-19.05124c-1.24668,0.20354 -1.82167,1.42986 -2.08627,2.66636a7.83625,7.83625 0 0 0 0.50885,4.74246c1.37898,3.11415 5.02741,9.04222 13.78976,11.64243z"/>
  <path id="svg_23" stroke-miterlimit="10" stroke="#565987" fill="none" d="m784.57136,756.17696s10.04973,14.57339 11.99353,15.21453"/>
  <path id="svg_24" stroke-miterlimit="10" stroke="#565987" fill="none" d="m783.66056,758.45151l2.34579,0"/>
  <path id="svg_25" stroke-miterlimit="10" stroke="#565987" fill="none" d="m786.4694,763.78424l3.67387,0.15774"/>
  <path id="svg_26" stroke-miterlimit="10" stroke="#565987" fill="none" d="m788.70833,759.52009l-0.40199,1.91327"/>
  <path id="svg_27" stroke-miterlimit="10" stroke="#565987" fill="none" d="m792.61628,765.34639l-0.07125,1.74027"/>
  <path id="svg_28" fill="#007bff" d="m796.43259,771.53398s9.57142,-19.47868 12.21234,-19.05124c1.25176,0.20354 1.82676,1.42986 2.08627,2.66636a7.87187,7.87187 0 0 1 -0.50885,4.74246c-1.37898,3.11415 -5.02741,9.04222 -13.78976,11.64243z"/>
  <path id="svg_29" stroke-miterlimit="10" stroke="#565987" fill="none" d="m808.56351,756.17696s-10.04973,14.57339 -11.98844,15.21453"/>
  <path id="svg_30" stroke-miterlimit="10" stroke="#565987" fill="none" d="m809.48965,758.45151l-2.34579,0"/>
  <path id="svg_31" stroke-miterlimit="10" stroke="#565987" fill="none" d="m806.68081,763.78424l-3.67896,0.15774"/>
  <path id="svg_32" stroke-miterlimit="10" stroke="#565987" fill="none" d="m804.44188,759.52009l0.40199,1.91327"/>
  <path id="svg_33" stroke-miterlimit="10" stroke="#565987" fill="none" d="m800.53394,765.34639l0.07123,1.74027"/>
  <path id="svg_34" fill="#007bff" d="m779.99173,776.08307a1.65884,1.65884 0 0 1 -0.54447,-0.82433a0.72256,0.72256 0 0 1 0.38164,-0.83451c0.34602,-0.13739 0.72256,0.10686 1.01769,0.3511a1.34336,1.34336 0 0 0 0.97699,0.47323a1.49601,1.49601 0 0 1 -0.46305,-1.39424a0.64115,0.64115 0 0 1 0.1323,-0.28495c0.19336,-0.20863 0.54447,-0.11703 0.77854,0.0458c0.73783,0.50885 0.94137,1.52654 0.94646,2.4272a4.35573,4.35573 0 0 0 0,-1.01769a1.01769,1.01769 0 0 1 0.37655,-0.88539a1.14999,1.14999 0 0 1 0.56991,-0.13739a1.1907,1.1907 0 0 1 0.93119,0.2646a0.93628,0.93628 0 0 1 -0.03562,1.14491a3.63826,3.63826 0 0 1 -0.96172,0.76836a2.07101,2.07101 0 0 0 -0.68694,0.65641a0.47832,0.47832 0 0 0 -0.05088,0.11703l-2.08627,0a6.05528,6.05528 0 0 1 -1.2823,-0.87013z"/>
  <path id="svg_35" fill="#007bff" d="m816.47608,768.23664a1.64867,1.64867 0 0 1 -0.54447,-0.81924a0.72765,0.72765 0 0 1 0.38164,-0.8396a1.06858,1.06858 0 0 1 1.01769,0.35619a1.31791,1.31791 0 0 0 0.97699,0.46814a1.49092,1.49092 0 0 1 -0.46305,-1.39424a0.56991,0.56991 0 0 1 0.1323,-0.27987c0.19336,-0.20863 0.54447,-0.12212 0.77854,0.04071c0.73783,0.50885 0.94137,1.52654 0.94646,2.43229a4.39644,4.39644 0 0 0 0,-1.01769a1.01769,1.01769 0 0 1 0.37655,-0.88539a1.09402,1.09402 0 0 1 0.56991,-0.1323a1.17035,1.17035 0 0 1 0.93119,0.2646a0.9261,0.9261 0 0 1 -0.03562,1.13982a3.63826,3.63826 0 0 1 -0.96172,0.76836a2.12189,2.12189 0 0 0 -0.68694,0.65641a0.47832,0.47832 0 0 0 -0.05088,0.11703l-2.08627,0a5.8721,5.8721 0 0 1 -1.2823,-0.87522z"/>
  <path id="svg_36" fill="#007bff" d="m804.31463,776.08307a1.65884,1.65884 0 0 1 -0.54447,-0.82433a0.72765,0.72765 0 0 1 0.38164,-0.83451c0.3511,-0.13739 0.72256,0.10686 1.01769,0.3511a1.34845,1.34845 0 0 0 0.97699,0.47323a1.49092,1.49092 0 0 1 -0.45796,-1.39424a0.58009,0.58009 0 0 1 0.12721,-0.28495c0.19336,-0.20863 0.54447,-0.11703 0.77854,0.0458c0.73783,0.50885 0.94646,1.52654 0.95154,2.4272a4.66613,4.66613 0 0 0 0,-1.01769a1.01769,1.01769 0 0 1 0.37655,-0.88539a1.52654,1.52654 0 0 1 1.5011,0.12721a0.9261,0.9261 0 0 1 -0.03562,1.14491a3.56193,3.56193 0 0 1 -0.96172,0.76836a2.16769,2.16769 0 0 0 -0.68694,0.65641a0.81416,0.81416 0 0 0 -0.05088,0.11703l-2.08119,0a5.9586,5.9586 0 0 1 -1.29247,-0.87013z"/>
  <path id="svg_37" fill="#007bff" d="m769.81478,760.22739s-0.77854,1.01769 0.36128,2.54424s2.08627,2.84446 1.70464,3.80618c0,0 -1.72499,-2.86481 -3.12432,-2.90552s-0.46814,-1.72499 1.0584,-3.4449z"/>
  <path id="svg_38" opacity="0.1" d="m769.81478,760.22739a1.20088,1.20088 0 0 0 -0.15774,0.32057c-1.3688,1.60287 -2.09645,3.10397 -0.78362,3.13959c1.22632,0.03562 2.69689,2.22875 3.05308,2.77831a0.93119,0.93119 0 0 1 -0.04071,0.12721s-1.72499,-2.86481 -3.12432,-2.90552s-0.47323,-1.74026 1.05331,-3.46016z"/>
  <path id="svg_39" fill="#ffd037" d="m768.37983,761.52495c0,0.36128 0.04071,0.65132 0.09159,0.65132s0.0865,-0.29004 0.0865,-0.65132s-0.0458,-0.18827 -0.09668,-0.18827s-0.08142,-0.16792 -0.08142,0.18827z"/>
  <path id="svg_40" fill="#ffd037" d="m767.88116,761.95747c0.31549,0.17301 0.59026,0.27478 0.61571,0.22898s-0.21372,-0.2188 -0.50885,-0.38672s-0.19336,-0.05088 -0.21372,0s-0.20863,0.01018 0.10686,0.15774z"/>
  <path id="svg_41" fill="#007bff" d="m773.9568,760.22739s0.78362,1.01769 -0.36128,2.54424s-2.08119,2.84446 -1.69955,3.80618c0,0 1.7199,-2.86481 3.12432,-2.90552s0.47832,-1.72499 -1.06349,-3.4449z"/>
  <path id="svg_42" opacity="0.1" d="m773.9568,760.22739a1.20088,1.20088 0 0 1 0.15774,0.32057c1.3688,1.60287 2.09645,3.10397 0.78362,3.13959c-1.22632,0.03562 -2.6918,2.22875 -3.05308,2.77831a0.93119,0.93119 0 0 0 0.04071,0.12721s1.7199,-2.86481 3.12432,-2.90552s0.48849,-1.74026 -1.05331,-3.46016z"/>
  <path id="svg_43" fill="#ffd037" d="m775.4121,761.52495c0,0.36128 -0.03562,0.65132 -0.0865,0.65132s-0.09159,-0.29004 -0.09159,-0.65132s0.05088,-0.18827 0.10177,-0.18827s0.07633,-0.16792 0.07633,0.18827z"/>
  <path id="svg_44" fill="#ffd037" d="m775.92095,761.95747c-0.31549,0.17301 -0.59026,0.27478 -0.61062,0.22898s0.20863,-0.2188 0.50885,-0.38672s0.19336,-0.05088 0.2188,0s0.18319,0.01018 -0.11703,0.15774z"/>
  <path id="svg_45" fill="#a8a8a8" d="m775.16277,766.46077s-2.18804,-0.06615 -2.84446,-0.53429s-3.35839,-1.01769 -3.52122,-0.27987s-3.28207,3.74003 -0.81924,3.76038s5.72962,-0.38672 6.38603,-0.78362s0.79889,-2.1626 0.79889,-2.1626z"/>
  <path id="svg_46" opacity="0.2" d="m767.93714,769.14239c2.46282,0 5.72962,-0.38164 6.38603,-0.78362c0.50885,-0.30531 0.69712,-1.39933 0.76327,-1.90309l0.07633,0s-0.14248,1.76061 -0.79889,2.1626s-3.91812,0.80398 -6.38603,0.78362c-0.7073,0 -0.95663,-0.25951 -0.94137,-0.63606c0.09668,0.23407 0.37146,0.37146 0.90066,0.37655z"/>
  <path id="svg_47" opacity="0.1" fill="#007bff" d="m824.31746,857.45285a17.66718,2.61039 0 0 1 -17.66718,2.61039a17.66718,2.61039 0 0 1 -17.66718,-2.61039a17.66718,2.61039 0 0 1 17.66718,-2.61039a17.66718,2.61039 0 0 1 17.66718,2.61039z"/>
  <path id="svg_48" opacity="0.1" fill="#007bff" d="m919.57877,876.00034a11.6984,1.30774 0 0 1 -11.6984,1.30774a11.6984,1.30774 0 0 1 -11.6984,-1.30774a11.6984,1.30774 0 0 1 11.6984,-1.30774a11.6984,1.30774 0 0 1 11.6984,1.30774z"/>
  <path id="svg_49" opacity="0.1" fill="#007bff" d="m995.90079,908.05772a11.6984,1.30774 0 0 1 -11.6984,1.30774a11.6984,1.30774 0 0 1 -11.6984,-1.30774a11.6984,1.30774 0 0 1 11.6984,-1.30774a11.6984,1.30774 0 0 1 11.6984,1.30774z"/>
  <path id="svg_50" opacity="0.1" fill="#007bff" d="m894.92512,899.42766a11.6984,1.30774 0 0 1 -11.69839,1.30773a11.6984,1.30774 0 0 1 -11.69841,-1.30773a11.6984,1.30774 0 0 1 11.69841,-1.30774a11.6984,1.30774 0 0 1 11.69839,1.30774z"/>
  <path id="svg_51" opacity="0.1" fill="#007bff" d="m800.29478,896.03365a11.6984,1.30774 0 0 1 -11.6984,1.30774a11.6984,1.30774 0 0 1 -11.6984,-1.30774a11.6984,1.30774 0 0 1 11.6984,-1.30774a11.6984,1.30774 0 0 1 11.6984,1.30774z"/>
  <path id="svg_52" opacity="0.1" fill="#007bff" d="m775.63604,919.46097a11.6984,1.30774 0 0 1 -11.6984,1.30774a11.6984,1.30774 0 0 1 -11.6984,-1.30774a11.6984,1.30774 0 0 1 11.6984,-1.30774a11.6984,1.30774 0 0 1 11.6984,1.30774z"/>
  <g id="svg_53" transform="matrix(0.5088473227004897,0,0,0.5088473227004897,479.31879733820097,544.5825263960869) " opacity="0.1">
   <path id="svg_54" d="m1012.05032,315.4909a152.11999,67.89 0 0 1 -152.11999,67.89a152.11999,67.89 0 0 1 -152.12,-67.89a152.11999,67.89 0 0 1 152.12,-67.89a152.11999,67.89 0 0 1 152.11999,67.89z"/>
   <path id="svg_55" d="m1014.69034,339.7609c-6.73,35.4 -73.23,63.19 -154.29,63.19c-81.77,0 -148.73,-28.28 -154.47,-64.11l-0.57,0l0,57.69c26.74,27.94 85.94,47.37 154.66,47.37s127.92,-19.43 154.67,-47.37l0,-56.77z"/>
   <path id="svg_56" d="m1014.69034,409.9609c-6.73,35.39 -73.23,63.19 -154.29,63.19c-81.77,0 -148.73,-28.28 -154.47,-64.12l-0.57,0l0,57.7c26.74,27.94 85.94,47.36 154.66,47.36s127.92,-19.42 154.67,-47.36l0,-56.77z"/>
   <path id="svg_57" d="m1014.69034,487.1709c-6.73,35.4 -73.23,63.19 -154.29,63.19c-81.77,0 -148.73,-28.27 -154.47,-64.11l-0.57,0l0,62.22a9.59,9.59 0 0 0 3.08,7.06c28,25.71 85.39,35.78 151.58,35.78s123.55,-10.07 151.59,-35.78a9.59,9.59 0 0 0 3.08,-7.06l0,-61.3z"/>
  </g>
  <path id="svg_58" fill="#007bff" d="m994.2979,703.08384a77.40585,34.54564 0 0 1 -77.40585,34.54564a77.40585,34.54564 0 0 1 -77.40585,-34.54564a77.40585,34.54564 0 0 1 77.40585,-34.54564a77.40585,34.54564 0 0 1 77.40585,34.54564z"/>
  <path id="svg_59" fill="#007bff" d="m995.64123,715.43356c-3.42454,18.0132 -37.26289,32.15406 -78.51005,32.15406c-41.60845,0 -75.68086,-14.3902 -78.60165,-32.6222l-0.29004,0l0,29.3554c13.60658,14.21719 43.73034,24.1041 78.69833,24.1041s65.09175,-9.8869 78.70342,-24.1041l0,-28.88726z"/>
  <path id="svg_60" fill="#007bff" d="m995.64123,751.15464c-3.42454,18.00811 -37.26289,32.15406 -78.51005,32.15406c-41.60845,0 -75.68086,-14.3902 -78.60165,-32.62729l-0.29004,0l0,29.36049c13.60658,14.21719 43.73034,24.09901 78.69833,24.09901s65.09175,-9.88182 78.70342,-24.09901l0,-28.88726z"/>
  <path id="svg_61" fill="#007bff" d="m995.64123,790.44274c-3.42454,18.0132 -37.26289,32.15406 -78.51005,32.15406c-41.60845,0 -75.68086,-14.38511 -78.60165,-32.6222l-0.29004,0l0,31.66048a4.87985,4.87985 0 0 0 1.56725,3.59246c14.24773,13.08246 43.45047,18.20656 77.13108,18.20656s62.86809,-5.12409 77.13617,-18.20656a4.87985,4.87985 0 0 0 1.56725,-3.59246l0,-31.19234z"/>
  <path id="svg_62" opacity="0.1" d="m1020.16767,873.87844l6.14179,0.59535l8.5181,-1.9845l2.57477,-2.57477l-0.20863,-0.62588l-2.36614,1.81658s-4.36082,2.37632 -6.53869,1.97942l-6.14688,0l1.1907,-1.58252l-1.06858,-1.64867a2.54424,2.54424 0 0 0 -1.01769,0.61571a2.59512,2.59512 0 0 0 -0.70221,1.23141l-0.37655,2.17787z"/>
  <path id="svg_63" opacity="0.1" fill="#007bff" d="m684.91874,594.25666a11.00637,11.00637 0 0 1 -11.00637,11.00637a11.00637,11.00637 0 0 1 -11.00637,-11.00637a11.00637,11.00637 0 0 1 11.00637,-11.00637a11.00637,11.00637 0 0 1 11.00637,11.00637z"/>
  <path id="svg_64" opacity="0.1" fill="#007bff" d="m1158.14674,625.80519a11.00637,11.00637 0 0 1 -11.00637,11.00637a11.00637,11.00637 0 0 1 -11.00637,-11.00637a11.00637,11.00637 0 0 1 11.00637,-11.00637a11.00637,11.00637 0 0 1 11.00637,11.00637z"/>
  <path id="svg_65" opacity="0.1" fill="#007bff" d="m674.27365,637.2797a8.14156,8.14156 0 0 1 -8.14156,8.14156a8.14156,8.14156 0 0 1 -8.14156,-8.14156a8.14156,8.14156 0 0 1 8.14156,-8.14156a8.14156,8.14156 0 0 1 8.14156,8.14156z"/>
  <path id="svg_66" opacity="0.1" fill="#007bff" d="m756.70692,591.48344a8.14156,8.14156 0 0 1 -8.14156,8.14156a8.14156,8.14156 0 0 1 -8.14156,-8.14156a8.14156,8.14156 0 0 1 8.14156,-8.14156a8.14156,8.14156 0 0 1 8.14156,8.14156z"/>
  <path id="svg_67" opacity="0.1" fill="#007bff" d="m1090.51076,592.50114a8.14156,8.14156 0 0 1 -8.14156,8.14156a8.14156,8.14156 0 0 1 -8.14156,-8.14156a8.14156,8.14156 0 0 1 8.14156,-8.14156a8.14156,8.14156 0 0 1 8.14156,8.14156z"/>
  <path id="svg_68" fill="#ffd037" d="m1114.45708,915.5683c0,0.93628 -0.10686,1.69955 -0.23407,1.69955s-0.23407,-0.76327 -0.23407,-1.69955s0.1323,-0.50885 0.25951,-0.50885s0.20863,-0.43252 0.20863,0.50885z"/>
  <path id="svg_69" fill="#ffd037" d="m1115.75972,916.68776c-0.82433,0.44779 -1.52654,0.71747 -1.60796,0.60553s0.55973,-0.56991 1.37898,-1.01769s0.50885,-0.12212 0.56482,0s0.48849,-0.03562 -0.33584,0.41217z"/>
  <path id="svg_70" fill="#ffd037" d="m1096.11313,915.5683c0,0.93628 0.10686,1.69955 0.23916,1.69955s0.23407,-0.76327 0.23407,-1.69955s-0.1323,-0.50885 -0.2646,-0.50885s-0.20863,-0.43252 -0.20863,0.50885z"/>
  <path id="svg_71" fill="#ffd037" d="m1094.81557,916.68776c0.82433,0.44779 1.52654,0.71747 1.60287,0.60553s-0.55464,-0.56991 -1.37898,-1.01769s-0.50885,-0.12212 -0.55973,0s-0.48849,-0.03562 0.33584,0.41217z"/>
  <path id="svg_72" opacity="0.7" fill="#3acc6c" d="m819.01523,647.34979a10.68579,10.68579 0 1 0 10.68579,10.68579a10.68579,10.68579 0 0 0 -10.68579,-10.68579zm0,2.07101a8.6504,8.6504 0 1 1 -8.6504,8.6504a8.6504,8.6504 0 0 1 8.6504,-8.6504m6.05019,5.62276l-0.9719,-0.98208a0.50885,0.50885 0 0 0 -0.73274,0l-6.10617,6.05019l-2.57477,-2.61548a0.50885,0.50885 0 0 0 -0.73274,0l-0.97699,0.9719a0.50885,0.50885 0 0 0 0,0.73274l3.91812,3.94866a0.50885,0.50885 0 0 0 0.73274,0l7.44444,-7.38846a0.50885,0.50885 0 0 0 0,-0.73274l0,0.01527z"/>
  <path id="svg_73" opacity="0.7" fill="#3acc6c" d="m700.71841,701.45043a10.68579,10.68579 0 1 0 12.83313,8.01943a10.68579,10.68579 0 0 0 -12.83313,-8.01943zm0.46814,2.03539a8.6504,8.6504 0 1 1 -6.46745,10.34995a8.6504,8.6504 0 0 1 6.46745,-10.34995m7.15948,4.12166l-1.17035,-0.75309a0.50885,0.50885 0 0 0 -0.71239,0.16283l-4.57963,7.26634l-3.09888,-1.95906a0.50885,0.50885 0 0 0 -0.71239,0.16283l-0.73783,1.17035a0.50885,0.50885 0 0 0 0.16283,0.71239l4.70175,2.96658a0.50885,0.50885 0 0 0 0.71747,-0.16283l5.59732,-8.86921a0.50885,0.50885 0 0 0 -0.15774,-0.71239l-0.01018,0.01527z"/>
  <path id="svg_74" opacity="0.7" fill="#3acc6c" d="m974.75813,648.89668a10.68579,10.68579 0 1 0 10.68579,10.68579a10.68579,10.68579 0 0 0 -10.68579,-10.68579zm0,2.07101a8.6504,8.6504 0 1 1 -8.6504,8.6504a8.6504,8.6504 0 0 1 8.6504,-8.6504m6.05019,5.62276l-0.9719,-0.98208a0.50885,0.50885 0 0 0 -0.73274,0l-6.10617,6.05019l-2.57986,-2.60021a0.50885,0.50885 0 0 0 -0.73274,0l-0.9719,0.98208a0.50885,0.50885 0 0 0 0,0.73274l3.91812,3.94866a0.50885,0.50885 0 0 0 0.73274,0l7.44444,-7.38846a0.50885,0.50885 0 0 0 0,-0.73274l0,-0.01018z"/>
  <path id="svg_75" opacity="0.7" fill="#3acc6c" d="m1097.35472,701.66924a10.68579,10.68579 0 1 0 9.82584,11.49486a10.68579,10.68579 0 0 0 -9.82584,-11.49486zm-0.16283,2.06083a8.6504,8.6504 0 1 1 -9.2712,7.93802a8.62496,8.62496 0 0 1 9.2712,-7.93802m5.59732,6.07564l-0.89557,-1.05331a0.50885,0.50885 0 0 0 -0.72765,-0.06106l-6.54887,5.5617l-2.37123,-2.79357a0.50885,0.50885 0 0 0 -0.73274,-0.06106l-1.05331,0.89557a0.50885,0.50885 0 0 0 -0.05597,0.72765l3.59755,4.2387a0.50885,0.50885 0 0 0 0.72765,0.06106l7.99908,-6.78802a0.50885,0.50885 0 0 0 0.06106,-0.72765z"/>
  <g id="svg_76" transform="matrix(3.5000000000000004,0,0,3.5000000000000004,-230.75478798792403,-77.57093643042938) ">
   <g id="svg_77" clip-path="url(#animationMask_By9PvucrHu)">
    <g id="svg_78">
     <g id="svg_79" opacity="0.1" transform="matrix(1.3633179664611816,0,0,1.3633179664611816,-33.448509216308594,-92.16796875) ">
      <g id="svg_80" transform="matrix(1,0,0,1,187.664,257.048) ">
       <path id="svg_81" d="m37.44473,8.10371m95.6,0c0,1.857 -42.802,3.364 -95.601,3.364c-52.797,0 -95.599,-1.507 -95.599,-3.364c0,-1.858 42.802,-3.364 95.599,-3.364c52.799,0 95.601,1.506 95.601,3.364z" fill="rgb(0,0,0)"/>
      </g>
     </g>
     <g id="svg_82" transform="matrix(0.4000000059604645,0,0,0.4000000059604645,79.4000015258789,35.099998474121094) ">
      <g id="svg_83" transform="matrix(1,0,0,1,199.199,255.5) ">
       <path id="svg_84" d="m127.62267,27.61983m-7200.199,-7129.5c0,0 14400,0 14400,0c0,0 0,14400 0,14400c0,0 -14400,0 -14400,0c0,0 0,-14400 0,-14400zm7200.199,7129.5m-7200.199,7270.5c0,0 14400,0 14400,0c0,0 0,-14400 0,-14400c0,0 -14400,0 -14400,0c0,0 0,14400 0,14400zm7200.199,-7270.5m-197.699,-197.907c0,0 0,102.768 0,102.768c0,31.918 -0.489,63.657 4.883,95.245c6.141,36.103 18.494,70.884 35.407,103.321c34.63,66.414 89.265,120.024 157.598,151.021c68.336,-30.997 122.966,-84.607 157.596,-151.021c16.912,-32.437 28.889,-67.218 35.03,-103.321c5.373,-31.588 4.486,-63.327 4.486,-95.245c0,0 0,-102.768 0,-102.768c0,0 -197.501,-56.541 -197.501,-56.541c0,0 -197.499,56.541 -197.499,56.541z" fill="#007bff"/>
       <g id="svg_85"/>
      </g>
     </g>
     <g id="svg_86" transform="matrix(0.7199999690055847,0,0,0.7199999690055847,-555.5,-221.83999633789062) ">
      <g id="svg_87" transform="matrix(1.01092,0,0,1.00025,992.5,492.487) ">
       <path id="svg_88" d="m70.1356,15.34052m-27,16.355c0,0 0.25,-55.067 0.25,-55.067c0,-15.592 11.501,-28.275 26.874,-28.275c15.373,0 26.876,12.683 26.876,28.275c0,0 -0.25,55.067 -0.25,55.067" stroke-width="15" stroke="rgb(255,255,255)" stroke-miterlimit="4" fill-opacity="0"/>
      </g>
     </g>
     <g id="svg_89" transform="matrix(0.7199999690055847,0,0,0.7199999690055847,-555.5,-227.60000610351562) ">
      <g id="svg_90" transform="matrix(1,0,0,1,992.5,491.987) ">
       <path id="svg_91" d="m70.90149,15.34435m42.695,-11.987c0,0 -85.258,0 -85.258,0c-4.69,0 -8.937,3.966 -8.937,8.654c0,0 0,68.205 0,68.205c0,4.689 4.247,8.141 8.937,8.141c0,0 85.258,0 85.258,0c4.689,0 8.805,-3.452 8.805,-8.141c0,0 0,-68.206 0,-68.206c0,-4.687 -4.116,-8.653 -8.805,-8.653z" fill="rgb(254,254,255)"/>
      </g>
      <g id="svg_92" transform="matrix(1,0,0,1,992.5,491.987) ">
       <path id="svg_93" d="m70.90149,15.34435m5.5,34.361c0,0 0,14.652 0,14.652c0,0 -11,0 -11,0c0,0 0,-14.652 0,-14.652c-5,-2.123 -8.429,-7.068 -8.429,-12.831c0,-7.698 6.269,-13.939 13.967,-13.939c7.698,0 13.943,6.241 13.943,13.939c0,5.763 -3.481,10.708 -8.481,12.831z" fill="rgb(52,102,183)"/>
      </g>
     </g>
    </g>
    <g id="svg_94" transform="matrix(1,0,0,1,236.2279968261719,204.3840026855469) ">
     <g id="svg_95"/>
    </g>
   </g>
  </g>
  <path id="svg_96" fill=" rgb(245, 245, 251)" d="m974.53984,439.30116"/>
 </g>
</svg>