<?xml version="1.0" encoding="utf-8"?>
<svg id="master-artboard" viewBox="0 0 1400 980" version="1.1" xmlns="http://www.w3.org/2000/svg" x="0px" y="0px" style="enable-background:new 0 0 1400 980;" width="1400px" height="980px"><g transform="matrix(1.3474788942400369, 0, 0, 1.3474788942400369, 18.922339799470706, 5.684341886080802e-14)"><title>unlock</title><path d="M632.0806,115.488v648.2a29.13909,29.13909,0,0,1-29.13,29.11h-263.15a29.07906,29.07906,0,0,1-29.13-29.11v-648.2a29.12748,29.12748,0,0,1,29.13-29.13h39.38v5.05a23.987,23.987,0,0,0,23.98,23.99h133.84a23.78923,23.78923,0,0,0,14.22-4.68,22.28455,22.28455,0,0,0,2.36-1.98,23.917,23.917,0,0,0,7.4-17.33v-5.05h41.97A29.12108,29.12108,0,0,1,632.0806,115.488Z" transform="matrix(1, 0, 0, 1, -277.45821318482876, -75.49235341958745)" fill="#3f3d56"/><path d="M 296.426453 108 A 7 7 0 0 1 289.426453 115 A 7 7 0 0 1 282.426453 108 A 7 7 0 0 1 289.426453 101 A 7 7 0 0 1 296.426453 108 Z" fill="#f2f2f2" transform="matrix(1, 0, 0, 1, -182.9040521130516, 10.86558725424068)"/><path d="M553.5806,108.738a22.28455,22.28455,0,0,1-2.36,1.98,125.247,125.247,0,0,0,80.86,60.19v-3.12A122.29883,122.29883,0,0,1,553.5806,108.738Z" transform="matrix(1, 0, 0, 1, -277.45821318482876, -75.49235341958745)" fill="#007bff"/><path d="M493.7706,115.39792h-3.28a181.66827,181.66827,0,0,0,141.59,113.05v-3.1A178.54983,178.54983,0,0,1,493.7706,115.39792Z" transform="matrix(1, 0, 0, 1, -277.45821318482876, -75.49235341958745)" fill="#007bff"/><path d="M433.35062,115.39792h-3.16c26.43,91.74,106.18,160.03,201.89,171.12v-3.05C538.03061,272.428,459.65061,205.4379,433.35062,115.39792Z" transform="matrix(1, 0, 0, 1, -277.45821318482876, -75.49235341958745)" fill="#007bff"/><path d="M 266.4259948730469 159.82200622558594 L 264.60400390625 159.82200622558594 L 264.60400390625 158 L 264.2489929199219 158 L 264.2489929199219 159.82200622558594 L 262.4259948730469 159.82200622558594 L 262.4259948730469 160.17799377441406 L 264.2489929199219 160.17799377441406 L 264.2489929199219 162 L 264.60400390625 162 L 264.60400390625 160.17799377441406 L 266.4259948730469 160.17799377441406 L 266.4259948730469 159.82200622558594 Z" fill="#f2f2f2" transform="matrix(1, 0, 0, 1, -182.9040521130516, 10.86558725424068)"/><path d="M 389.4259948730469 68.8219985961914 L 387.60400390625 68.8219985961914 L 387.60400390625 67 L 387.2489929199219 67 L 387.2489929199219 68.8219985961914 L 385.4259948730469 68.8219985961914 L 385.4259948730469 69.1780014038086 L 387.2489929199219 69.1780014038086 L 387.2489929199219 71 L 387.60400390625 71 L 387.60400390625 69.1780014038086 L 389.4259948730469 69.1780014038086 L 389.4259948730469 68.8219985961914 Z" fill="#f2f2f2" transform="matrix(1, 0, 0, 1, -182.9040521130516, 10.86558725424068)"/><path d="M 284.4259948730469 231.82200622558594 L 282.60400390625 231.82200622558594 L 282.60400390625 230 L 282.2489929199219 230 L 282.2489929199219 231.82200622558594 L 280.4259948730469 231.82200622558594 L 280.4259948730469 232.17799377441406 L 282.2489929199219 232.17799377441406 L 282.2489929199219 234 L 282.60400390625 234 L 282.60400390625 232.17799377441406 L 284.4259948730469 232.17799377441406 L 284.4259948730469 231.82200622558594 Z" fill="#f2f2f2" transform="matrix(1, 0, 0, 1, -182.9040521130516, 10.86558725424068)"/><path d="M 368.4259948730469 178.82200622558594 L 366.60400390625 178.82200622558594 L 366.60400390625 177 L 366.2489929199219 177 L 366.2489929199219 178.82200622558594 L 364.4259948730469 178.82200622558594 L 364.4259948730469 179.17799377441406 L 366.2489929199219 179.17799377441406 L 366.2489929199219 181 L 366.60400390625 181 L 366.60400390625 179.17799377441406 L 368.4259948730469 179.17799377441406 L 368.4259948730469 178.82200622558594 Z" fill="#f2f2f2" transform="matrix(1, 0, 0, 1, -182.9040521130516, 10.86558725424068)"/><path d="M 488.4259948730469 211.82200622558594 L 486.60400390625 211.82200622558594 L 486.60400390625 210 L 486.2489929199219 210 L 486.2489929199219 211.82200622558594 L 484.4259948730469 211.82200622558594 L 484.4259948730469 212.17799377441406 L 486.2489929199219 212.17799377441406 L 486.2489929199219 214 L 486.60400390625 214 L 486.60400390625 212.17799377441406 L 488.4259948730469 212.17799377441406 L 488.4259948730469 211.82200622558594 Z" fill="#f2f2f2" transform="matrix(1, 0, 0, 1, -182.9040521130516, 10.86558725424068)"/><path d="M418.68064,305.15793l-2.27.35c.71,4.54,1.27,9.18,1.68,13.77l2.29-.2C419.97061,314.428,419.40061,309.748,418.68064,305.15793Z" transform="matrix(1, 0, 0, 1, -277.45821318482876, -75.49235341958745)" fill="#e6e6e6"/><path d="M412.47061,277.8179l-2.2.67005c1.33,4.4,2.52,8.91,3.53,13.4l2.25-.51C415.0206,286.83792,413.81064,282.27792,412.47061,277.8179Z" transform="matrix(1, 0, 0, 1, -277.45821318482876, -75.49235341958745)" fill="#e6e6e6"/><path d="M402.56064,251.59793l-2.09.96c1.92,4.19,3.72,8.49,5.35,12.79l2.15-.81C406.32065,260.1879,404.51065,255.82791,402.56064,251.59793Z" transform="matrix(1, 0, 0, 1, -277.45821318482876, -75.49235341958745)" fill="#e6e6e6"/><path d="M389.16062,227.01792l-1.94,1.23c2.47,3.87994,4.84,7.9,7.04,11.93l2.02-1.1C394.06064,234.998,391.66062,230.9379,389.16062,227.01792Z" transform="matrix(1, 0, 0, 1, -277.45821318482876, -75.49235341958745)" fill="#e6e6e6"/><path d="M372.50064,204.488l-1.75,1.49c2.98,3.5,5.88,7.16,8.62,10.86l1.84-1.37C378.45059,211.72794,375.5206,208.02792,372.50064,204.488Z" transform="matrix(1, 0, 0, 1, -277.45821318482876, -75.49235341958745)" fill="#e6e6e6"/><path d="M352.92063,184.428l-1.53,1.71c3.44,3.07,6.81,6.3,10.02,9.59l1.65-1.61C359.81064,190.78793,356.40061,187.52792,352.92063,184.428Z" transform="matrix(1, 0, 0, 1, -277.45821318482876, -75.49235341958745)" fill="#e6e6e6"/><path d="M330.80063,167.20792l-1.29,1.9c3.82,2.57,7.6,5.31,11.23,8.14l1.42-1.81006C338.48062,172.57791,334.66062,169.808,330.80063,167.20792Z" transform="matrix(1, 0, 0, 1, -277.45821318482876, -75.49235341958745)" fill="#e6e6e6"/><path d="M310.67063,155.248v2.6c2.39,1.25,4.76,2.56,7.08,3.9l1.15-1.99Q314.85058,157.41791,310.67063,155.248Z" transform="matrix(1, 0, 0, 1, -277.45821318482876, -75.49235341958745)" fill="#e6e6e6"/><path d="M418.16091,521.16082c.373-2.236.71425-4.5192,1.01475-6.78518l2.27933.30227c-.30389,2.29157-.649,4.5992-1.02589,6.86071Z" transform="matrix(1, 0, 0, 1, -277.45821318482876, -75.49235341958745)" fill="#e6e6e6"/><path d="M411.75189,548.14021l2.19741.68431c1.37871-4.44384,2.62647-8.99608,3.70743-13.53149l-2.23928-.52959C414.34645,539.24986,413.12052,543.74533,411.75189,548.14021Z" transform="matrix(1, 0, 0, 1, -277.45821318482876, -75.49235341958745)" fill="#e6e6e6"/><path d="M401.71048,573.97176l2.0863.978c1.98369-4.2078,3.84038-8.54363,5.52458-12.88411l-2.14578-.83709C405.51127,565.52206,403.67434,569.81092,401.71048,573.97176Z" transform="matrix(1, 0, 0, 1, -277.45821318482876, -75.49235341958745)" fill="#e6e6e6"/><path d="M388.199,598.20534l1.92823,1.25186c2.54321-3.89939,4.983-7.94236,7.25441-12.00964l-2.00526-1.12476C393.13462,590.34512,390.71455,594.3411,388.199,598.20534Z" transform="matrix(1, 0, 0, 1, -277.45821318482876, -75.49235341958745)" fill="#e6e6e6"/><path d="M371.48232,620.34395l1.74272,1.51c3.05929-3.52841,6.02513-7.19843,8.83619-10.91033l-1.84138-1.377C377.44823,613.23551,374.512,616.86051,371.48232,620.34395Z" transform="matrix(1, 0, 0, 1, -277.45821318482876, -75.49235341958745)" fill="#e6e6e6"/><path d="M351.90747,639.98907l1.51427,1.72861c3.51621-3.06749,6.95467-6.304,10.24042-9.59211l-1.62648-1.629C358.78733,633.75148,355.37844,636.943,351.90747,639.98907Z" transform="matrix(1, 0, 0, 1, -277.45821318482876, -75.49235341958745)" fill="#e6e6e6"/><path d="M329.85451,656.77957l1.27021,1.92364c3.88265-2.56378,7.73865-5.29636,11.43808-8.112l-1.39026-1.83593C337.50854,651.54757,333.69978,654.249,329.85451,656.77957Z" transform="matrix(1, 0, 0, 1, -277.45821318482876, -75.49235341958745)" fill="#e6e6e6"/><path d="M319.16062,666.00791c-2.78,1.57-5.62,3.09-8.49,4.53v-2.58c2.48-1.26,4.94-2.59,7.35-3.94Z" transform="matrix(1, 0, 0, 1, -277.45821318482876, -75.49235341958745)" fill="#e6e6e6"/><path d="M418.83559,333.46366l2.29863-.04178c.04223,2.3211.04537,4.6545.00942,6.93606l-2.29844-.03589C418.88015,338.06645,418.87714,335.75892,418.83559,333.46366Z" transform="matrix(1, 0, 0, 1, -277.45821318482876, -75.49235341958745)" fill="#e6e6e6"/><path d="M226.21644,301.63184H461.42653a65.99993,65.99993,0,0,1,65.99993,65.99993v8.73639a0,0,0,0,1,0,0H292.21638a65.99993,65.99993,0,0,1-65.99993-65.99993v-8.73639A0,0,0,0,1,226.21644,301.63184Z" fill="#fff" transform="matrix(1, 0, 0, 1, -182.9040521130516, 10.86558725424068)"/><path d="M476.87034,791.87943c-.22949-.375-5.64063-9.41016-7.5166-28.17188-1.72071-17.21289-.61426-46.22656,14.43261-86.69824,28.50586-76.6709-6.56933-138.5332-6.92773-139.14941l1.73047-1.00391c.09082.15625,9.1416,15.92871,14.48828,41.04394a179.06112,179.06112,0,0,1-7.416,99.80664c-28.457,76.54-7.30078,112.77344-7.084,113.13086Z" transform="matrix(1, 0, 0, 1, -277.45821318482876, -75.49235341958745)" fill="#f2f2f2"/><path d="M 384.169708 434 A 13 13 0 0 1 371.169708 447 A 13 13 0 0 1 358.169708 434 A 13 13 0 0 1 371.169708 421 A 13 13 0 0 1 384.169708 434 Z" fill="#007bff" transform="matrix(1, 0, 0, 1, -182.9040521130516, 10.86558725424068)"/><path d="M 425.169708 482 A 13 13 0 0 1 412.169708 495 A 13 13 0 0 1 399.169708 482 A 13 13 0 0 1 412.169708 469 A 13 13 0 0 1 425.169708 482 Z" fill="#f2f2f2" transform="matrix(1, 0, 0, 1, -182.9040521130516, 10.86558725424068)"/><path d="M 397.169708 514 A 13 13 0 0 1 384.169708 527 A 13 13 0 0 1 371.169708 514 A 13 13 0 0 1 384.169708 501 A 13 13 0 0 1 397.169708 514 Z" fill="#007bff" transform="matrix(1, 0, 0, 1, -182.9040521130516, 10.86558725424068)"/><path d="M 431.169708 541 A 13 13 0 0 1 418.169708 554 A 13 13 0 0 1 405.169708 541 A 13 13 0 0 1 418.169708 528 A 13 13 0 0 1 431.169708 541 Z" fill="#007bff" transform="matrix(1, 0, 0, 1, -182.9040521130516, 10.86558725424068)"/><path d="M 387.169708 583 A 13 13 0 0 1 374.169708 596 A 13 13 0 0 1 361.169708 583 A 13 13 0 0 1 374.169708 570 A 13 13 0 0 1 387.169708 583 Z" fill="#f2f2f2" transform="matrix(1, 0, 0, 1, -182.9040521130516, 10.86558725424068)"/><path d="M484.72385,792.35794s-13-32,26-56Z" transform="matrix(1, 0, 0, 1, -277.45821318482876, -75.49235341958745)" fill="#f2f2f2"/><path d="M468.73587,791.77747s-5.91642-34.02934-51.7085-33.73768Z" transform="matrix(1, 0, 0, 1, -277.45821318482876, -75.49235341958745)" fill="#f2f2f2"/><path d="M 402.426453 339 A 80 80 0 0 1 322.426453 419 A 80 80 0 0 1 242.426453 339 A 80 80 0 0 1 322.426453 259 A 80 80 0 0 1 402.426453 339 Z" fill="#007bff" opacity="0.2" transform="matrix(1, 0, 0, 1, -182.9040521130516, 10.86558725424068)"/><path d="M 378.764484 339 A 56.338032 56.338032 0 0 1 322.426453 395.338032 A 56.338032 56.338032 0 0 1 266.088421 339 A 56.338032 56.338032 0 0 1 322.426453 282.661968 A 56.338032 56.338032 0 0 1 378.764484 339 Z" fill="#007bff" opacity="0.2" transform="matrix(1, 0, 0, 1, -182.9040521130516, 10.86558725424068)"/><path d="M 359.609554 339 A 37.183102 37.183102 0 0 1 322.426453 376.183102 A 37.183102 37.183102 0 0 1 285.243351 339 A 37.183102 37.183102 0 0 1 322.426453 301.816898 A 37.183102 37.183102 0 0 1 359.609554 339 Z" fill="#007bff" transform="matrix(1, 0, 0, 1, -182.9040521130516, 10.86558725424068)"/><path d="M423.74119,417.33806a6.76057,6.76057,0,1,0-11.03131,5.23894l-2.48982,17.42883h13.52113L421.25136,422.577A6.74554,6.74554,0,0,0,423.74119,417.33806Z" transform="matrix(1, 0, 0, 1, -277.45821318482876, -75.49235341958745)" fill="#fff"/><path d="M 837.645263671875 653.3910522460938 L 837.645263671875 685.0823974609375" style="fill: rgb(63, 61, 86); fill-opacity: 1; stroke: rgb(0, 0, 0); stroke-opacity: 1; stroke-width: 0; paint-order: fill;"/></g><g transform="matrix(1.3017092943191528, 0, 0, 1.3017092943191528, -415.48208618164057, -81.06388854980469)"><g transform="matrix(1.4286643473578289, 0, 0, 1.4286643473578289, 14.753727984936518, 0)"><title>stand_out</title><title>background</title><path d="M -1 -1 H 741.675354 V 474.948547 H -1 V -1 Z" fill="none" id="canvas_background" transform="matrix(0.7546416521072387, 0, 0, 0.7546416521072387, 406.26410840782796, 67.61073667037485)"/><title>Layer 1</title><path id="svg_1" fill="#d0cde1" d="m711.70367,311.06995c-1.79371,-4.61268 0.76881,-6.919 1.79389,-11.01912s-2.30642,-16.91313 -2.30642,-16.91313s-10.76281,-44.33285 -14.09414,-53.04564c-1.40974,-3.687 -4.47141,-6.22337 -7.53464,-7.92661c-0.20773,-1.131 -0.50785,-1.86044 -0.92192,-2.06752c-2.96824,-1.48525 -10.36283,-4.7098 -15.29076,-5.60131a25.0035,25.0035 0 0 0 -3.25844,-4.40639a10.416,10.416 0 0 0 1.161,-5.39415c-0.314,-4.83476 -3.97549,-9.16717 -3.49914,-13.98862c0.36127,-3.65663 3.03444,-6.66045 4.06613,-10.18708a11.97917,11.97917 0 0 0 -1.36155,-9.44679q1.13716,1.20964 2.27416,2.41925a8.49774,8.49774 0 0 0 -0.63407,-10.26749c-2.4002,-2.65152 -6.414,-3.646 -8.27622,-6.69951c-1.9135,-3.1377 -0.88651,-7.40129 -2.69606,-10.60014c-4.43279,-7.83637 -15.78112,-2.28133 -22.57836,-5.01644c-2.79331,-1.124 -4.91662,-2.361 -8.05936,-2.27216a31.49047,31.49047 0 0 0 -7.86147,1.46812a16.60916,16.60916 0 0 0 -9.00972,6.4582a5.57887,5.57887 0 0 1 0.70383,-0.67282c1.64714,-1.29074 4.5357,-1.18327 5.4055,0.72a3.18861,3.18861 0 0 1 0.25375,1.52035c-0.14292,2.29447 -2.14724,4.00789 -4.13885,5.15611s-4.23246,2.10887 -5.53225,4.005c-2.14523,3.12917 -0.88381,7.32856 -0.88276,11.12246a16.124,16.124 0 0 1 -6.11072,12.5203l7.231,-2.9562a54.65,54.65 0 0 0 -6.678,19.58333l9.777,-8.07711a42.99171,42.99171 0 0 0 -6.42136,19.0838l7.84772,-8.04114a3.96845,3.96845 0 0 1 0.51784,2.06429l-0.81839,3.15644a20.50769,20.50769 0 0 1 -0.96019,1.83208c-1.26282,2.16846 -2.56844,4.83755 -1.3873,7.05159l0.00557,-0.00295c-1.24316,4.18287 -3.11856,8.36822 -7.29073,10.40215c4.62765,0.48418 9.45737,-1.82964 11.5471,-5.51232a10.30975,10.30975 0 0 0 1.22759,1.86039c0.13449,0.16819 0.26706,0.33512 0.39981,0.50223l-1.15322,0.76881l-3.09046,2.06034s-20.24453,4.10014 -18.96327,11.78793c0.05272,0.31625 0.11587,0.69365 0.187,1.11707l-5.8247,9.902l-8.45647,28.701s-4.35642,9.22537 -3.58769,13.06924s0,5.38145 0,12.30043s-3.33138,9.73786 0,15.37554s13.32542,22.03829 13.32542,22.03829l2.19525,1.64644a10.256,10.256 0 0 0 0.11118,2.96624c2.05,10.25036 21.26952,108.39761 21.26952,108.39761s-9.7379,77.64649 9.994,82.5154c2.47484,0.61066 4.90514,1.16474 7.266,1.658l2.98442,19.61151l-1.79389,24.85713s-13.58169,30.75107 11.27543,32.54492s13.5817,-26.651 13.5817,-26.651a13.51031,13.51031 0 0 0 1.53761,-7.944c-0.25348,-2.28125 -2.38724,-14.152 -4.47958,-25.56935c9.43335,-1.13117 7.66826,-11.14274 6.41126,-15.54465a2.54913,2.54913 0 0 0 1.14339,-1.425c0.28393,-1.02225 -0.37719,-5.04349 -1.57677,-10.67878c-0.97706,-5.602 -2.64673,-14.67092 -3.78576,-20.81422l6.13134,0.99816l25.8822,-151.70538s0.17068,-2.41508 0.09273,-5.94732a96.0791,96.0791 0 0 1 10.92635,-4.81558c8.45656,-3.33138 11.78789,-15.63181 14.60677,-20.757s-1.02494,-6.66255 -2.81883,-11.27523zm-91.8956,-96.59119a5.48186,5.48186 0 0 1 2.83489,-0.96149c-0.219,1.19193 -2.26894,1.54023 -3.98784,2.16442a5.07424,5.07424 0 0 1 1.15295,-1.20293zm-12.91431,76.3467c2.07617,3.41093 -1.68281,12.6537 -5.07016,19.98853c-1.94125,-1.67263 -3.967,-1.14526 -1.5926,-5.89425a24.10832,24.10832 0 0 0 2.8188,-9.73786c0,-0.586 0.30046,-4.89123 2.8254,-6.67972a13.48411,13.48411 0 0 0 1.01856,2.3233zm-7.77726,29.43893c1.17487,-0.47822 2.954,-1.2128 5.3567,-2.02984c-1.15113,1.51082 -2.46536,3.31084 -3.78716,5.27575a3.96917,3.96917 0 0 1 -1.56954,-3.24591zm83.11736,3.36226c-1.558,-1.65536 -2.81688,-3.136 -3.85326,-4.46084q2.89934,0.76307 5.90342,1.642a7.02461,7.02461 0 0 0 2.98581,-0.19894c0.08891,1.77153 0.08926,4.29909 0.08926,4.29909l-2.80679,1.94312a16.4625,16.4625 0 0 0 -2.31844,-3.22438l0,-0.00005zm7.95254,-8.88737c-0.02992,0.026 -0.06211,0.056 -0.0929,0.08334a16.99686,16.99686 0 0 0 -0.68434,-2.9839c-1.67941,-5.29664 -2.57679,-14.69424 -3.05428,-22.71389l4.84808,16.3074s0.25627,8.20029 -1.01656,9.30705z" transform="matrix(0.7706143260002137, 0, 0, 0.7706143260002137, 410.23426221642194, 69.25967771041397)"/><path id="svg_2" fill="#d0cde1" d="m625.64399,247.3835s-26.29048,-45.18676 -27.11206,-50.11622s-13.96679,-13.96682 -13.96679,-13.96682c-4.4913,-4.49129 -11.86012,-5.91241 -19.61536,-5.83849c2.92045,-2.416 -7.50653,-4.04009 -8.31827,-5.66359c-0.82158,-1.64316 -3.28631,-1.64316 -6.57262,-4.10789c-3.28611,-2.46458 -11.4889,-0.411 -11.4898,-0.41079a30.275,30.275 0 0 1 -2.54863,-8.188a22.90678,22.90678 0 0 0 5.41186,-14.81612c0,-0.059 -0.004,-0.117 -0.00446,-0.17591c0.2091,0.32549 0.41826,0.65294 0.62757,0.99036c1.53895,-9.21888 4.25571,-16.8819 -0.92217,-25.29164a28.35654,28.35654 0 0 0 -16.13028,-12.33123l-4.93167,3.94532l1.91735,-4.60177a26.10421,26.10421 0 0 0 -4.87431,-0.28171l-4.43724,5.70506l1.83652,-5.50965a28.08546,28.08546 0 0 0 -19.37467,11.5246c-5.64754,8.14322 -5.26955,19.46282 0.285,27.66972c0.0187,-0.05747 0.03344,-0.11373 0.05185,-0.1711a22.9969,22.9969 0 0 0 11.754,18.62154l1.39524,11.16225l0,0a7.65112,7.65112 0 0 1 -4.57449,2.01809c-2.46473,0 -4.92946,6.57262 -4.92946,6.57262s-1.3969,0.705 -2.9025,4.03282c-3.87843,2.64034 -15.70886,10.93424 -20.09811,16.73c-2.59652,1.2778 -5.38569,4.11987 -4.933,10.45716c0.82158,11.50209 0,64.90462 0,64.90462s-7.39419,45.18676 -4.92946,48.47307s-0.82158,13.96681 -0.82158,13.96681l2.46473,0.54774l0,2.73857s-7.4134,34.36585 4.10789,32.8631c18.89628,-2.46473 4.92946,-30.39836 4.92946,-30.39836l0,-3.19505l3.28631,0.73031s1.64316,-11.50208 4.92947,-12.32366c1.14306,-0.28577 2.48469,-3.35676 3.74875,-7.23814c0.73708,6.05527 1.18071,9.70287 1.18071,9.70287l5.14073,-1.1424l1.43189,5.25029a7.08643,7.08643 0 0 0 1.1041,0.50015l-1.1041,6.07247s-0.82157,6.57262 0,10.68051c0.41435,2.07169 15.66488,46.35348 30.68184,89.74354l-0.28347,10.4889s-7.3942,8.21578 -5.751,13.96682s-4.10789,53.40253 -4.10789,53.40253l-4.92947,23.82575l1.24034,0.38165l-1.13859,4.17483a8.28506,8.28506 0 0 0 -2.56648,2.01614c-6.57262,7.39419 -14.78839,28.75521 -14.78839,28.75521s-14.7884,22.18259 8.21577,21.361s24.64733,-9.03735 24.64733,-9.03735s3.2863,-21.361 3.2863,-22.18259s-1.64315,-9.267 -1.64315,-9.267l-0.6381,-0.70378l0.44559,-10.24866l4.3004,1.32318s4.10788,-21.361 7.39419,-23.82575c1.14853,-0.86139 4.20432,-10.457 7.69312,-22.782c3.56606,10.268 7.01956,45.77245 8.1401,48.99508a11.66829,11.66829 0 0 0 -1.04482,1.72057a199.63573,199.63573 0 0 1 -12.32366,20.53944s-26.29048,15.61 0,19.71786c0,0 14.78839,0.82158 22.18259,-4.10789s27.11205,-12.32366 27.11205,-13.96681s-4.92946,-25.79756 -9.85893,-23.1685l0,0l-3.30215,-7.59478l3.30215,-1.27824l-20.80019,-93.36382a47.14063,47.14063 0 0 0 1.08233,-6.04705c0,-4.3023 10.63809,-88.07723 13.34522,-109.32591c11.91428,3.37546 22.80419,-21.3049 22.80419,-21.3049l2.70082,-4.86152l3.8718,2.39678s3.28631,-8.21577 8.21577,-9.03735s13.96682,-44.36518 13.96682,-50.11622a26.74193,26.74193 0 0 0 -2.46483,-10.68067zm-38.27885,64.36972a22.13835,22.13835 0 0 0 -2.8,-3.573a101.74878,101.74878 0 0 0 4.92946,-17.25312c1.64316,-9.03736 -2.46473,-38.61414 -2.46473,-38.61414l-0.07181,-2.00867c4.03237,5.29342 9.10916,12.35064 9.10916,14.33233a6.16182,6.16182 0 0 0 2.46473,4.92946l-4.92946,17.25313s-3.28631,8.21577 -4.10789,12.32366a41.936,41.936 0 0 0 -0.82158,7.3942l1.16457,0.72088l-2.47245,4.49527z" transform="matrix(0.7706143260002137, 0, 0, 0.7706143260002137, 410.23426221642194, 69.25967771041397)"/><path id="svg_3" fill="#d0cde1" d="m249.52229,262.59029l4.384,-0.98641l-18.0747,-50.9378l-39.02493,-14.3776s-0.14948,0.16573 -0.42543,0.45145c-3.32873,-3.22152 -4.74162,-7.89614 -5.33178,-11.57574a22.997,22.997 0 0 0 10.72169,-33.77399c3.21575,-0.77188 4.36387,-3.68917 5.44315,-7.16789a14.3931,14.3931 0 0 0 -2.03955,-0.44408q0.75864,-1.701 1.51719,-3.402q-1.33317,-0.11974 -2.66632,-0.23944q0.34089,-1.5901 0.68172,-3.18025q-1.70015,1.17369 -3.40024,2.34734a6.94616,6.94616 0 0 0 -1.1579,-6.63164a13.26745,13.26745 0 0 0 -5.68685,-4.0099a25.37252,25.37252 0 0 0 -26.03635,4.55051l-0.24566,-0.95742a33.04449,33.04449 0 0 0 -12.62057,21.87054c-1.08815,8.57351 3.03047,17.30322 8.38386,24.0878c-0.04508,-0.29615 -0.09342,-0.59156 -0.14256,-0.88661q0.347,0.47823 0.71688,0.93811l0.65805,25.00662l-1.64817,1.41268c-0.00261,0.00116 -27.65272,12.51066 -28.73054,27.45209l-0.00316,0.01088c-1.65965,7.27375 -2.48123,45.06631 -2.48123,45.06631l2.27514,0l-2.27514,14.7884l-14.78842,57.51045s-18.89628,24.64732 -2.46473,29.57679c10.21064,3.06321 13.12387,-8.78342 13.86672,-18.19325c0.59157,2.3324 2.36094,3.90916 5.85114,4.22643c0.27469,0.025 0.56794,0.04573 0.85161,0.06875c-7.76933,20.07815 -2.49477,85.3753 -2.49477,85.3753c-4.10789,8.21578 44.36518,64.90462 44.36518,64.90462l2.91875,-1.55666l0.63163,1.26316c-1.62436,0.15575 -2.7288,0.2935 -2.7288,0.2935l0,25.4689s-7.3942,25.4689 2.46473,30.39836c2.55108,1.27554 5.21188,0.34761 7.75524,-1.72429c-0.48605,7.8598 -1.18262,19.58879 -1.18262,22.26373c0,4.10789 10.68051,11.50208 10.68051,11.50208s2.46473,9.03736 22.18259,9.03736s4.92949,-23.82578 4.92949,-23.82578l-10.6805,-23.82575s-0.79912,0.39084 -3.21757,-1.57786l0.86616,-9.52757l4.81614,0.42493l6.57262,-96.12456s5.751,-85.44405 6.57262,-98.58929a91.48467,91.48467 0 0 0 -0.29711,-12.63782l24.12282,-49.80208l-4.38403,-34.34141zm-17.79856,31.87669l-2.46473,8.58921l0,-18.99587l2.46473,10.40666zm-102.56815,60.92711c0.02041,-3.01086 -0.129,-5.05984 -0.129,-5.05984l16.06183,-32.12366l-0.45186,9.94107s-12.8635,16.27158 -15.48097,27.24243zm37.66356,92.70787l15.61,-55.04569l9.03735,66.54777l-0.648,24.19326a38.572,38.572 0 0 1 -2.63828,-6.94013c-2.46481,-9.85893 -21.36107,-28.75521 -21.36107,-28.75521z" transform="matrix(0.7546416521072387, 0, 0, 0.7546416521072387, 406.26410840782796, 67.61073667037485)"/><path id="svg_4" fill="#d0cde1" d="m389.14895,578.86123c-7.6979,-3.1697 -22.64079,-9.962 -24.45222,-13.5845c-1.81118,-3.62249 -10.86748,-31.69714 -10.86748,-31.69714l-2.33222,0.16961c-0.30066,-12.75381 -1.58473,-62.18277 -3.55437,-68.092c0,0 9.50909,-78.33723 -9.50921,-109.58151l-3.42665,-13.84356c1.12457,-5.5496 0.98038,-18.40039 0.257,-20.57048c-0.90571,-2.7169 10.4148,-11.32046 7.24511,-16.75426s-11.77319,-23.99924 -11.77319,-23.99924s0.90559,-11.77325 -11.32052,-22.64079c0,0 -3.57283,-20.22688 -19.67266,-20.52824c-2.17646,-3.79841 -5.223,-9.83814 -4.32663,-12.52735c0.95981,-2.87926 4.62963,-11.85557 6.70233,-16.87981a21.695,21.695 0 0 0 3.16116,-1.75924c12.80441,-5.737 21.83067,-19.52818 21.83067,-35.639c0,-17.24643 -10.34014,-31.842 -24.58975,-36.73622a12.22024,12.22024 0 1 0 -23.64582,-4.38524a12.20966,12.20966 0 0 1 11.26582,-16.9557a12.27159,12.27159 0 0 1 2.36366,0.23306a12.21507,12.21507 0 0 0 -13.08729,20.39731a12.11628,12.11628 0 0 0 0.49895,1.31358c-13.4084,5.41066 -22.97312,19.546 -22.97312,36.13321c0,15.38622 8.23191,28.65832 20.12535,34.81881c-0.06334,5.005 -1.30464,13.443 -8.207,18.58542c-3.56559,-1.62919 -8.51364,-3.41742 -11.6886,-2.6063c-1.64175,-1.27981 -4.11946,-1.70234 -7.49072,1.66887c-6.79219,6.79225 -12.6789,24.45209 -12.6789,35.31969s1.3585,73.809 1.3585,73.809s-7.2451,2.7169 -2.2641,6.79225a5.87263,5.87263 0 0 0 3.65825,1.35945l4.94525,36.67715s-3.1697,35.31969 9.05641,35.77249a4.83715,4.83715 0 0 0 2.73664,-0.67178l-9.07615,40.97241s-20.82949,13.5845 -37.13088,40.30064c-8.39621,13.76053 -12.58227,22.22579 -14.6732,27.20942l-2.98671,-1.85167l-10.41468,19.92389s-23.09371,14.03735 -18.11271,24.45209s9.50921,13.1317 9.50921,13.1317l3.1697,-1.35845l5.88648,10.8676s15.3958,22.188 40.30069,10.86754a9.10148,9.10148 0 0 0 0,-10.86754c-4.07529,-5.88665 -14.49009,-18.5655 -14.49009,-18.5655l6.79219,-34.414l-1.40548,-0.87141l43.06468,-52.10807s12.67879,-7.6979 17.207,-14.49015s32.6028,-76.97878 32.6028,-76.97878l15.84848,73.35623s-0.90559,26.7162 3.1697,43.92319a186.43145,186.43145 0 0 1 4.33213,29.34855l-1.16232,0.08454l2.7169,20.37675s-11.77319,28.98024 -3.62261,31.24429a119.40682,119.40682 0 0 0 17.6599,3.16975l0.9056,-3.16975s34.8669,19.01829 47.54568,4.981c-0.00008,-0.00011 2.71694,-9.96206 -4.98096,-13.13181zm-124.07181,-222.33279c1.35851,1.35845 0.90572,7.69785 0.90572,7.69785l-2.7169,17.65984l-2.7134,12.24907a131.573,131.573 0 0 0 -2.26761,-17.23l-1.25345,-33.84282a2.61532,2.61532 0 0 0 0.80066,0.33437c0.90559,0 0.45279,-7.69784 0.45279,-7.69784s0.52852,-1.37475 1.188,-3.54432c1.76047,5.27 3.90959,8.7086 6.50988,9.43092l0.45279,5.88659s-5.88659,2.7169 -0.45279,2.7169a4.277,4.277 0 0 0 0.93328,-0.13864l-0.48049,2.40274s-2.71685,2.71689 -1.35848,4.07534z" transform="matrix(0.7546416521072387, 0, 0, 0.7546416521072387, 406.26410840782796, 67.61073667037485)"/><path d="M 465.90899658203125 553.4550170898438 L 469.90899658203125 581.4550170898438 L 489.90899658203125 579.4550170898438 L 487.90899658203125 550.4550170898438 L 465.90899658203125 553.4550170898438 Z" id="svg_11" fill="#ffb8b8" transform="matrix(0.7706143260002137, 0, 0, 0.7706143260002137, 410.23426221642194, 69.25967771041397)"/><path d="M 370.90899658203125 553.4550170898438 L 366.90899658203125 581.4550170898438 L 346.90899658203125 579.4550170898438 L 348.90899658203125 550.4550170898438 L 370.90899658203125 553.4550170898438 Z" id="svg_12" fill="#ffb8b8" transform="matrix(0.7706143260002137, 0, 0, 0.7706143260002137, 410.23426221642194, 69.25967771041397)"/><path id="svg_13" fill="#2f2e41" d="m341.90899,263.4554s-18,21 -14,54s11,108 11,108l5,133l32,-2l5,-113l16,-91l43,106s21,99 22,99s30,-3 30,-3l-14,-117s-22,-170 -35,-173s-101,-1 -101,-1z" transform="matrix(0.7706143260002137, 0, 0, 0.7706143260002137, 410.23426221642194, 69.25967771041397)"/><path id="svg_14" fill="#2f2e41" d="m491.90899,575.4554s-18,-12 -25,2s-1,24 -1,24s6,4 3,8s-4,30 22,26s13,-31 13,-31l-12,-29z" transform="matrix(0.7706143260002137, 0, 0, 0.7706143260002137, 410.23426221642194, 69.25967771041397)"/><path id="svg_15" fill="#2f2e41" d="m344.90899,575.4554s18,-12 25,2s1,24 1,24s-6,4 -3,8s4,30 -22,26s-13,-31 -13,-31l12,-29z" transform="matrix(0.7706143260002137, 0, 0, 0.7706143260002137, 410.23426221642194, 69.25967771041397)"/><path id="svg_16" fill="#ffb8b8" d="m366.40899,68.9554s9,25 2,39s11,30 11,30s47,-24 41,-36s-16,-28 -14,-38l-40,5z" transform="matrix(0.7706143260002137, 0, 0, 0.7706143260002137, 410.23426221642194, 69.25967771041397)"/><path d="M 415.908997 45.455399 A 32 32 0 0 1 383.908997 77.455399 A 32 32 0 0 1 351.908997 45.455399 A 32 32 0 0 1 383.908997 13.455399 A 32 32 0 0 1 415.908997 45.455399 Z" id="svg_17" fill="#ffb8b8" transform="matrix(0.7706143260002137, 0, 0, 0.7706143260002137, 410.23426221642194, 69.25967771041397)"/><path id="svg_18" fill="#d0cde1" d="m360.90899,106.4554s32.108,26.71833 56.054,-11.14083l24.946,14.14083l13,152s-73,42 -108,6l5,-141l9,-20z" transform="matrix(0.7706143260002137, 0, 0, 0.7706143260002137, 410.23426221642194, 69.25967771041397)"/><path d="M 370.99200439453125 91.48799896240234 L 325.90899658203125 121.45500183105469 L 341.90899658203125 195.4550018310547 L 320.90899658203125 310.4549865722656 L 354.90899658203125 259.4549865722656 L 370.99200439453125 91.48799896240234 Z" id="svg_19" fill="#575a89" transform="matrix(0.7706143260002137, 0, 0, 0.7706143260002137, 410.23426221642194, 69.25967771041397)" style="fill: rgb(0, 123, 255);"/><path id="svg_20" fill="#575a89" d="m410.83624,83.14694l11.07275,7.30846l45,16l-7,124l19,80l-27,14s-5,-38 -36,-57s-12.1455,-178.61692 -5.07275,-184.30846z" transform="matrix(0.7706143260002137, 0, 0, 0.7706143260002137, 410.23426221642194, 69.25967771041397)" style="fill: rgb(0, 123, 255);"/><path id="svg_21" fill="#ffb8b8" d="m335.90899,277.4554l13,9s-16.5,17.5 -19.5,14.5a8.19972,8.19972 0 0 1 -2.5,-6.5l-3,-7l12,-10z" transform="matrix(0.7706143260002137, 0, 0, 0.7706143260002137, 410.23426221642194, 69.25967771041397)"/><path id="svg_22" fill="#ffb8b8" d="m422.32864,275.50997l-4.41965,6.94543s-13,6 -10,10s28,13 33,4l5,-9l-23.58035,-11.94543z" transform="matrix(0.7706143260002137, 0, 0, 0.7706143260002137, 410.23426221642194, 69.25967771041397)"/><path id="svg_23" fill="#575a89" d="m331.90899,120.4554l-7,1l-11.5,74.5s-4.5,13.5 0.5,45.5s9.95137,52.83775 9.95137,52.83775l22.04863,-15.83775l-10,-26l13,-95l-17,-37z" transform="matrix(0.7706143260002137, 0, 0, 0.7706143260002137, 410.23426221642194, 69.25967771041397)" style="fill: rgb(0, 123, 255);"/><path id="svg_24" fill="#575a89" d="m450.90899,104.4554l16,2s18,19 21,39s2,77 2,77l-46,73l-25,-18l35,-62l-17,-74l14,-37z" transform="matrix(0.7706143260002137, 0, 0, 0.7706143260002137, 410.23426221642194, 69.25967771041397)" style="fill: rgb(0, 123, 255);"/><path id="svg_25" fill="#2f2e41" d="m414.42434,17.51313a37.38374,37.38374 0 0 0 -21.26531,-16.25685l-6.50165,5.2013l2.52773,-6.06673a34.41439,34.41439 0 0 0 -6.426,-0.3714l-5.84983,7.52125l2.42117,-7.26362a37.02632,37.02632 0 0 0 -25.54254,15.19343c-7.44543,10.73558 -8.70175,25.66535 -1.37889,36.48489c2.01023,-6.17759 4.45,-11.97424 6.46026,-18.1519a18.28485,18.28485 0 0 0 4.763,0.0232l2.44576,-5.70663l0.68317,5.46527c7.58041,-0.66049 18.82405,-2.11039 26.01059,-3.43891l-0.69877,-4.19261l4.18084,3.48406c2.20182,-0.50692 3.50905,-0.96651 3.401,-1.31781c5.34476,8.61641 10.64059,14.11989 15.98521,22.73623c2.02888,-12.15368 5.61051,-22.25621 -1.21574,-33.34317z" transform="matrix(0.7706143260002137, 0, 0, 0.7706143260002137, 410.23426221642194, 69.25967771041397)"/><path d="M 414.818624 45.450069 A 2.16625 4.3325 0 0 1 412.652374 49.782569 A 2.16625 4.3325 0 0 1 410.486124 45.450069 A 2.16625 4.3325 0 0 1 412.652374 41.117569 A 2.16625 4.3325 0 0 1 414.818624 45.450069 Z" id="svg_26" fill="#ffb8b8" transform="matrix(0.7706143260002137, 0, 0, 0.7706143260002137, 410.23426221642194, 69.25967771041397)"/><path id="svg_33" fill="#2f2e41" d="m959.19451,51.18703c0.02869,-0.09119 0.059,-0.18353 0.08777,-0.275c-0.01245,0.0401 -0.02807,0.07867 -0.04028,0.11889l-0.04749,0.15611z" transform="matrix(0.49930504922080915, 0, 0, 0.49930504922080915, 259.97281334201523, 158.9386741634306)"/><path d="M 681.9181518554688 202.7572021484375 L 672.733154296875 181.7629852294922" style="fill: rgb(0, 123, 255); fill-opacity: 1; stroke: rgb(0, 0, 0); stroke-opacity: 1; stroke-width: 0; paint-order: fill;"/><path d="M 1044.7244873046875 172.5780029296875 L 1007.984619140625 183.73118591308594" style="fill: rgb(0, 123, 255); fill-opacity: 1; stroke: rgb(0, 0, 0); stroke-opacity: 1; stroke-width: 0; paint-order: fill;"/><path d="M 1013.8892211914062 192.91615295410156" style="fill: rgb(0, 123, 255); fill-opacity: 1; stroke: rgb(0, 0, 0); stroke-opacity: 1; stroke-width: 0; paint-order: fill;"/></g></g></svg>