<?xml version="1.0" encoding="utf-8"?>
<svg id="master-artboard" viewBox="0 0 1400 980" version="1.1" xmlns="http://www.w3.org/2000/svg" x="0px" y="0px" style="enable-background:new 0 0 1400 980;" width="1400px" height="980px" xmlns:xlink="http://www.w3.org/1999/xlink"><defs><path d="M303.94 398.66L305.25 398.85L306.53 399.11L307.78 399.45L309.01 399.85L310.21 400.31L311.37 400.85L312.49 401.44L313.58 402.09L314.63 402.8L315.64 403.56L316.6 404.38L317.51 405.24L318.38 406.16L319.2 407.12L319.96 408.13L320.67 409.18L321.32 410.26L321.91 411.39L322.44 412.55L322.91 413.75L323.31 414.97L323.64 416.23L323.91 417.51L324.1 418.82L324.22 420.15L324.26 421.5L324.22 422.85L324.1 424.18L323.91 425.49L323.65 426.77L323.32 428.03L322.92 429.26L322.45 430.45L321.92 431.61L321.33 432.74L320.68 433.83L319.97 434.88L319.2 435.89L318.39 436.85L317.52 437.76L316.6 438.63L315.64 439.45L314.64 440.21L313.59 440.92L312.5 441.57L311.37 442.16L310.21 442.69L309.01 443.16L307.79 443.56L306.53 443.89L305.25 444.16L303.94 444.35L302.61 444.46L301.26 444.5L299.91 444.46L298.57 444.35L297.27 444.16L295.98 443.89L294.73 443.56L293.5 443.16L292.3 442.69L291.14 442.16L290.02 441.57L288.93 440.92L287.88 440.21L286.87 439.45L285.91 438.63L284.99 437.76L284.13 436.85L283.31 435.89L282.55 434.88L281.84 433.83L281.19 432.74L280.59 431.61L280.06 430.45L279.6 429.26L279.2 428.03L278.86 426.77L278.6 425.49L278.41 424.18L278.3 422.85L278.26 421.5L278.3 420.15L278.41 418.82L278.6 417.51L278.86 416.23L279.2 414.97L279.6 413.74L280.06 412.55L280.59 411.39L281.19 410.26L281.84 409.17L282.55 408.12L283.31 407.11L284.13 406.15L284.99 405.24L285.91 404.37L286.87 403.55L287.88 402.79L288.93 402.08L290.02 401.43L291.14 400.84L292.3 400.31L293.5 399.84L294.73 399.44L295.98 399.11L297.27 398.84L298.57 398.65L299.91 398.54L301.26 398.5L302.61 398.54L303.94 398.66ZM298.55 410.84L297.28 411.24L296.09 411.79L294.97 412.47L293.95 413.28L293.03 414.19L292.23 415.22L291.55 416.33L291 417.52L290.59 418.79L290.34 420.12L290.26 421.5L290.34 422.88L290.59 424.21L291 425.48L291.55 426.67L292.23 427.78L293.03 428.81L293.95 429.72L294.97 430.53L296.09 431.21L297.28 431.76L298.55 432.16L299.88 432.41L301.26 432.5L302.64 432.41L303.96 432.16L305.23 431.76L306.43 431.21L307.54 430.53L308.56 429.72L309.48 428.8L310.28 427.78L310.96 426.67L311.51 425.47L311.92 424.21L312.17 422.88L312.26 421.5L312.17 420.12L311.92 418.79L311.52 417.52L310.97 416.33L310.29 415.22L309.48 414.19L308.56 413.28L307.54 412.47L306.43 411.79L305.23 411.24L303.97 410.84L302.64 410.59L301.26 410.5L299.88 410.59L298.55 410.84Z" id="c6sn5WuiE"/><path d="M361.94 398.66L363.25 398.85L364.53 399.11L365.78 399.45L367.01 399.85L368.21 400.31L369.37 400.85L370.49 401.44L371.58 402.09L372.63 402.8L373.64 403.56L374.6 404.38L375.51 405.24L376.38 406.16L377.2 407.12L377.96 408.13L378.67 409.18L379.32 410.26L379.91 411.39L380.44 412.55L380.91 413.75L381.31 414.97L381.64 416.23L381.91 417.51L382.1 418.82L382.22 420.15L382.26 421.5L382.22 422.85L382.1 424.18L381.91 425.49L381.65 426.77L381.32 428.03L380.92 429.26L380.45 430.45L379.92 431.61L379.33 432.74L378.68 433.83L377.97 434.88L377.2 435.89L376.39 436.85L375.52 437.76L374.6 438.63L373.64 439.45L372.64 440.21L371.59 440.92L370.5 441.57L369.37 442.16L368.21 442.69L367.01 443.16L365.79 443.56L364.53 443.89L363.25 444.16L361.94 444.35L360.61 444.46L359.26 444.5L357.91 444.46L356.57 444.35L355.27 444.16L353.98 443.89L352.73 443.56L351.5 443.16L350.3 442.69L349.14 442.16L348.02 441.57L346.93 440.92L345.88 440.21L344.87 439.45L343.91 438.63L342.99 437.76L342.13 436.85L341.31 435.89L340.55 434.88L339.84 433.83L339.19 432.74L338.59 431.61L338.06 430.45L337.6 429.26L337.2 428.03L336.86 426.77L336.6 425.49L336.41 424.18L336.3 422.85L336.26 421.5L336.3 420.15L336.41 418.82L336.6 417.51L336.86 416.23L337.2 414.97L337.6 413.74L338.06 412.55L338.59 411.39L339.19 410.26L339.84 409.17L340.55 408.12L341.31 407.11L342.13 406.15L342.99 405.24L343.91 404.37L344.87 403.55L345.88 402.79L346.93 402.08L348.02 401.43L349.14 400.84L350.3 400.31L351.5 399.84L352.73 399.44L353.98 399.11L355.27 398.84L356.57 398.65L357.91 398.54L359.26 398.5L360.61 398.54L361.94 398.66ZM356.55 410.84L355.28 411.24L354.09 411.79L352.97 412.47L351.95 413.28L351.03 414.19L350.23 415.22L349.55 416.33L349 417.52L348.59 418.79L348.34 420.12L348.26 421.5L348.34 422.88L348.59 424.21L349 425.48L349.55 426.67L350.23 427.78L351.03 428.81L351.95 429.72L352.97 430.53L354.09 431.21L355.28 431.76L356.55 432.16L357.88 432.41L359.26 432.5L360.64 432.41L361.96 432.16L363.23 431.76L364.43 431.21L365.54 430.53L366.56 429.72L367.48 428.8L368.28 427.78L368.96 426.67L369.51 425.47L369.92 424.21L370.17 422.88L370.26 421.5L370.17 420.12L369.92 418.79L369.52 417.52L368.97 416.33L368.29 415.22L367.48 414.19L366.56 413.28L365.54 412.47L364.43 411.79L363.23 411.24L361.97 410.84L360.64 410.59L359.26 410.5L357.88 410.59L356.55 410.84Z" id="bgIoYqRuR"/><path d="M81.26 406.5C81.26 409.5 81.26 433.5 81.26 436.5C81.26 439.81 83.94 442.5 87.26 442.5C90.57 442.5 93.26 439.81 93.26 436.5C93.26 433.5 93.26 409.5 93.26 406.5C93.26 403.19 90.57 400.5 87.26 400.5C83.94 400.5 81.26 403.19 81.26 406.5Z" id="g2J7lqJ4"/><path d="M107.66 406.5C107.66 409.5 107.66 433.5 107.66 436.5C107.66 439.81 110.34 442.5 113.66 442.5C116.97 442.5 119.66 439.81 119.66 436.5C119.66 433.5 119.66 409.5 119.66 406.5C119.66 403.19 116.97 400.5 113.66 400.5C110.34 400.5 107.66 403.19 107.66 406.5Z" id="l4WLUNfDQ"/><path d="M134.06 406.5C134.06 409.5 134.06 433.5 134.06 436.5C134.06 439.81 136.74 442.5 140.06 442.5C143.37 442.5 146.06 439.81 146.06 436.5C146.06 433.5 146.06 409.5 146.06 406.5C146.06 403.19 143.37 400.5 140.06 400.5C136.74 400.5 134.06 403.19 134.06 406.5Z" id="f37CKiYhgX"/><path d="M160.46 406.5C160.46 409.5 160.46 433.5 160.46 436.5C160.46 439.81 163.14 442.5 166.46 442.5C169.77 442.5 172.46 439.81 172.46 436.5C172.46 433.5 172.46 409.5 172.46 406.5C172.46 403.19 169.77 400.5 166.46 400.5C163.14 400.5 160.46 403.19 160.46 406.5Z" id="crPfHbKRc"/><path d="M186.86 406.5C186.86 409.5 186.86 433.5 186.86 436.5C186.86 439.81 189.54 442.5 192.86 442.5C196.17 442.5 198.86 439.81 198.86 436.5C198.86 433.5 198.86 409.5 198.86 406.5C198.86 403.19 196.17 400.5 192.86 400.5C189.54 400.5 186.86 403.19 186.86 406.5Z" id="c8UaZRdou"/><path d="M303.94 258.66L305.25 258.85L306.53 259.11L307.78 259.45L309.01 259.85L310.21 260.31L311.37 260.85L312.49 261.44L313.58 262.09L314.63 262.8L315.64 263.56L316.6 264.38L317.51 265.24L318.38 266.16L319.2 267.12L319.96 268.13L320.67 269.18L321.32 270.26L321.91 271.39L322.44 272.55L322.91 273.75L323.31 274.97L323.64 276.23L323.91 277.51L324.1 278.82L324.22 280.15L324.26 281.5L324.22 282.85L324.1 284.18L323.91 285.49L323.65 286.77L323.32 288.03L322.92 289.26L322.45 290.45L321.92 291.61L321.33 292.74L320.68 293.83L319.97 294.88L319.2 295.89L318.39 296.85L317.52 297.76L316.6 298.63L315.64 299.45L314.64 300.21L313.59 300.92L312.5 301.57L311.37 302.16L310.21 302.69L309.01 303.16L307.79 303.56L306.53 303.89L305.25 304.16L303.94 304.35L302.61 304.46L301.26 304.5L299.91 304.46L298.57 304.35L297.27 304.16L295.98 303.89L294.73 303.56L293.5 303.16L292.3 302.69L291.14 302.16L290.02 301.57L288.93 300.92L287.88 300.21L286.87 299.45L285.91 298.63L284.99 297.76L284.13 296.85L283.31 295.89L282.55 294.88L281.84 293.83L281.19 292.74L280.59 291.61L280.06 290.45L279.6 289.26L279.2 288.03L278.86 286.77L278.6 285.49L278.41 284.18L278.3 282.85L278.26 281.5L278.3 280.15L278.41 278.82L278.6 277.51L278.86 276.23L279.2 274.97L279.6 273.74L280.06 272.55L280.59 271.39L281.19 270.26L281.84 269.17L282.55 268.12L283.31 267.11L284.13 266.15L284.99 265.24L285.91 264.37L286.87 263.55L287.88 262.79L288.93 262.08L290.02 261.43L291.14 260.84L292.3 260.31L293.5 259.84L294.73 259.44L295.98 259.11L297.27 258.84L298.57 258.65L299.91 258.54L301.26 258.5L302.61 258.54L303.94 258.66ZM298.55 270.84L297.28 271.24L296.09 271.79L294.97 272.47L293.95 273.28L293.03 274.19L292.23 275.22L291.55 276.33L291 277.52L290.59 278.79L290.34 280.12L290.26 281.5L290.34 282.88L290.59 284.21L291 285.48L291.55 286.67L292.23 287.78L293.03 288.81L293.95 289.72L294.97 290.53L296.09 291.21L297.28 291.76L298.55 292.16L299.88 292.41L301.26 292.5L302.64 292.41L303.96 292.16L305.23 291.76L306.43 291.21L307.54 290.53L308.56 289.72L309.48 288.8L310.28 287.78L310.96 286.67L311.51 285.47L311.92 284.21L312.17 282.88L312.26 281.5L312.17 280.12L311.92 278.79L311.52 277.52L310.97 276.33L310.29 275.22L309.48 274.19L308.56 273.28L307.54 272.47L306.43 271.79L305.23 271.24L303.97 270.84L302.64 270.59L301.26 270.5L299.88 270.59L298.55 270.84Z" id="ahj4KOJBt"/><path d="M361.94 258.66L363.25 258.85L364.53 259.11L365.78 259.45L367.01 259.85L368.21 260.31L369.37 260.85L370.49 261.44L371.58 262.09L372.63 262.8L373.64 263.56L374.6 264.38L375.51 265.24L376.38 266.16L377.2 267.12L377.96 268.13L378.67 269.18L379.32 270.26L379.91 271.39L380.44 272.55L380.91 273.75L381.31 274.97L381.64 276.23L381.91 277.51L382.1 278.82L382.22 280.15L382.26 281.5L382.22 282.85L382.1 284.18L381.91 285.49L381.65 286.77L381.32 288.03L380.92 289.26L380.45 290.45L379.92 291.61L379.33 292.74L378.68 293.83L377.97 294.88L377.2 295.89L376.39 296.85L375.52 297.76L374.6 298.63L373.64 299.45L372.64 300.21L371.59 300.92L370.5 301.57L369.37 302.16L368.21 302.69L367.01 303.16L365.79 303.56L364.53 303.89L363.25 304.16L361.94 304.35L360.61 304.46L359.26 304.5L357.91 304.46L356.57 304.35L355.27 304.16L353.98 303.89L352.73 303.56L351.5 303.16L350.3 302.69L349.14 302.16L348.02 301.57L346.93 300.92L345.88 300.21L344.87 299.45L343.91 298.63L342.99 297.76L342.13 296.85L341.31 295.89L340.55 294.88L339.84 293.83L339.19 292.74L338.59 291.61L338.06 290.45L337.6 289.26L337.2 288.03L336.86 286.77L336.6 285.49L336.41 284.18L336.3 282.85L336.26 281.5L336.3 280.15L336.41 278.82L336.6 277.51L336.86 276.23L337.2 274.97L337.6 273.74L338.06 272.55L338.59 271.39L339.19 270.26L339.84 269.17L340.55 268.12L341.31 267.11L342.13 266.15L342.99 265.24L343.91 264.37L344.87 263.55L345.88 262.79L346.93 262.08L348.02 261.43L349.14 260.84L350.3 260.31L351.5 259.84L352.73 259.44L353.98 259.11L355.27 258.84L356.57 258.65L357.91 258.54L359.26 258.5L360.61 258.54L361.94 258.66ZM356.55 270.84L355.28 271.24L354.09 271.79L352.97 272.47L351.95 273.28L351.03 274.19L350.23 275.22L349.55 276.33L349 277.52L348.59 278.79L348.34 280.12L348.26 281.5L348.34 282.88L348.59 284.21L349 285.48L349.55 286.67L350.23 287.78L351.03 288.81L351.95 289.72L352.97 290.53L354.09 291.21L355.28 291.76L356.55 292.16L357.88 292.41L359.26 292.5L360.64 292.41L361.96 292.16L363.23 291.76L364.43 291.21L365.54 290.53L366.56 289.72L367.48 288.8L368.28 287.78L368.96 286.67L369.51 285.47L369.92 284.21L370.17 282.88L370.26 281.5L370.17 280.12L369.92 278.79L369.52 277.52L368.97 276.33L368.29 275.22L367.48 274.19L366.56 273.28L365.54 272.47L364.43 271.79L363.23 271.24L361.97 270.84L360.64 270.59L359.26 270.5L357.88 270.59L356.55 270.84Z" id="b1toTy54Hp"/><path d="M81.26 266.5C81.26 269.5 81.26 293.5 81.26 296.5C81.26 299.81 83.94 302.5 87.26 302.5C90.57 302.5 93.26 299.81 93.26 296.5C93.26 293.5 93.26 269.5 93.26 266.5C93.26 263.19 90.57 260.5 87.26 260.5C83.94 260.5 81.26 263.19 81.26 266.5Z" id="a6s4Uz56EF"/><path d="M107.66 266.5C107.66 269.5 107.66 293.5 107.66 296.5C107.66 299.81 110.34 302.5 113.66 302.5C116.97 302.5 119.66 299.81 119.66 296.5C119.66 293.5 119.66 269.5 119.66 266.5C119.66 263.19 116.97 260.5 113.66 260.5C110.34 260.5 107.66 263.19 107.66 266.5Z" id="b8preKXgAU"/><path d="M134.06 266.5C134.06 269.5 134.06 293.5 134.06 296.5C134.06 299.81 136.74 302.5 140.06 302.5C143.37 302.5 146.06 299.81 146.06 296.5C146.06 293.5 146.06 269.5 146.06 266.5C146.06 263.19 143.37 260.5 140.06 260.5C136.74 260.5 134.06 263.19 134.06 266.5Z" id="d9UHf2e68"/><path d="M160.46 266.5C160.46 269.5 160.46 293.5 160.46 296.5C160.46 299.81 163.14 302.5 166.46 302.5C169.77 302.5 172.46 299.81 172.46 296.5C172.46 293.5 172.46 269.5 172.46 266.5C172.46 263.19 169.77 260.5 166.46 260.5C163.14 260.5 160.46 263.19 160.46 266.5Z" id="e2nwVs1WHD"/><path d="M186.86 266.5C186.86 269.5 186.86 293.5 186.86 296.5C186.86 299.81 189.54 302.5 192.86 302.5C196.17 302.5 198.86 299.81 198.86 296.5C198.86 293.5 198.86 269.5 198.86 266.5C198.86 263.19 196.17 260.5 192.86 260.5C189.54 260.5 186.86 263.19 186.86 266.5Z" id="eD6H9o9CW"/><path d="M81.26 126.5C81.26 129.5 81.26 153.5 81.26 156.5C81.26 159.81 83.94 162.5 87.26 162.5C90.57 162.5 93.26 159.81 93.26 156.5C93.26 153.5 93.26 129.5 93.26 126.5C93.26 123.19 90.57 120.5 87.26 120.5C83.94 120.5 81.26 123.19 81.26 126.5Z" id="echfRSDBc"/><path d="M119.66 156.5C119.66 153.5 119.66 129.5 119.66 126.5C119.66 123.19 116.97 120.5 113.66 120.5C110.34 120.5 107.66 123.19 107.66 126.5C107.66 129.5 107.66 153.5 107.66 156.5C107.66 159.81 110.34 162.5 113.66 162.5C116.97 162.5 119.66 159.81 119.66 156.5Z" id="a6GvH5OMj"/><path d="M146.06 156.5C146.06 153.5 146.06 129.5 146.06 126.5C146.06 123.19 143.37 120.5 140.06 120.5C136.74 120.5 134.06 123.19 134.06 126.5C134.06 129.5 134.06 153.5 134.06 156.5C134.06 159.81 136.74 162.5 140.06 162.5C143.37 162.5 146.06 159.81 146.06 156.5Z" id="baBUOgAKC"/><path d="M172.46 156.5C172.46 153.5 172.46 129.5 172.46 126.5C172.46 123.19 169.77 120.5 166.46 120.5C163.14 120.5 160.46 123.19 160.46 126.5C160.46 129.5 160.46 153.5 160.46 156.5C160.46 159.81 163.14 162.5 166.46 162.5C169.77 162.5 172.46 159.81 172.46 156.5Z" id="b2eTtcoOG"/><path d="M198.86 156.5C198.86 153.5 198.86 129.5 198.86 126.5C198.86 123.19 196.17 120.5 192.86 120.5C189.54 120.5 186.86 123.19 186.86 126.5C186.86 129.5 186.86 153.5 186.86 156.5C186.86 159.81 189.54 162.5 192.86 162.5C196.17 162.5 198.86 159.81 198.86 156.5Z" id="jYhfu6dN"/><path d="M366.79 24.51L366.94 24.52L367.08 24.53L367.23 24.54L367.38 24.56L367.52 24.58L367.67 24.61L367.81 24.64L367.96 24.67L368.1 24.71L368.24 24.75L368.39 24.79L368.53 24.84L368.67 24.89L368.81 24.95L368.94 25.01L369.08 25.07L369.22 25.14L369.35 25.21L458.06 72.48L458.21 72.56L458.35 72.64L458.49 72.73L458.63 72.82L458.76 72.91L458.89 73.01L459.02 73.11L459.15 73.22L459.27 73.32L459.39 73.43L459.5 73.55L459.61 73.66L459.72 73.78L459.83 73.9L459.93 74.03L460.03 74.15L460.12 74.28L460.21 74.41L460.3 74.55L460.39 74.68L460.47 74.82L460.54 74.96L460.62 75.11L460.69 75.25L460.75 75.4L460.81 75.55L460.87 75.7L460.93 75.85L460.98 76L461.02 76.16L461.06 76.31L461.1 76.47L461.13 76.63L461.16 76.79L461.19 76.95L461.21 77.11L461.22 77.28L461.23 77.44L461.24 77.61L461.24 77.77L461.24 131.09L461.21 134.03L461.11 136.96L460.95 139.88L460.72 142.78L460.42 145.68L460.06 148.56L459.64 151.43L459.15 154.29L458.6 157.13L457.98 159.95L457.31 162.75L456.57 165.54L455.77 168.3L454.91 171.05L453.99 173.77L453.01 176.47L451.97 179.15L450.87 181.8L449.72 184.43L448.5 187.03L447.23 189.6L445.9 192.14L444.51 194.66L443.07 197.14L441.57 199.59L440.02 202.01L438.41 204.39L436.75 206.74L435.04 209.06L433.27 211.34L431.45 213.58L429.57 215.78L427.65 217.95L425.67 220.07L423.64 222.15L421.56 224.19L419.44 226.18L417.26 228.13L415.03 230.04L412.76 231.9L412.76 331.5L412.74 332.16L412.7 332.81L412.64 333.46L412.55 334.09L412.43 334.72L412.29 335.34L412.12 335.95L411.94 336.55L411.73 337.15L411.49 337.72L411.24 338.29L410.97 338.85L410.67 339.39L410.35 339.92L410.02 340.44L409.66 340.94L409.29 341.43L408.9 341.91L408.49 342.37L408.07 342.81L407.62 343.23L407.16 343.64L406.69 344.03L406.2 344.41L405.7 344.76L405.18 345.1L404.65 345.41L404.11 345.71L403.55 345.98L402.98 346.24L402.4 346.47L401.81 346.68L401.21 346.87L400.6 347.03L399.98 347.17L399.35 347.29L398.71 347.38L398.07 347.45L397.42 347.49L396.76 347.5L362.76 347.5L362.76 355.5L396.76 355.5L397.42 355.51L398.07 355.55L398.71 355.62L399.35 355.71L399.98 355.83L400.6 355.97L401.21 356.13L401.81 356.32L402.4 356.53L402.98 356.76L403.55 357.02L404.11 357.29L404.65 357.59L405.18 357.9L405.7 358.24L406.2 358.59L406.69 358.97L407.16 359.36L407.62 359.77L408.07 360.19L408.49 360.63L408.9 361.09L409.29 361.57L409.66 362.06L410.02 362.56L410.35 363.08L410.67 363.61L410.97 364.15L411.24 364.71L411.49 365.28L411.73 365.85L411.94 366.45L412.12 367.05L412.29 367.66L412.43 368.28L412.55 368.91L412.64 369.54L412.7 370.19L412.74 370.84L412.76 371.5L412.76 471.5L412.74 472.16L412.7 472.81L412.64 473.46L412.55 474.09L412.43 474.72L412.29 475.34L412.12 475.95L411.94 476.55L411.73 477.15L411.49 477.72L411.24 478.29L410.97 478.85L410.67 479.39L410.35 479.92L410.02 480.44L409.66 480.94L409.29 481.43L408.9 481.91L408.49 482.37L408.07 482.81L407.62 483.23L407.16 483.64L406.69 484.03L406.2 484.41L405.7 484.76L405.18 485.1L404.65 485.41L404.11 485.71L403.55 485.98L402.98 486.24L402.4 486.47L401.81 486.68L401.21 486.87L400.6 487.03L399.98 487.17L399.35 487.29L398.71 487.38L398.07 487.45L397.42 487.49L396.76 487.5L66.76 487.5L66.1 487.49L65.45 487.45L64.8 487.38L64.16 487.29L63.53 487.17L62.91 487.03L62.3 486.87L61.7 486.68L61.11 486.47L60.53 486.24L59.96 485.98L59.41 485.71L58.86 485.41L58.33 485.1L57.82 484.76L57.31 484.41L56.82 484.03L56.35 483.64L55.89 483.23L55.45 482.81L55.02 482.37L54.61 481.91L54.22 481.43L53.85 480.94L53.5 480.44L53.16 479.92L52.84 479.39L52.55 478.85L52.27 478.29L52.02 477.72L51.79 477.15L51.58 476.55L51.39 475.95L51.23 475.34L51.09 474.72L50.97 474.09L50.88 473.46L50.81 472.81L50.77 472.16L50.76 471.5L50.76 371.5L50.77 370.84L50.81 370.19L50.88 369.54L50.97 368.91L51.09 368.28L51.23 367.66L51.39 367.05L51.58 366.45L51.79 365.85L52.02 365.28L52.27 364.71L52.55 364.15L52.84 363.61L53.16 363.08L53.5 362.56L53.85 362.06L54.22 361.57L54.61 361.09L55.02 360.63L55.45 360.19L55.89 359.77L56.35 359.36L56.82 358.97L57.31 358.59L57.82 358.24L58.33 357.9L58.86 357.59L59.41 357.29L59.96 357.02L60.53 356.76L61.11 356.53L61.7 356.32L62.3 356.13L62.91 355.97L63.53 355.83L64.16 355.71L64.8 355.62L65.45 355.55L66.1 355.51L66.76 355.5L100.76 355.5L100.76 347.5L66.76 347.5L66.1 347.49L65.45 347.45L64.8 347.38L64.16 347.29L63.53 347.17L62.91 347.03L62.3 346.87L61.7 346.68L61.11 346.47L60.53 346.24L59.96 345.98L59.41 345.71L58.86 345.41L58.33 345.1L57.82 344.76L57.31 344.41L56.82 344.03L56.35 343.64L55.89 343.23L55.45 342.81L55.02 342.37L54.61 341.91L54.22 341.43L53.85 340.94L53.5 340.44L53.16 339.92L52.84 339.39L52.55 338.85L52.27 338.29L52.02 337.72L51.79 337.15L51.58 336.55L51.39 335.95L51.23 335.34L51.09 334.72L50.97 334.09L50.88 333.46L50.81 332.81L50.77 332.16L50.76 331.5L50.76 231.5L50.77 230.84L50.81 230.19L50.88 229.54L50.97 228.91L51.09 228.28L51.23 227.66L51.39 227.05L51.58 226.45L51.79 225.85L52.02 225.28L52.27 224.71L52.55 224.15L52.84 223.61L53.16 223.08L53.5 222.56L53.85 222.06L54.22 221.57L54.61 221.09L55.02 220.63L55.45 220.19L55.89 219.77L56.35 219.36L56.82 218.97L57.31 218.59L57.82 218.24L58.33 217.9L58.86 217.59L59.41 217.29L59.96 217.02L60.53 216.76L61.11 216.53L61.7 216.32L62.3 216.13L62.91 215.97L63.53 215.83L64.16 215.71L64.8 215.62L65.45 215.55L66.1 215.51L66.76 215.5L100.76 215.5L100.76 207.5L66.76 207.5L66.1 207.49L65.45 207.45L64.8 207.38L64.16 207.29L63.53 207.17L62.91 207.03L62.3 206.87L61.7 206.68L61.11 206.47L60.53 206.24L59.96 205.98L59.41 205.71L58.86 205.41L58.33 205.1L57.82 204.76L57.31 204.41L56.82 204.03L56.35 203.64L55.89 203.23L55.45 202.81L55.02 202.37L54.61 201.91L54.22 201.43L53.85 200.94L53.5 200.44L53.16 199.92L52.84 199.39L52.55 198.85L52.27 198.29L52.02 197.72L51.79 197.15L51.58 196.55L51.39 195.95L51.23 195.34L51.09 194.72L50.97 194.09L50.88 193.46L50.81 192.81L50.77 192.16L50.76 191.5L50.76 91.5L50.77 90.84L50.81 90.19L50.88 89.54L50.97 88.91L51.09 88.28L51.23 87.66L51.39 87.05L51.58 86.45L51.79 85.85L52.02 85.28L52.27 84.71L52.55 84.15L52.84 83.61L53.16 83.08L53.5 82.56L53.85 82.06L54.22 81.57L54.61 81.09L55.02 80.63L55.45 80.19L55.89 79.77L56.35 79.36L56.82 78.97L57.31 78.59L57.82 78.24L58.33 77.9L58.86 77.59L59.41 77.29L59.96 77.02L60.53 76.76L61.11 76.53L61.7 76.32L62.3 76.13L62.91 75.97L63.53 75.83L64.16 75.71L64.8 75.62L65.45 75.55L66.1 75.51L66.76 75.5L274.72 75.5L274.76 75.41L274.81 75.31L274.85 75.22L274.89 75.13L274.94 75.03L274.99 74.94L275.03 74.85L275.08 74.76L275.14 74.68L275.19 74.59L275.24 74.5L275.3 74.42L275.36 74.33L275.42 74.25L275.48 74.17L275.54 74.09L275.6 74.01L275.67 73.93L275.73 73.85L275.8 73.78L275.87 73.7L275.94 73.63L276.01 73.55L276.08 73.48L276.15 73.41L276.23 73.34L276.3 73.27L276.38 73.21L276.46 73.14L276.54 73.08L276.62 73.02L276.7 72.95L276.78 72.89L276.86 72.83L276.95 72.78L277.03 72.72L277.12 72.67L277.21 72.61L277.3 72.56L277.39 72.51L363.65 25.24L363.78 25.17L363.92 25.1L364.06 25.04L364.19 24.98L364.33 24.92L364.47 24.87L364.61 24.82L364.75 24.77L364.9 24.73L365.04 24.69L365.18 24.65L365.33 24.62L365.47 24.6L365.62 24.57L365.76 24.55L365.91 24.53L366.06 24.52L366.2 24.51L366.35 24.5L366.5 24.5L366.64 24.5L366.79 24.51ZM66.59 367.5L66.43 367.51L66.27 367.53L66.11 367.55L65.95 367.58L65.8 367.62L65.64 367.66L65.49 367.7L65.34 367.76L65.2 367.81L65.06 367.88L64.92 367.95L64.78 368.02L64.65 368.1L64.52 368.18L64.39 368.27L64.27 368.37L64.15 368.46L64.04 368.57L63.93 368.67L63.82 368.78L63.72 368.9L63.62 369.02L63.53 369.14L63.44 369.26L63.36 369.39L63.28 369.53L63.2 369.66L63.13 369.8L63.07 369.94L63.01 370.09L62.96 370.24L62.91 370.39L62.87 370.54L62.84 370.69L62.81 370.85L62.79 371.01L62.77 371.17L62.76 371.34L62.76 371.5L62.76 471.5L62.76 471.66L62.77 471.83L62.79 471.99L62.81 472.15L62.84 472.31L62.87 472.46L62.91 472.61L62.96 472.76L63.01 472.91L63.07 473.06L63.13 473.2L63.2 473.34L63.28 473.47L63.36 473.61L63.44 473.74L63.53 473.86L63.62 473.98L63.72 474.1L63.82 474.22L63.93 474.33L64.04 474.43L64.15 474.54L64.27 474.63L64.39 474.73L64.52 474.82L64.65 474.9L64.78 474.98L64.92 475.05L65.06 475.12L65.2 475.19L65.34 475.24L65.49 475.3L65.64 475.34L65.8 475.38L65.95 475.42L66.11 475.45L66.27 475.47L66.43 475.49L66.59 475.5L66.76 475.5L396.76 475.5L396.92 475.5L397.09 475.49L397.25 475.47L397.41 475.45L397.56 475.42L397.72 475.38L397.87 475.34L398.02 475.3L398.17 475.24L398.31 475.19L398.46 475.12L398.6 475.05L398.73 474.98L398.86 474.9L398.99 474.82L399.12 474.73L399.24 474.63L399.36 474.54L399.47 474.43L399.59 474.33L399.69 474.22L399.79 474.1L399.89 473.98L399.99 473.86L400.07 473.74L400.16 473.61L400.24 473.47L400.31 473.34L400.38 473.2L400.44 473.06L400.5 472.91L400.55 472.76L400.6 472.61L400.64 472.46L400.68 472.31L400.7 472.15L400.73 471.99L400.74 471.83L400.75 471.66L400.76 471.5L400.76 371.5L400.75 371.34L400.74 371.17L400.73 371.01L400.7 370.85L400.68 370.69L400.64 370.54L400.6 370.39L400.55 370.24L400.5 370.09L400.44 369.94L400.38 369.8L400.31 369.66L400.24 369.53L400.16 369.39L400.07 369.26L399.99 369.14L399.89 369.02L399.79 368.9L399.69 368.78L399.59 368.67L399.47 368.57L399.36 368.46L399.24 368.37L399.12 368.27L398.99 368.18L398.86 368.1L398.73 368.02L398.6 367.95L398.46 367.88L398.31 367.81L398.17 367.76L398.02 367.7L397.87 367.66L397.72 367.62L397.56 367.58L397.41 367.55L397.25 367.53L397.09 367.51L396.92 367.5L396.76 367.5L361.95 367.5L361.87 367.64L361.78 367.77L361.69 367.91L361.6 368.04L361.51 368.16L361.41 368.29L361.31 368.41L361.2 368.52L361.1 368.64L360.99 368.75L360.87 368.86L360.76 368.97L360.64 369.07L360.52 369.17L360.4 369.26L360.28 369.36L360.15 369.45L360.02 369.53L359.89 369.62L359.75 369.7L359.62 369.77L359.48 369.84L359.34 369.91L359.2 369.98L359.06 370.04L358.91 370.1L358.77 370.15L358.62 370.2L358.47 370.25L358.32 370.29L358.17 370.33L358.02 370.37L357.86 370.4L357.71 370.42L357.55 370.45L357.39 370.47L357.24 370.48L357.08 370.49L356.92 370.5L356.76 370.5L106.76 370.5L106.6 370.5L106.44 370.49L106.28 370.48L106.12 370.47L105.96 370.45L105.81 370.42L105.65 370.4L105.5 370.37L105.34 370.33L105.19 370.29L105.04 370.25L104.89 370.2L104.75 370.15L104.6 370.1L104.46 370.04L104.31 369.98L104.17 369.91L104.03 369.84L103.9 369.77L103.76 369.7L103.63 369.62L103.49 369.53L103.37 369.45L103.24 369.36L103.11 369.26L102.99 369.17L102.87 369.07L102.75 368.97L102.64 368.86L102.53 368.75L102.42 368.64L102.31 368.52L102.21 368.41L102.11 368.29L102.01 368.16L101.91 368.04L101.82 367.91L101.73 367.77L101.65 367.64L101.57 367.5L66.76 367.5L66.59 367.5ZM112.76 358.5L350.76 358.5L350.76 343.5L112.76 343.5L112.76 358.5ZM66.59 227.5L66.43 227.51L66.27 227.53L66.11 227.55L65.95 227.58L65.8 227.62L65.64 227.66L65.49 227.7L65.34 227.76L65.2 227.81L65.06 227.88L64.92 227.95L64.78 228.02L64.65 228.1L64.52 228.18L64.39 228.27L64.27 228.37L64.15 228.46L64.04 228.57L63.93 228.67L63.82 228.78L63.72 228.9L63.62 229.02L63.53 229.14L63.44 229.26L63.36 229.39L63.28 229.53L63.2 229.66L63.13 229.8L63.07 229.94L63.01 230.09L62.96 230.24L62.91 230.39L62.87 230.54L62.84 230.69L62.81 230.85L62.79 231.01L62.77 231.17L62.76 231.34L62.76 231.5L62.76 331.5L62.76 331.66L62.77 331.83L62.79 331.99L62.81 332.15L62.84 332.31L62.87 332.46L62.91 332.61L62.96 332.76L63.01 332.91L63.07 333.06L63.13 333.2L63.2 333.34L63.28 333.47L63.36 333.61L63.44 333.74L63.53 333.86L63.62 333.98L63.72 334.1L63.82 334.22L63.93 334.33L64.04 334.43L64.15 334.54L64.27 334.63L64.39 334.73L64.52 334.82L64.65 334.9L64.78 334.98L64.92 335.05L65.06 335.12L65.2 335.19L65.34 335.24L65.49 335.3L65.64 335.34L65.8 335.38L65.95 335.42L66.11 335.45L66.27 335.47L66.43 335.49L66.59 335.5L66.76 335.5L101.11 335.5L101.17 335.32L101.24 335.15L101.32 334.97L101.4 334.81L101.49 334.64L101.58 334.48L101.67 334.32L101.78 334.16L101.88 334.01L101.99 333.86L102.1 333.72L102.22 333.58L102.34 333.44L102.47 333.31L102.6 333.18L102.73 333.06L102.87 332.94L103.01 332.82L103.15 332.71L103.3 332.6L103.45 332.5L103.6 332.4L103.76 332.31L103.91 332.22L104.08 332.14L104.24 332.06L104.41 331.98L104.58 331.91L104.75 331.85L104.92 331.79L105.1 331.74L105.28 331.69L105.45 331.64L105.64 331.61L105.82 331.57L106 331.55L106.19 331.53L106.38 331.51L106.57 331.5L106.76 331.5L356.76 331.5L356.95 331.5L357.14 331.51L357.32 331.53L357.51 331.55L357.69 331.57L357.88 331.61L358.06 331.64L358.24 331.69L358.42 331.74L358.59 331.79L358.77 331.85L358.94 331.91L359.11 331.98L359.27 332.06L359.44 332.13L359.6 332.22L359.76 332.31L359.92 332.4L360.07 332.5L360.22 332.6L360.37 332.71L360.51 332.82L360.65 332.94L360.79 333.06L360.92 333.18L361.05 333.31L361.17 333.44L361.29 333.58L361.41 333.72L361.53 333.86L361.64 334.01L361.74 334.16L361.84 334.32L361.94 334.48L362.03 334.64L362.11 334.81L362.19 334.97L362.27 335.15L362.34 335.32L362.41 335.5L396.76 335.5L396.92 335.5L397.09 335.49L397.25 335.47L397.41 335.45L397.56 335.42L397.72 335.38L397.87 335.34L398.02 335.3L398.17 335.24L398.31 335.19L398.46 335.12L398.6 335.05L398.73 334.98L398.86 334.9L398.99 334.82L399.12 334.73L399.24 334.63L399.36 334.54L399.47 334.43L399.59 334.33L399.69 334.22L399.79 334.1L399.89 333.98L399.99 333.86L400.07 333.74L400.16 333.61L400.24 333.47L400.31 333.34L400.38 333.2L400.44 333.06L400.5 332.91L400.55 332.76L400.6 332.61L400.64 332.46L400.68 332.31L400.7 332.15L400.73 331.99L400.74 331.83L400.75 331.66L400.76 331.5L400.76 240.43L400.31 240.71L399.86 240.99L399.41 241.27L398.96 241.54L398.51 241.81L398.06 242.08L397.61 242.35L397.15 242.62L396.7 242.89L396.24 243.15L395.78 243.41L395.32 243.67L394.86 243.93L394.4 244.19L393.94 244.44L393.48 244.69L393.02 244.94L392.55 245.19L392.09 245.44L391.62 245.68L391.15 245.93L390.68 246.17L390.21 246.41L389.74 246.64L389.27 246.88L388.8 247.11L388.33 247.35L387.85 247.58L387.38 247.8L386.9 248.03L386.42 248.25L385.95 248.48L385.47 248.7L384.99 248.91L384.51 249.13L384.02 249.35L383.54 249.56L383.06 249.77L382.57 249.98L382.09 250.19L368.6 256.01L368.49 256.06L368.37 256.1L368.25 256.15L368.14 256.19L368.02 256.22L367.9 256.26L367.78 256.29L367.66 256.32L367.55 256.35L367.43 256.38L367.31 256.4L367.18 256.42L367.06 256.44L366.94 256.46L366.82 256.47L366.7 256.48L366.58 256.49L366.46 256.5L366.33 256.5L366.21 256.5L366.09 256.5L365.97 256.49L365.85 256.49L365.72 256.48L365.6 256.47L365.48 256.45L365.36 256.44L365.24 256.42L365.12 256.4L365 256.37L364.88 256.35L364.76 256.32L364.64 256.29L364.52 256.25L364.4 256.22L364.29 256.18L364.17 256.14L364.05 256.09L363.94 256.05L363.83 256L351.85 250.78L350.98 250.39L350.1 250L349.23 249.6L348.36 249.19L347.5 248.78L346.64 248.36L345.78 247.93L344.93 247.5L344.08 247.06L343.23 246.62L342.39 246.17L341.54 245.71L340.71 245.25L339.87 244.78L339.04 244.3L338.22 243.82L337.39 243.33L336.57 242.84L335.76 242.34L334.95 241.83L334.14 241.32L333.33 240.81L332.53 240.28L331.74 239.75L330.94 239.22L330.16 238.68L329.37 238.13L328.59 237.58L327.81 237.02L327.04 236.46L326.27 235.89L325.51 235.31L324.75 234.73L323.99 234.14L323.24 233.55L322.49 232.95L321.75 232.35L321.01 231.74L320.27 231.12L319.54 230.5L106.76 230.5L106.6 230.5L106.44 230.49L106.28 230.48L106.12 230.47L105.96 230.45L105.81 230.42L105.65 230.4L105.5 230.37L105.34 230.33L105.19 230.29L105.04 230.25L104.89 230.2L104.75 230.15L104.6 230.1L104.46 230.04L104.31 229.98L104.17 229.91L104.03 229.84L103.9 229.77L103.76 229.7L103.63 229.62L103.49 229.53L103.37 229.45L103.24 229.36L103.11 229.26L102.99 229.17L102.87 229.07L102.75 228.97L102.64 228.86L102.53 228.75L102.42 228.64L102.31 228.52L102.21 228.41L102.11 228.29L102.01 228.16L101.91 228.04L101.82 227.91L101.73 227.77L101.65 227.64L101.57 227.5L66.76 227.5L66.59 227.5ZM286.27 132.32L286.33 135.8L286.48 139.27L286.74 142.72L287.1 146.15L287.56 149.55L288.11 152.93L288.76 156.28L289.51 159.6L290.35 162.89L291.28 166.15L292.31 169.37L293.43 172.56L294.63 175.71L295.92 178.82L297.3 181.88L298.77 184.91L300.32 187.88L301.95 190.82L303.67 193.7L305.47 196.53L307.34 199.31L309.3 202.03L311.33 204.7L313.45 207.31L315.63 209.87L317.89 212.36L320.22 214.78L322.63 217.15L325.1 219.44L327.65 221.67L330.26 223.83L332.94 225.91L335.69 227.92L338.5 229.86L341.37 231.72L344.31 233.5L347.31 235.19L350.37 236.81L353.48 238.34L356.66 239.79L366.23 243.96L377.35 239.16L377.39 239.14L380.63 237.73L383.8 236.22L386.92 234.63L389.98 232.95L392.97 231.19L395.91 229.35L398.77 227.42L401.58 225.42L404.31 223.34L406.98 221.19L409.58 218.96L412.1 216.67L414.56 214.3L416.94 211.87L419.25 209.37L421.48 206.81L423.64 204.19L425.72 201.5L427.72 198.76L429.63 195.97L431.47 193.11L433.23 190.21L434.9 187.26L436.48 184.25L437.98 181.2L439.39 178.11L440.71 174.97L441.94 171.79L443.08 168.57L444.13 165.32L445.09 162.02L445.94 158.7L446.71 155.34L447.37 151.95L447.94 148.53L448.4 145.09L448.77 141.62L449.03 138.13L449.19 134.62L449.24 131.09L449.25 81.37L366.57 37.32L286.27 81.33L286.27 132.32ZM112.76 218.5L307.28 218.5L306.97 218.15L306.65 217.79L306.34 217.43L306.03 217.08L305.71 216.72L305.41 216.36L305.1 216L304.79 215.64L304.49 215.27L304.18 214.91L303.88 214.55L303.58 214.18L303.28 213.81L302.98 213.44L302.68 213.07L302.39 212.7L302.09 212.33L301.8 211.96L301.51 211.59L301.22 211.21L300.93 210.84L300.64 210.46L300.35 210.08L300.07 209.7L299.78 209.32L299.5 208.94L299.22 208.56L298.94 208.18L298.66 207.79L298.39 207.41L298.11 207.02L297.84 206.63L297.57 206.25L297.3 205.86L297.03 205.47L296.76 205.07L296.49 204.68L296.23 204.29L295.96 203.9L295.7 203.5L112.76 203.5L112.76 218.5ZM66.59 87.5L66.43 87.51L66.27 87.53L66.11 87.55L65.95 87.58L65.8 87.62L65.64 87.66L65.49 87.7L65.34 87.76L65.2 87.81L65.06 87.88L64.92 87.95L64.78 88.02L64.65 88.1L64.52 88.18L64.39 88.27L64.27 88.37L64.15 88.46L64.04 88.57L63.93 88.67L63.82 88.78L63.72 88.9L63.62 89.02L63.53 89.14L63.44 89.26L63.36 89.39L63.28 89.53L63.2 89.66L63.13 89.8L63.07 89.94L63.01 90.09L62.96 90.24L62.91 90.39L62.87 90.54L62.84 90.69L62.81 90.85L62.79 91.01L62.77 91.17L62.76 91.34L62.76 91.5L62.76 191.5L62.76 191.66L62.77 191.83L62.79 191.99L62.81 192.15L62.84 192.31L62.87 192.46L62.91 192.61L62.96 192.76L63.01 192.91L63.07 193.06L63.13 193.2L63.2 193.34L63.28 193.47L63.36 193.61L63.44 193.74L63.53 193.86L63.62 193.98L63.72 194.1L63.82 194.22L63.93 194.33L64.04 194.43L64.15 194.54L64.27 194.63L64.39 194.73L64.52 194.82L64.65 194.9L64.78 194.98L64.92 195.05L65.06 195.12L65.2 195.19L65.34 195.24L65.49 195.3L65.64 195.34L65.8 195.38L65.95 195.42L66.11 195.45L66.27 195.47L66.43 195.49L66.59 195.5L66.76 195.5L101.11 195.5L101.18 195.32L101.25 195.15L101.32 194.97L101.41 194.81L101.49 194.64L101.58 194.48L101.68 194.32L101.78 194.16L101.88 194.01L101.99 193.86L102.11 193.72L102.22 193.58L102.35 193.44L102.47 193.31L102.6 193.18L102.73 193.06L102.87 192.94L103.01 192.82L103.15 192.71L103.3 192.6L103.45 192.5L103.6 192.4L103.76 192.31L103.92 192.22L104.08 192.14L104.25 192.06L104.41 191.98L104.58 191.91L104.75 191.85L104.93 191.79L105.1 191.74L105.28 191.69L105.46 191.64L105.64 191.61L105.82 191.57L106.01 191.55L106.2 191.53L106.38 191.51L106.57 191.5L106.76 191.5L288.66 191.5L287.96 190.12L287.28 188.74L286.61 187.35L285.96 185.95L285.33 184.55L284.71 183.14L284.11 181.72L283.53 180.3L282.97 178.87L282.42 177.43L281.89 175.99L281.38 174.54L280.89 173.09L280.41 171.63L279.95 170.16L279.51 168.7L279.09 167.22L278.68 165.74L278.29 164.26L277.92 162.77L277.57 161.28L277.23 159.78L276.91 158.28L276.61 156.78L276.33 155.27L276.07 153.76L275.82 152.24L275.59 150.72L275.38 149.2L275.19 147.68L275.02 146.15L274.86 144.62L274.72 143.09L274.6 141.56L274.5 140.02L274.42 138.48L274.35 136.94L274.31 135.4L274.28 133.86L274.27 132.32L274.27 87.5L66.76 87.5L66.59 87.5Z" id="cSIJUM0vZ"/><path d="M369.89 84.59L370.94 84.69L371.97 84.84L373 85.03L374.01 85.26L375 85.52L375.98 85.83L376.94 86.17L377.88 86.54L378.8 86.96L379.71 87.4L380.59 87.88L381.45 88.4L382.29 88.94L383.11 89.52L383.91 90.12L384.68 90.76L385.42 91.42L386.14 92.12L386.83 92.83L387.5 93.58L388.13 94.35L388.74 95.14L389.32 95.96L389.86 96.8L390.37 97.67L390.85 98.55L391.3 99.46L391.71 100.38L392.09 101.32L392.43 102.28L392.74 103.26L393 104.25L393.23 105.26L393.42 106.28L393.56 107.32L393.67 108.37L393.74 109.43L393.76 110.5L393.76 125.68L394.21 125.87L394.65 126.07L395.08 126.29L395.5 126.51L395.92 126.75L396.33 127L396.73 127.26L397.11 127.53L397.49 127.82L397.87 128.11L398.23 128.41L398.58 128.73L398.92 129.05L399.25 129.38L399.57 129.73L399.88 130.08L400.18 130.44L400.47 130.8L400.75 131.18L401.02 131.56L401.27 131.96L401.52 132.35L401.75 132.76L401.97 133.17L402.18 133.59L402.38 134.02L402.56 134.45L402.73 134.89L402.89 135.33L403.04 135.78L403.17 136.23L403.29 136.69L403.4 137.15L403.49 137.62L403.57 138.09L403.64 138.57L403.69 139.05L403.73 139.53L403.75 140.01L403.76 140.5L403.76 180.5L403.74 181.16L403.7 181.81L403.64 182.46L403.55 183.09L403.43 183.72L403.29 184.34L403.12 184.95L402.94 185.55L402.73 186.15L402.49 186.72L402.24 187.29L401.97 187.85L401.67 188.39L401.35 188.92L401.02 189.44L400.66 189.94L400.29 190.43L399.9 190.91L399.49 191.37L399.07 191.81L398.62 192.23L398.16 192.64L397.69 193.03L397.2 193.41L396.7 193.76L396.18 194.1L395.65 194.41L395.11 194.71L394.55 194.98L393.98 195.24L393.4 195.47L392.81 195.68L392.21 195.87L391.6 196.03L390.98 196.17L390.35 196.29L389.71 196.38L389.07 196.45L388.42 196.49L387.76 196.5L347.76 196.5L347.1 196.49L346.45 196.45L345.8 196.38L345.16 196.29L344.53 196.17L343.91 196.03L343.3 195.87L342.7 195.68L342.11 195.47L341.53 195.24L340.96 194.98L340.41 194.71L339.86 194.41L339.33 194.1L338.82 193.76L338.31 193.41L337.82 193.03L337.35 192.64L336.89 192.23L336.45 191.81L336.02 191.37L335.61 190.91L335.22 190.43L334.85 189.94L334.5 189.44L334.16 188.92L333.84 188.39L333.55 187.85L333.27 187.29L333.02 186.72L332.79 186.15L332.58 185.55L332.39 184.95L332.23 184.34L332.09 183.72L331.97 183.09L331.88 182.46L331.81 181.81L331.77 181.16L331.76 180.5L331.76 140.5L331.77 140.01L331.79 139.53L331.82 139.05L331.88 138.57L331.94 138.09L332.02 137.62L332.11 137.15L332.22 136.69L332.34 136.23L332.47 135.78L332.62 135.33L332.78 134.89L332.95 134.45L333.14 134.02L333.33 133.59L333.54 133.17L333.76 132.76L334 132.35L334.24 131.96L334.5 131.56L334.76 131.18L335.04 130.8L335.33 130.44L335.63 130.08L335.94 129.73L336.26 129.38L336.59 129.05L336.94 128.73L337.29 128.41L337.65 128.11L338.02 127.82L338.4 127.53L338.79 127.26L339.19 127L339.59 126.75L340.01 126.51L340.43 126.29L340.87 126.07L341.31 125.87L341.76 125.68L341.76 110.5L341.78 109.43L341.84 108.37L341.95 107.32L342.1 106.28L342.29 105.26L342.51 104.25L342.78 103.26L343.08 102.28L343.42 101.32L343.8 100.38L344.21 99.46L344.66 98.55L345.14 97.67L345.65 96.8L346.2 95.96L346.77 95.14L347.38 94.35L348.02 93.58L348.68 92.83L349.37 92.12L350.09 91.42L350.84 90.76L351.61 90.12L352.4 89.52L353.22 88.94L354.06 88.4L354.92 87.88L355.81 87.4L356.71 86.96L357.64 86.54L358.58 86.17L359.54 85.83L360.52 85.52L361.51 85.26L362.52 85.03L363.54 84.84L364.58 84.69L365.62 84.59L366.69 84.52L367.76 84.5L368.83 84.52L369.89 84.59ZM347.58 136.5L347.4 136.52L347.23 136.53L347.06 136.56L346.89 136.59L346.72 136.64L346.56 136.68L346.4 136.74L346.24 136.8L346.08 136.87L345.93 136.94L345.79 137.02L345.64 137.1L345.5 137.19L345.37 137.29L345.24 137.39L345.11 137.5L344.99 137.61L344.87 137.73L344.76 137.85L344.65 137.98L344.55 138.11L344.45 138.25L344.36 138.39L344.28 138.53L344.2 138.68L344.12 138.83L344.06 138.98L343.99 139.14L343.94 139.3L343.89 139.46L343.85 139.63L343.82 139.8L343.79 139.97L343.77 140.15L343.76 140.32L343.76 140.5L343.76 180.5L343.76 180.68L343.77 180.85L343.79 181.03L343.82 181.2L343.85 181.37L343.89 181.54L343.94 181.7L343.99 181.86L344.06 182.02L344.12 182.17L344.2 182.32L344.28 182.47L344.36 182.61L344.45 182.75L344.55 182.89L344.65 183.02L344.76 183.15L344.87 183.27L344.99 183.39L345.11 183.5L345.24 183.61L345.37 183.71L345.5 183.81L345.64 183.9L345.79 183.98L345.93 184.06L346.08 184.13L346.24 184.2L346.4 184.26L346.56 184.32L346.72 184.36L346.89 184.41L347.06 184.44L347.23 184.47L347.4 184.48L347.58 184.5L347.76 184.5L387.76 184.5L387.94 184.5L388.11 184.48L388.29 184.47L388.46 184.44L388.63 184.41L388.79 184.36L388.96 184.32L389.12 184.26L389.28 184.2L389.43 184.13L389.58 184.06L389.73 183.98L389.87 183.9L390.01 183.81L390.15 183.71L390.28 183.61L390.4 183.5L390.53 183.39L390.64 183.27L390.76 183.15L390.86 183.02L390.97 182.89L391.06 182.75L391.15 182.61L391.24 182.47L391.32 182.32L391.39 182.17L391.46 182.02L391.52 181.86L391.57 181.7L391.62 181.54L391.66 181.37L391.7 181.2L391.72 181.03L391.74 180.85L391.75 180.68L391.76 180.5L391.76 140.5L391.75 140.32L391.74 140.15L391.72 139.97L391.7 139.8L391.66 139.63L391.62 139.46L391.57 139.3L391.52 139.14L391.46 138.98L391.39 138.83L391.32 138.68L391.24 138.53L391.15 138.39L391.06 138.25L390.97 138.11L390.86 137.98L390.76 137.85L390.64 137.73L390.53 137.61L390.4 137.5L390.28 137.39L390.15 137.29L390.01 137.19L389.87 137.1L389.73 137.02L389.58 136.94L389.43 136.87L389.28 136.8L389.12 136.74L388.96 136.68L388.79 136.64L388.63 136.59L388.46 136.56L388.29 136.53L388.11 136.52L387.94 136.5L387.76 136.5L347.76 136.5L347.58 136.5ZM365.37 96.71L364.22 96.95L363.12 97.29L362.05 97.72L361.02 98.23L360.05 98.82L359.13 99.48L358.27 100.21L357.47 101.01L356.74 101.87L356.07 102.79L355.49 103.77L354.98 104.79L354.55 105.86L354.21 106.97L353.96 108.11L353.81 109.29L353.76 110.5L353.76 124.5L381.76 124.5L381.76 110.5L381.7 109.29L381.55 108.11L381.3 106.97L380.96 105.86L380.54 104.79L380.03 103.77L379.44 102.79L378.78 101.87L378.04 101.01L377.24 100.21L376.38 99.48L375.46 98.82L374.49 98.23L373.47 97.72L372.4 97.29L371.29 96.95L370.14 96.7L368.96 96.55L367.76 96.5L366.55 96.55L365.37 96.71Z" id="cvSHvT1yV"/></defs><g transform="matrix(1, 0, 0, 1, -0.000004676672233472345, -0.000004676672233472345)"><g transform="matrix(1.531249761581421, 0, 0, 1.531249761581421, 285.9999694824219, 0)"><g><g><g><use opacity="1" fill="#007bff" fill-opacity="1" xlink:href="#c6sn5WuiE"/><g><use opacity="1" fill-opacity="0" stroke="#000000" stroke-width="1" stroke-opacity="0" xlink:href="#c6sn5WuiE"/></g></g><g><use opacity="1" fill="#007bff" fill-opacity="1" xlink:href="#bgIoYqRuR"/><g><use opacity="1" fill-opacity="0" stroke="#000000" stroke-width="1" stroke-opacity="0" xlink:href="#bgIoYqRuR"/></g></g><g><use opacity="1" fill="#007bff" fill-opacity="1" xlink:href="#g2J7lqJ4"/><g><use opacity="1" fill-opacity="0" stroke="#000000" stroke-width="1" stroke-opacity="0" xlink:href="#g2J7lqJ4"/></g></g><g><use opacity="1" fill="#007bff" fill-opacity="1" xlink:href="#l4WLUNfDQ"/><g><use opacity="1" fill-opacity="0" stroke="#000000" stroke-width="1" stroke-opacity="0" xlink:href="#l4WLUNfDQ"/></g></g><g><use opacity="1" fill="#007bff" fill-opacity="1" xlink:href="#f37CKiYhgX"/><g><use opacity="1" fill-opacity="0" stroke="#000000" stroke-width="1" stroke-opacity="0" xlink:href="#f37CKiYhgX"/></g></g><g><use opacity="1" fill="#007bff" fill-opacity="1" xlink:href="#crPfHbKRc"/><g><use opacity="1" fill-opacity="0" stroke="#000000" stroke-width="1" stroke-opacity="0" xlink:href="#crPfHbKRc"/></g></g><g><use opacity="1" fill="#007bff" fill-opacity="1" xlink:href="#c8UaZRdou"/><g><use opacity="1" fill-opacity="0" stroke="#000000" stroke-width="1" stroke-opacity="0" xlink:href="#c8UaZRdou"/></g></g><g><use opacity="1" fill="#007bff" fill-opacity="1" xlink:href="#ahj4KOJBt"/><g><use opacity="1" fill-opacity="0" stroke="#007bff" stroke-width="1" stroke-opacity="0" xlink:href="#ahj4KOJBt"/></g></g><g><use opacity="1" fill="#007bff" fill-opacity="1" xlink:href="#b1toTy54Hp"/><g><use opacity="1" fill-opacity="0" stroke="#007bff" stroke-width="1" stroke-opacity="0" xlink:href="#b1toTy54Hp"/></g></g><g><use opacity="1" fill="#007bff" fill-opacity="1" xlink:href="#a6s4Uz56EF"/><g><use opacity="1" fill-opacity="0" stroke="#000000" stroke-width="1" stroke-opacity="0" xlink:href="#a6s4Uz56EF"/></g></g><g><use opacity="1" fill="#007bff" fill-opacity="1" xlink:href="#b8preKXgAU"/><g><use opacity="1" fill-opacity="0" stroke="#000000" stroke-width="1" stroke-opacity="0" xlink:href="#b8preKXgAU"/></g></g><g><use opacity="1" fill="#007bff" fill-opacity="1" xlink:href="#d9UHf2e68"/><g><use opacity="1" fill-opacity="0" stroke="#000000" stroke-width="1" stroke-opacity="0" xlink:href="#d9UHf2e68"/></g></g><g><use opacity="1" fill="#007bff" fill-opacity="1" xlink:href="#e2nwVs1WHD"/><g><use opacity="1" fill-opacity="0" stroke="#000000" stroke-width="1" stroke-opacity="0" xlink:href="#e2nwVs1WHD"/></g></g><g><use opacity="1" fill="#007bff" fill-opacity="1" xlink:href="#eD6H9o9CW"/><g><use opacity="1" fill-opacity="0" stroke="#000000" stroke-width="1" stroke-opacity="0" xlink:href="#eD6H9o9CW"/></g></g><g><use opacity="1" fill="#007bff" fill-opacity="1" xlink:href="#echfRSDBc"/><g><use opacity="1" fill-opacity="0" stroke="#000000" stroke-width="1" stroke-opacity="0" xlink:href="#echfRSDBc"/></g></g><g><use opacity="1" fill="#007bff" fill-opacity="1" xlink:href="#a6GvH5OMj"/><g><use opacity="1" fill-opacity="0" stroke="#000000" stroke-width="1" stroke-opacity="0" xlink:href="#a6GvH5OMj"/></g></g><g><use opacity="1" fill="#007bff" fill-opacity="1" xlink:href="#baBUOgAKC"/><g><use opacity="1" fill-opacity="0" stroke="#000000" stroke-width="1" stroke-opacity="0" xlink:href="#baBUOgAKC"/></g></g><g><use opacity="1" fill="#007bff" fill-opacity="1" xlink:href="#b2eTtcoOG"/><g><use opacity="1" fill-opacity="0" stroke="#000000" stroke-width="1" stroke-opacity="0" xlink:href="#b2eTtcoOG"/></g></g><g><use opacity="1" fill="#007bff" fill-opacity="1" xlink:href="#jYhfu6dN"/><g><use opacity="1" fill-opacity="0" stroke="#000000" stroke-width="1" stroke-opacity="0" xlink:href="#jYhfu6dN"/></g></g><g transform="matrix(1, 0, 0, 1, 0, 0)"/><g><use opacity="1" fill="#28a745" fill-opacity="1" xlink:href="#cvSHvT1yV"/><g><use opacity="1" fill-opacity="0" stroke="#28a745" stroke-width="1" stroke-opacity="0" style="fill-opacity: 1; fill: rgb(0, 123, 255);" xlink:href="#cvSHvT1yV"/></g></g><use opacity="1" fill="#007bff" fill-opacity="1" transform="matrix(1, 0, 0, 1, 0, 0)" style="fill: rgb(230, 230, 230);" xlink:href="#cSIJUM0vZ"/></g></g></g><g transform="matrix(1.2290728980788341, 0, 0, 1.2290728980788341, -0.00005520691047422588, 8.264832077091569)"><title>going up</title><g>
  <title>background</title>
  <path d="M -1 -1 H 801 V 601 H -1 V -1 Z" fill="none" id="canvas_background"/>
 </g><g>
  <title>Layer 1</title>
  
  
  
  
  <path d="M 1038.849976 727.559998 A 511 16.99 0 0 1 527.849976 744.549997 A 511 16.99 0 0 1 16.849976 727.559998 A 511 16.99 0 0 1 527.849976 710.569998 A 511 16.99 0 0 1 1038.849976 727.559998 Z" id="svg_22" opacity="0.1" fill="#007bff"/>
  
  
  
  
  <path id="svg_72" fill="#007bff" d="m950.85,749.95c0,-99.5 68.87,-180 154,-180"/>
  <path id="svg_73" fill="#007bff" d="m862.85,580.81c0,93.46 39.35,169.09 88,169.09"/>
  
  <path d="M 979.169987 778.099976 A 34.310001 5.8 0 0 1 944.859985 783.899976 A 34.310001 5.8 0 0 1 910.549984 778.099976 A 34.310001 5.8 0 0 1 944.859985 772.299975 A 34.310001 5.8 0 0 1 979.169987 778.099976 Z" id="svg_75" opacity="0.1" fill="#007bff"/>
  <path id="svg_76" fill="#a8a8a8" d="m921.81,751.15s19.57,-0.6 25.47,-4.8s30.11,-9.22 31.57,-2.48s29.41,33.5 7.32,33.68s-51.34,-3.44 -57.23,-7s-7.13,-19.4 -7.13,-19.4z"/>
  <path id="svg_77" opacity="0.2" d="m986.53,775.2c-22.09,0.18 -51.34,-3.44 -57.23,-7c-4.48,-2.74 -6.27,-12.53 -6.86,-17.06l-0.66,0s1.24,15.78 7.13,19.37s35.13,7.21 57.23,7c6.37,-0.05 8.58,-2.32 8.46,-5.68c-0.86,2.12 -3.29,3.33 -8.07,3.37z"/>
 </g></g></g></svg>